<?xml version="1.0" encoding="utf-8"?>
<!-- Generator: Adobe Illustrator 15.0.2, SVG Export Plug-In . SVG Version: 6.00 Build 0)  -->
<!DOCTYPE svg PUBLIC "-//W3C//DTD SVG 1.1//EN" "http://www.w3.org/Graphics/SVG/1.1/DTD/svg11.dtd">
<svg version="1.1" id="Layer_1" xmlns="http://www.w3.org/2000/svg" xmlns:xlink="http://www.w3.org/1999/xlink" x="0px" y="0px"
	 width="52.5px" height="52.044px" viewBox="103.488 64.433 52.5 52.044" enable-background="new 103.488 64.433 52.5 52.044"
	 xml:space="preserve">
<g>
	<path fill="#E32028" d="M144.726,72.886c0.033,0.057,0.112,0.194,0.193,0.338c0.093,0.164,0.188,0.335,0.223,0.402
		c0.525,1.002,0.931,2.053,1.254,3.134c0.049,0.156,0.238,0.869,0.24,0.876c1.802-1.106,4.274-3.817,4.274-3.817L144.726,72.886z"/>
	<path fill="#E32028" d="M147.456,82.65c-0.048-1.052-0.194-2.094-0.394-3.126c-0.065-0.344-0.138-0.688-0.214-1.03
		c-0.029-0.133-0.119-0.492-0.215-0.856c-0.093-0.357-0.191-0.72-0.24-0.877c-0.323-1.081-0.729-2.132-1.254-3.134
		c-0.034-0.067-0.13-0.238-0.223-0.402c-0.081-0.145-0.161-0.283-0.194-0.339c-0.375-0.617-0.795-1.192-1.273-1.713
		c-0.478-0.521-1.015-0.986-1.622-1.385c-1.203-0.79-2.533-1.187-3.971-1.192c-1.633-0.005-3.154,0.453-4.576,1.237
		c-2.595,1.432-4.506,3.532-5.87,6.14c-0.396,0.753-0.701,1.552-1.07,2.318c-1.322,2.734-6.665,9.531-8.975,11.481
		c-2.439,2.062-5.162,3.657-8.108,4.876c-0.444,0.184-0.896,0.348-1.357,0.527c0.037,0.055,0.073,0.104,0.105,0.152
		c0.288,0.437,0.591,0.818,0.902,1.149c0.935,0.995,1.947,1.53,2.893,1.697c3.746,0.66,4.333-0.219,7.491-1.028
		c1.825,1.488,7.57,4.066,9.882,4.543v-0.001l0.007,0.002c0.006,0.001,0.012,0.003,0.018,0.004c0.188,0.038,0.352,0.061,0.489,0.069
		c0.258,0.015,0.515,0.021,0.771,0.022l0,0c0.009,0,0.017,0.001,0.025,0.001c1.123,0.002,2.238-0.124,3.344-0.354
		c0.453-0.095,0.902-0.203,1.344-0.326c0.118-0.032,0.232-0.074,0.349-0.108c0.317-0.095,0.635-0.188,0.945-0.298v-0.006
		c0.438-0.154,0.87-0.323,1.295-0.509l-0.001,0.009c0.009-0.004,0.018-0.007,0.024-0.01c1.092-0.477,2.141-1.058,3.138-1.751
		c0.787-0.549,1.517-1.157,2.18-1.83c0.665-0.673,1.265-1.408,1.795-2.211c1.637-2.478,2.434-5.233,2.597-8.173
		c0.05-0.854,0.032-1.714,0.001-2.571C147.482,83.315,147.473,82.981,147.456,82.65z M140.171,76.238
		c-0.522,0.96-1.725,0.945-2.384,0.068c-0.691-0.923-0.817-1.932-0.302-2.969c0.534-1.066,1.74-1.208,2.474-0.265
		C140.509,73.781,140.677,75.306,140.171,76.238z"/>
</g>
<path fill="none" d="M137.783,100.184c-0.007,0.003-0.016,0.006-0.024,0.01l0,0C137.767,100.191,137.774,100.188,137.783,100.184
	c1.091-0.476,2.14-1.056,3.137-1.75c0.788-0.549,1.517-1.158,2.181-1.831c-0.663,0.673-1.393,1.281-2.18,1.83
	C139.924,99.126,138.875,99.708,137.783,100.184z"/>
<path fill="none" d="M132.247,105.951c-0.016-0.059-0.046-0.115-0.074-0.17c-0.229-0.467-0.231-0.472,0.285-0.693
	c0.835-0.362,1.716-0.567,2.628-0.652c0.312-0.029,0.627-0.016,0.941-0.021c0.153-0.002,0.244-0.04,0.254-0.212
	c0.052-1.056,0.107-2.114,0.162-3.172l0.021-0.331c-0.311,0.109-0.628,0.203-0.945,0.298c0.315-0.094,0.632-0.187,0.94-0.295
	l-0.02,0.328c-0.055,1.058-0.111,2.116-0.162,3.172c-0.01,0.172-0.101,0.21-0.254,0.212c-0.313,0.005-0.629-0.009-0.941,0.021
	c-0.911,0.085-1.793,0.29-2.629,0.652c-0.516,0.222-0.514,0.227-0.284,0.693c0.027,0.055,0.059,0.111,0.074,0.17
	c0.046,0.167,0.125,0.233,0.26,0.206C132.372,106.182,132.292,106.117,132.247,105.951z"/>
<path fill="none" d="M147.493,83.648c-0.012-0.333-0.021-0.667-0.036-0.998c-0.049-1.052-0.195-2.094-0.395-3.126
	c0.199,1.032,0.346,2.074,0.394,3.126C147.473,82.981,147.482,83.315,147.493,83.648z"/>
<path fill="none" d="M137.976,105.831c0,0,0,0.001,0.002,0.001c1.928,0.628,2.94,1.999,3.597,3.667c0.001,0,0.003,0,0.004-0.001
	C140.922,107.829,139.908,106.457,137.976,105.831z"/>
<path fill="none" d="M129.173,101.689c-2.312-0.477-8.057-3.055-9.882-4.543c-3.158,0.81-3.745,1.688-7.491,1.028
	c-0.945-0.167-1.958-0.702-2.893-1.697c0.935,0.995,1.947,1.531,2.894,1.698c3.746,0.661,4.333-0.219,7.491-1.027
	C121.117,98.635,126.862,101.213,129.173,101.689L129.173,101.689z"/>
<path fill="none" d="M144.917,73.224c0.093,0.164,0.188,0.335,0.223,0.402c0.525,1.002,0.931,2.053,1.254,3.134
	c0.049,0.157,0.147,0.52,0.24,0.877c0.001-0.001,0.001-0.001,0.002-0.001c-0.002-0.007-0.191-0.72-0.24-0.876
	c-0.323-1.081-0.729-2.132-1.254-3.134c-0.034-0.067-0.13-0.238-0.223-0.402c-0.081-0.144-0.16-0.281-0.193-0.338h-0.002
	c-0.375-0.618-0.796-1.193-1.274-1.714c0.479,0.521,0.898,1.096,1.273,1.713C144.756,72.941,144.836,73.08,144.917,73.224z"/>
<path fill="none" d="M138.283,111.093c-0.077-0.536-0.144-1.074-0.201-1.612c-0.154-1.465-0.742-2.768-1.646-3.96
	c-0.13-0.173-0.306-0.189-0.479-0.178c0.17-0.011,0.346,0.006,0.476,0.178c0.903,1.192,1.492,2.494,1.646,3.96
	c0.058,0.538,0.125,1.076,0.201,1.612c0.013,0.084,0.095,0.215,0.158,0.222c0.287,0.025,0.58,0.015,0.875,0.018l0,0
	c-0.294-0.003-0.586,0.008-0.872-0.018C138.378,111.308,138.297,111.177,138.283,111.093z"/>
<path fill="none" d="M130.484,101.787c-0.009,0-0.017-0.001-0.025-0.001v0.001l0.023,0.001c1.122,0.002,2.237-0.124,3.343-0.354
	c0.455-0.095,0.904-0.204,1.347-0.327c-0.441,0.123-0.891,0.231-1.344,0.326C132.722,101.663,131.607,101.789,130.484,101.787z"/>
<path fill="none" d="M129.687,101.763c-0.138-0.009-0.302-0.031-0.489-0.069c-0.006-0.001-0.012-0.003-0.018-0.004l0.019,0.005
	c-0.008-0.001-0.018-0.004-0.025-0.006l-0.001,0.004c0.189,0.038,0.356,0.062,0.494,0.069
	C129.672,101.763,129.679,101.762,129.687,101.763z"/>
<path fill="none" d="M133.557,111.466c-0.343-0.767-0.778-1.479-1.412-2.079c-0.491-0.464-1.053-0.838-1.682-1.133
	c-0.054-0.025-0.113-0.04-0.233-0.08l0.001,0.001c0.117,0.039,0.178,0.055,0.231,0.08c0.629,0.294,1.19,0.669,1.682,1.133
	C132.777,109.988,133.212,110.702,133.557,111.466c0.087,0.198,0.189,0.249,0.407,0.141c0.269-0.134,0.553-0.244,0.877-0.384l0,0
	c-0.325,0.14-0.607,0.249-0.876,0.383C133.747,111.714,133.646,111.664,133.557,111.466z"/>
<path fill="none" d="M130.365,112.976c-0.021-0.382-0.035-0.765-0.09-1.145c-0.054-0.368-0.16-0.729-0.237-1.094
	c-0.223-1.064-0.657-2.04-1.403-2.881c-0.078-0.091-0.188-0.201-0.299-0.218c-0.72-0.094-1.439,0.013-2.134,0.18
	c-0.561,0.134-1.093,0.373-1.667,0.576c-0.13-0.244-0.27-0.489-0.377-0.743c-0.023-0.05,0.054-0.18,0.12-0.215l0,0
	c-0.066,0.034-0.145,0.165-0.121,0.216c0.107,0.255,0.247,0.499,0.376,0.743c0.575-0.202,1.107-0.441,1.667-0.576
	c0.695-0.167,1.415-0.273,2.134-0.18c0.111,0.017,0.222,0.127,0.3,0.218c0.745,0.841,1.181,1.817,1.403,2.881
	c0.077,0.366,0.184,0.728,0.237,1.094C130.329,112.212,130.345,112.595,130.365,112.976c0.01,0.201,0.045,0.384,0.236,0.508
	c0.307-0.038,0.613-0.076,0.917-0.113c0,0,0,0,0-0.001c-0.305,0.037-0.61,0.075-0.916,0.112
	C130.411,113.359,130.376,113.176,130.365,112.976z"/>
<path fill="none" d="M128.379,106.409c0.03-0.208,0.375-2.241,0.6-3.569c-0.227,1.343-0.575,3.399-0.602,3.57
	c-0.013,0.081-0.035,0.138-0.08,0.174C128.343,106.547,128.365,106.49,128.379,106.409z"/>
<path fill="#5E3A22" d="M129.18,101.69c-0.002,0-0.004-0.001-0.007-0.001l0,0c0.008,0.002,0.018,0.005,0.025,0.006L129.18,101.69z"
	/>
<path fill="#5E3A22" d="M119.292,97.148c-3.158,0.809-3.745,1.688-7.491,1.027c-0.946-0.167-1.959-0.703-2.894-1.698
	c-0.312-0.331-0.615-0.714-0.903-1.151c-0.032-0.048-0.068-0.097-0.105-0.151c0.461-0.18,0.913-0.344,1.357-0.528
	c2.946-1.218,5.667-2.814,8.108-4.875c2.31-1.95,7.652-8.747,8.974-11.481c0.37-0.767,0.676-1.565,1.071-2.318
	c1.364-2.608,3.275-4.708,5.87-6.14c1.421-0.784,2.943-1.242,4.576-1.237c1.437,0.006,2.768,0.402,3.971,1.192
	c0.608,0.399,1.145,0.865,1.623,1.386s0.899,1.096,1.274,1.714h0.002l-0.001-0.001l6.187,0.933c0,0-2.474,2.714-4.275,3.819v-0.001
	c-0.001,0-0.001,0-0.002,0.001c0.096,0.364,0.186,0.724,0.215,0.856c0.076,0.343,0.148,0.687,0.214,1.03
	c0.199,1.032,0.346,2.074,0.395,3.126c0.016,0.331,0.024,0.665,0.036,0.998c0.032,0.857,0.051,1.716,0,2.57
	c-0.163,2.939-0.96,5.695-2.597,8.173c-0.531,0.803-1.131,1.539-1.796,2.212c-0.664,0.673-1.393,1.282-2.181,1.831
	c-0.997,0.694-2.046,1.274-3.138,1.751c-0.009,0.003-0.016,0.006-0.023,0.009l-0.018,0.262c-0.064,1.016-0.124,2.029-0.184,3.045
	c-0.019,0.296-0.042,0.592-0.025,0.886c0.005,0.091,0.116,0.215,0.212,0.249c0.952,0.341,1.853,0.756,2.646,1.346
	c0.713,0.532,1.254,1.194,1.677,1.938c0.175,0.314,0.31,0.648,0.482,0.964c0.087,0.166,0.053,0.252-0.136,0.317
	c-0.268,0.09-0.535,0.191-0.836,0.299c0,0,0,0,0-0.001c-0.001,0.001-0.003,0.001-0.004,0.001c-0.656-1.668-1.669-3.039-3.597-3.667
	c1.03,1.691,1.399,3.52,1.34,5.501c-0.001,0-0.002,0-0.004,0l0,0c-0.295-0.003-0.588,0.008-0.875-0.018
	c-0.063-0.007-0.146-0.138-0.158-0.222c-0.076-0.536-0.144-1.074-0.201-1.612c-0.154-1.466-0.743-2.768-1.646-3.96
	c-0.13-0.172-0.306-0.188-0.476-0.178c-0.057,0.003-0.112,0.01-0.166,0.015c-1.083,0.084-2.156,0.237-3.131,0.741
	c-0.06,0.03-0.111,0.049-0.156,0.058c-0.135,0.027-0.214-0.039-0.26-0.206c-0.016-0.059-0.047-0.115-0.074-0.17
	c-0.229-0.467-0.231-0.472,0.284-0.693c0.836-0.362,1.718-0.567,2.629-0.652c0.312-0.029,0.628-0.016,0.941-0.021
	c0.153-0.002,0.244-0.04,0.254-0.212c0.051-1.056,0.107-2.114,0.162-3.172l0.02-0.328c-0.309,0.108-0.625,0.201-0.94,0.295
	c-0.117,0.034-0.23,0.076-0.349,0.108c-0.442,0.123-0.892,0.232-1.347,0.327c-1.105,0.23-2.221,0.356-3.343,0.354l-0.023-0.001
	l-0.261,1.304c-0.219,1.101-0.44,2.202-0.669,3.302c-0.052,0.244-0.006,0.372,0.277,0.492c0.805,0.343,1.622,0.686,2.356,1.132
	c0.967,0.591,1.612,1.47,2.189,2.381c0.169,0.268,0.32,0.541,0.49,0.825l-0.001,0.001l0,0c-0.324,0.14-0.608,0.25-0.877,0.384
	c-0.218,0.108-0.32,0.058-0.408-0.14c-0.344-0.766-0.779-1.479-1.412-2.079c-0.491-0.464-1.053-0.839-1.682-1.133
	c-0.054-0.025-0.114-0.041-0.231-0.08c0.155,0.315,0.312,0.569,0.407,0.845c0.206,0.59,0.441,1.18,0.558,1.789
	c0.16,0.844,0.222,1.707,0.324,2.561h-0.001c0,0.001,0,0.001,0,0.001c-0.304,0.037-0.61,0.075-0.917,0.113
	c-0.191-0.124-0.227-0.307-0.237-0.507c-0.02-0.382-0.035-0.765-0.09-1.145c-0.054-0.366-0.16-0.728-0.237-1.094
	c-0.223-1.063-0.658-2.04-1.403-2.881c-0.078-0.091-0.188-0.201-0.3-0.218c-0.719-0.094-1.438,0.013-2.134,0.18
	c-0.56,0.135-1.092,0.374-1.667,0.576c-0.129-0.244-0.269-0.488-0.376-0.743c-0.023-0.051,0.055-0.182,0.121-0.216l0,0
	c0.001,0,0.001-0.001,0.002-0.001c1.184-0.615,2.468-0.819,3.797-0.803c0.105,0.002,0.175-0.014,0.22-0.05s0.067-0.093,0.08-0.174
	c0.026-0.171,0.375-2.228,0.602-3.57c0.111-0.658,0.193-1.146,0.193-1.146l0,0l0.001-0.004
	C126.862,101.213,121.117,98.635,119.292,97.148z"/>
<path fill="#5E3A22" d="M146.215,71.162c-0.359-0.532-0.733-1.032-1.143-1.479c-0.613-0.668-1.298-1.253-2.037-1.737
	c-1.56-1.023-3.3-1.546-5.206-1.553c-1.906,0-3.795,0.508-5.612,1.511c-2.865,1.581-5.14,3.951-6.756,7.044
	c-0.255,0.484-0.478,0.987-0.699,1.489c-0.132,0.301-0.264,0.602-0.405,0.895c-1.172,2.423-6.281,8.958-8.412,10.758
	c-2.17,1.833-4.704,3.354-7.53,4.523c-0.272,0.113-0.547,0.217-0.825,0.323l-0.488,0.188l-2.506,1.126l1.572,2.291
	c0.348,0.528,0.73,1.015,1.135,1.445c1.203,1.28,2.626,2.095,4.115,2.357c1.013,0.179,1.883,0.265,2.661,0.265
	c1.602,0,2.69-0.362,3.844-0.747c0.306-0.103,0.617-0.206,0.957-0.311c2.079,1.333,5.572,2.924,8.062,3.773
	c-0.101,0.603-0.197,1.176-0.243,1.443c-1.22,0.124-2.312,0.442-3.319,0.966c-0.87,0.459-1.485,1.639-0.996,2.67
	c0.106,0.252,0.236,0.498,0.366,0.741l0.081,0.15c0.342,0.648,1.007,1.028,1.705,1.028c0.215,0,0.432-0.035,0.645-0.111
	c0.191-0.067,0.378-0.14,0.563-0.21c0.344-0.132,0.642-0.245,0.908-0.309c0.331-0.079,0.609-0.129,0.857-0.149
	c0.303,0.452,0.515,0.978,0.644,1.594c0.031,0.148,0.067,0.296,0.103,0.443c0.043,0.176,0.088,0.351,0.113,0.526
	c0.039,0.269,0.05,0.54,0.064,0.811l0.008,0.163c0.06,1.115,0.642,1.715,1.12,2.022c0.312,0.201,0.674,0.306,1.042,0.306
	c0.077,0,0.155-0.005,0.232-0.014l0.916-0.111c0.913-0.111,1.599-0.843,1.686-1.721c0.11,0.018,0.225,0.026,0.34,0.026
	c0.353,0,0.705-0.088,1.044-0.257c0.157-0.078,0.319-0.145,0.496-0.219l0.285-0.12c0.44-0.188,0.783-0.54,0.98-0.971
	c0.299,0.607,0.883,1.13,1.689,1.212c0.229,0.021,0.461,0.024,0.694,0.024c0,0,0.342,0.001,0.348,0.001
	c1.039,0,1.893-0.825,1.927-1.865c0.11,0.021,0.224,0.03,0.338,0.03c0.216,0,0.436-0.036,0.65-0.113c0,0,0.636-0.231,0.812-0.291
	c0.854-0.296,1.204-0.903,1.336-1.239c0.133-0.335,0.291-1.015-0.141-1.828c-0.067-0.121-0.126-0.247-0.185-0.372
	c-0.096-0.202-0.193-0.403-0.311-0.614c-0.58-1.022-1.321-1.875-2.203-2.533c-0.6-0.444-1.262-0.827-2.038-1.172
	c0.022-0.392,0.059-0.979,0.093-1.519c0.898-0.447,1.774-0.937,2.59-1.504c0.904-0.632,1.742-1.334,2.486-2.088
	c0.77-0.78,1.466-1.637,2.065-2.546c1.771-2.681,2.767-5.798,2.957-9.256c0.057-0.963,0.035-1.906,0.004-2.781
	c0,0-0.025-0.782-0.037-1.021c-0.05-1.064-0.19-2.189-0.431-3.437c-0.055-0.288-0.116-0.573-0.178-0.856
	c1.579-1.289,3.075-2.907,3.285-3.137l2.433-2.667L146.215,71.162z"/>
<path fill="#FCBA16" d="M145.142,73.626c0.525,1.002,0.931,2.053,1.254,3.134c0.049,0.156,0.238,0.869,0.24,0.876
	c1.802-1.106,4.274-3.817,4.274-3.817l-6.185-0.933c0.033,0.057,0.112,0.194,0.193,0.338
	C145.012,73.388,145.108,73.559,145.142,73.626z"/>
<path fill="#FCBA16" d="M146.636,77.636L146.636,77.636c1.802-1.104,4.275-3.818,4.275-3.818l-6.187-0.933l0.001,0.001l6.185,0.933
	C150.91,73.819,148.438,76.53,146.636,77.636z"/>
<path fill="#FCBA16" d="M136.488,100.693c-0.007,0.003-0.015,0.004-0.022,0.007l-0.021,0.331c-0.055,1.058-0.11,2.116-0.162,3.172
	c-0.01,0.172-0.101,0.21-0.254,0.212c-0.314,0.005-0.629-0.009-0.941,0.021c-0.912,0.085-1.793,0.29-2.628,0.652
	c-0.517,0.222-0.515,0.227-0.285,0.693c0.028,0.055,0.059,0.111,0.074,0.17c0.045,0.166,0.125,0.231,0.257,0.206
	c0.045-0.009,0.096-0.028,0.152-0.058c0.975-0.504,2.048-0.657,3.131-0.741c0.056-0.005,0.112-0.012,0.17-0.015
	c0.173-0.012,0.349,0.005,0.479,0.178c0.904,1.192,1.492,2.495,1.646,3.96c0.058,0.538,0.124,1.076,0.201,1.612
	c0.014,0.084,0.095,0.215,0.158,0.222c0.286,0.025,0.578,0.015,0.872,0.018c0.06-1.982-0.31-3.811-1.341-5.502
	c0.001,0,0.002,0.001,0.005,0.001c-0.002,0-0.002-0.001-0.002-0.001c1.933,0.626,2.946,1.998,3.603,3.667
	c0.3-0.107,0.566-0.208,0.833-0.298c0.188-0.065,0.223-0.151,0.135-0.317c-0.173-0.315-0.308-0.649-0.482-0.964
	c-0.421-0.743-0.963-1.405-1.678-1.938c-0.791-0.589-1.692-1.005-2.646-1.346c-0.096-0.034-0.206-0.158-0.212-0.249
	c-0.016-0.294,0.008-0.59,0.026-0.886c0.059-1.016,0.119-2.029,0.184-3.045l0.018-0.26c0.001,0,0.002-0.001,0.003-0.002l0,0
	C137.342,100.375,136.918,100.542,136.488,100.693z"/>
<path fill="#FCBA16" d="M129.69,101.763c-0.001,0-0.002,0-0.003,0c-0.008-0.001-0.015,0-0.021-0.001
	c-0.138-0.008-0.305-0.031-0.494-0.069c-0.003,0.018-0.084,0.497-0.193,1.146c-0.225,1.328-0.569,3.361-0.6,3.569
	c-0.014,0.081-0.036,0.139-0.082,0.175c-0.045,0.036-0.114,0.053-0.221,0.051c-1.329-0.017-2.613,0.188-3.798,0.803
	c-0.066,0.035-0.144,0.165-0.12,0.215c0.107,0.254,0.247,0.499,0.377,0.743c0.574-0.203,1.106-0.442,1.667-0.576
	c0.694-0.167,1.414-0.273,2.134-0.18c0.11,0.017,0.221,0.127,0.299,0.218c0.746,0.841,1.181,1.816,1.403,2.881
	c0.077,0.365,0.184,0.726,0.237,1.094c0.055,0.38,0.069,0.763,0.09,1.145c0.011,0.2,0.046,0.383,0.237,0.506
	c0.306-0.037,0.611-0.075,0.916-0.112c-0.103-0.854-0.164-1.716-0.324-2.56c-0.116-0.609-0.352-1.199-0.558-1.789
	c-0.096-0.275-0.254-0.53-0.408-0.846c0.001,0,0.001,0,0.002,0l-0.001-0.001c0.12,0.04,0.18,0.055,0.233,0.08
	c0.629,0.295,1.19,0.669,1.682,1.133c0.634,0.6,1.069,1.312,1.412,2.079c0.089,0.197,0.19,0.248,0.408,0.14
	c0.269-0.134,0.551-0.243,0.876-0.383c-0.169-0.285-0.321-0.559-0.49-0.824c-0.577-0.912-1.223-1.791-2.189-2.382
	c-0.733-0.445-1.552-0.789-2.356-1.132c-0.283-0.12-0.329-0.247-0.277-0.492c0.229-1.099,0.45-2.2,0.669-3.302l0.228-1.306
	l0.034,0.001v-0.001C130.202,101.785,129.947,101.778,129.69,101.763z"/>
<path fill="#FCBA16" d="M135.787,105.358c-1.083,0.084-2.156,0.237-3.131,0.741c-0.057,0.029-0.107,0.049-0.152,0.058
	c0.045-0.009,0.097-0.027,0.156-0.058c0.975-0.504,2.048-0.657,3.131-0.741c0.054-0.005,0.109-0.012,0.166-0.015
	C135.9,105.346,135.843,105.353,135.787,105.358z"/>
<path fill="#FCBA16" d="M139.314,111.333c0.002,0,0.003,0,0.004,0c0.06-1.981-0.31-3.81-1.34-5.501
	c-0.003,0-0.004-0.001-0.005-0.001C139.004,107.522,139.373,109.35,139.314,111.333z"/>
<path fill="#FCBA16" d="M137.739,100.456c-0.064,1.016-0.125,2.029-0.184,3.045c-0.019,0.296-0.042,0.592-0.026,0.886
	c0.006,0.091,0.116,0.215,0.212,0.249c0.953,0.341,1.854,0.757,2.646,1.346c0.715,0.532,1.257,1.194,1.678,1.938
	c0.175,0.314,0.31,0.648,0.482,0.964c0.088,0.166,0.054,0.252-0.135,0.317c-0.267,0.09-0.533,0.19-0.833,0.298
	c0,0.001,0,0.001,0,0.001c0.301-0.107,0.568-0.209,0.836-0.299c0.188-0.065,0.223-0.151,0.136-0.317
	c-0.173-0.315-0.308-0.649-0.482-0.964c-0.423-0.743-0.964-1.405-1.677-1.938c-0.794-0.59-1.694-1.005-2.646-1.346
	c-0.096-0.034-0.207-0.158-0.212-0.249c-0.017-0.294,0.007-0.59,0.025-0.886c0.06-1.016,0.119-2.029,0.184-3.045l0.018-0.262
	c-0.001,0.001-0.002,0.002-0.003,0.002L137.739,100.456z"/>
<path fill="#FCBA16" d="M129.172,101.693c0,0.001-0.082,0.488-0.193,1.146C129.088,102.19,129.169,101.71,129.172,101.693
	L129.172,101.693z"/>
<path fill="#FCBA16" d="M130.197,103.091c-0.219,1.102-0.44,2.203-0.669,3.302c-0.052,0.245-0.006,0.372,0.277,0.492
	c0.805,0.343,1.623,0.687,2.356,1.132c0.967,0.591,1.612,1.47,2.189,2.382c0.169,0.266,0.321,0.539,0.49,0.824l0.001-0.001
	c-0.17-0.284-0.321-0.558-0.49-0.825c-0.577-0.911-1.223-1.79-2.189-2.381c-0.734-0.446-1.552-0.789-2.356-1.132
	c-0.283-0.12-0.329-0.248-0.277-0.492C129.757,105.292,129.979,104.191,130.197,103.091l0.262-1.305l-0.034-0.001L130.197,103.091z"
	/>
<path fill="#FCBA16" d="M130.637,109.021c0.206,0.59,0.441,1.18,0.558,1.789c0.16,0.844,0.222,1.705,0.324,2.56h0.001
	c-0.103-0.854-0.164-1.717-0.324-2.561C131.079,110.2,130.844,109.61,130.637,109.021c-0.095-0.276-0.251-0.53-0.406-0.846
	c-0.001,0-0.001,0-0.002,0C130.383,108.491,130.541,108.746,130.637,109.021z"/>
<path fill="#FCBA16" d="M128.297,106.583c-0.045,0.036-0.114,0.052-0.22,0.05c-1.329-0.017-2.613,0.188-3.797,0.803
	c-0.001,0-0.001,0.001-0.002,0.001c1.185-0.614,2.469-0.819,3.798-0.803C128.183,106.636,128.252,106.62,128.297,106.583z"/>
<path fill="#E32028" d="M119.291,97.146c1.825,1.488,7.57,4.066,9.882,4.543v-0.001l0.007,0.002
	c0.006,0.001,0.012,0.003,0.018,0.004c0.188,0.038,0.352,0.061,0.489,0.069c0.258,0.015,0.515,0.021,0.771,0.022l0,0
	c0.009,0,0.017,0.001,0.025,0.001c1.123,0.002,2.238-0.124,3.344-0.354c0.453-0.095,0.902-0.203,1.344-0.326
	c0.118-0.032,0.232-0.074,0.349-0.108c0.317-0.095,0.635-0.188,0.945-0.298v-0.006c0.438-0.154,0.87-0.323,1.295-0.509l-0.001,0.009
	c0.009-0.004,0.018-0.007,0.024-0.01c1.092-0.477,2.141-1.058,3.138-1.751c0.787-0.549,1.517-1.157,2.18-1.83
	c0.665-0.673,1.265-1.408,1.795-2.211c1.637-2.478,2.434-5.233,2.597-8.173c0.05-0.854,0.032-1.714,0.001-2.571
	c-0.012-0.333-0.021-0.667-0.037-0.998c-0.048-1.052-0.194-2.094-0.394-3.126c-0.065-0.344-0.138-0.688-0.214-1.03
	c-0.029-0.133-0.119-0.492-0.215-0.856c-0.093-0.357-0.191-0.72-0.24-0.877c-0.323-1.081-0.729-2.132-1.254-3.134
	c-0.034-0.067-0.13-0.238-0.223-0.402c-0.081-0.145-0.161-0.283-0.194-0.339c-0.375-0.617-0.795-1.192-1.273-1.713
	c-0.478-0.521-1.015-0.986-1.622-1.385c-1.203-0.79-2.533-1.187-3.971-1.192c-1.633-0.005-3.154,0.453-4.576,1.237
	c-2.595,1.432-4.506,3.532-5.87,6.14c-0.396,0.753-0.701,1.552-1.07,2.318c-1.322,2.734-6.665,9.531-8.975,11.481
	c-2.439,2.062-5.162,3.657-8.108,4.876c-0.444,0.184-0.896,0.348-1.357,0.527c0.037,0.055,0.073,0.104,0.105,0.152
	c0.288,0.437,0.591,0.818,0.902,1.149c0.935,0.995,1.947,1.53,2.893,1.697C115.546,98.834,116.133,97.956,119.291,97.146z
	 M137.486,73.337c0.534-1.066,1.74-1.208,2.474-0.265c0.55,0.708,0.718,2.233,0.212,3.165c-0.522,0.96-1.725,0.945-2.384,0.068
	C137.096,75.383,136.97,74.375,137.486,73.337z"/>
<path fill="#E32028" d="M147.492,86.219c-0.163,2.939-0.96,5.695-2.597,8.173c-0.53,0.803-1.13,1.538-1.795,2.211
	c0.665-0.673,1.265-1.409,1.796-2.212C146.533,91.914,147.33,89.158,147.492,86.219c0.052-0.855,0.033-1.714,0.001-2.571
	C147.525,84.505,147.542,85.365,147.492,86.219z"/>
<path fill="#E32028" d="M135.52,100.998c-0.116,0.034-0.23,0.076-0.349,0.108C135.289,101.074,135.403,101.032,135.52,100.998z"/>
<path fill="#E32028" d="M107.9,95.175c0.461-0.18,0.913-0.344,1.357-0.527c2.946-1.219,5.669-2.814,8.108-4.876
	c2.31-1.95,7.652-8.747,8.975-11.481c0.369-0.767,0.675-1.565,1.07-2.318c1.364-2.607,3.275-4.708,5.87-6.14
	c1.422-0.784,2.943-1.242,4.576-1.237c1.438,0.006,2.768,0.402,3.971,1.192c0.607,0.398,1.145,0.864,1.622,1.385
	c-0.479-0.521-1.015-0.986-1.623-1.386c-1.203-0.79-2.534-1.187-3.971-1.192c-1.633-0.005-3.155,0.453-4.576,1.237
	c-2.595,1.432-4.506,3.531-5.87,6.14c-0.396,0.753-0.701,1.552-1.071,2.318c-1.321,2.734-6.664,9.531-8.974,11.481
	c-2.441,2.061-5.162,3.657-8.108,4.875C108.812,94.831,108.36,94.995,107.9,95.175c0.036,0.054,0.072,0.103,0.104,0.15
	c0.288,0.438,0.592,0.82,0.903,1.151c-0.312-0.331-0.614-0.713-0.902-1.149C107.973,95.279,107.937,95.23,107.9,95.175z"/>
<polygon fill="#E32028" points="129.173,101.688 129.173,101.689 129.18,101.69 "/>
<path fill="#E32028" d="M137.759,100.194l0.001-0.009c-0.425,0.186-0.856,0.354-1.295,0.509v0.006
	c0.008-0.003,0.016-0.004,0.022-0.007C136.918,100.542,137.342,100.375,137.759,100.194z"/>
<path fill="#E32028" d="M130.458,101.786L130.458,101.786c-0.257-0.001-0.514-0.008-0.771-0.022c0.001,0,0.002,0,0.003,0
	C129.947,101.778,130.202,101.785,130.458,101.786z"/>
<path fill="#5E3A22" d="M140.171,76.238c0.506-0.932,0.338-2.457-0.212-3.165c-0.733-0.943-1.939-0.802-2.474,0.265
	c-0.516,1.037-0.39,2.046,0.302,2.969C138.447,77.183,139.649,77.198,140.171,76.238z"/>
</svg>
