<?xml version="1.0" encoding="utf-8"?>
<!-- Generator: Adobe Illustrator 16.0.0, SVG Export Plug-In . SVG Version: 6.00 Build 0)  -->
<!DOCTYPE svg PUBLIC "-//W3C//DTD SVG 1.1//EN" "http://www.w3.org/Graphics/SVG/1.1/DTD/svg11.dtd">
<svg version="1.1" id="Layer_4" xmlns="http://www.w3.org/2000/svg" xmlns:xlink="http://www.w3.org/1999/xlink" x="0px" y="0px"
	 width="275px" height="275px" viewBox="258.5 168.5 275 275" enable-background="new 258.5 168.5 275 275" xml:space="preserve">
<g id="Layer_3">
	<defs>
		<path id="SVGID_1_" d="M531.371,315.503c-0.082-0.471-0.252-0.921-0.365-1.388c0.012-0.039,0.018-0.081,0.029-0.125
			c0.094-0.521,0.146-1.05,0.123-1.584c0.105-0.636,0.195-1.272,0.186-1.922c-0.021-0.871-0.158-1.755-0.418-2.587
			c-0.264-0.846-0.688-1.634-1.248-2.323c-0.195-0.24-0.418-0.463-0.648-0.667c-0.041-0.074-0.082-0.144-0.127-0.217
			c-0.133-0.208-0.275-0.417-0.418-0.622c-0.104-0.149-0.219-0.299-0.334-0.442c0.086-0.065,0.174-0.127,0.26-0.199
			c0.311-0.255,0.582-0.538,0.83-0.847c0.357-0.537,0.693-1.088,0.947-1.679c0.17-0.404,0.291-0.82,0.375-1.247
			c0-0.02,0.004-0.037,0.004-0.059c0.029-0.604,0.084-1.21,0.145-1.811c0-0.341-0.006-0.684-0.02-1.023
			c-0.045,0.017-0.096,0.017-0.145,0.003c-0.123-0.035-0.182-0.137-0.195-0.256c-0.146-1.703-0.045-3.402,0.035-5.098
			c-0.143-0.015-0.238-0.13-0.246-0.27c-0.082-1.249-0.098-2.499-0.137-3.752c-0.02-0.572-0.043-1.145-0.072-1.718
			c-0.057-0.294-0.115-0.584-0.182-0.874c-0.037-0.147-0.08-0.292-0.121-0.437c-0.176-0.557-0.369-1.116-0.561-1.67
			c-0.201-0.569-0.393-1.145-0.547-1.728c-0.072-0.27-0.131-0.549-0.184-0.82c-0.254-0.463-0.557-0.887-0.934-1.266
			c-0.457-0.467-0.996-0.838-1.43-1.328c-0.037-0.055-0.066-0.105-0.098-0.159c0.34-0.348,0.562-0.803,0.729-1.245
			c0.209-0.543,0.305-1.112,0.369-1.683c0-0.032,0.004-0.063,0.008-0.098c0.008-0.054,0.012-0.117,0.02-0.175v-0.022
			c0.062-0.702,0-1.391-0.102-2.093c-0.053-0.415-0.16-0.834-0.328-1.223c-0.053-0.205-0.111-0.409-0.164-0.611
			c-1.4-1.621-2.441-3.509-3.281-5.48c-0.094-0.216-0.182-0.434-0.27-0.65c-0.025-0.06-0.051-0.125-0.074-0.192
			c-0.102-0.254-0.201-0.505-0.295-0.758c-0.006-0.018-0.012-0.039-0.02-0.055c-0.088-0.244-0.176-0.484-0.262-0.729
			c-0.02-0.062-0.041-0.123-0.068-0.185c-0.088-0.256-0.174-0.514-0.26-0.768c-0.182-0.539-0.35-1.082-0.518-1.622
			c-0.031-0.101-0.059-0.201-0.092-0.3c-0.059-0.205-0.123-0.414-0.191-0.623c-0.051-0.17-0.105-0.343-0.154-0.515
			c-0.137-0.45-0.271-0.897-0.41-1.348c-0.043-0.157-0.092-0.314-0.141-0.473c-0.074-0.24-0.15-0.482-0.229-0.724
			c-0.051-0.166-0.094-0.326-0.146-0.487c-0.082-0.247-0.164-0.493-0.246-0.731c-0.049-0.155-0.1-0.312-0.152-0.468
			c-0.092-0.27-0.189-0.54-0.285-0.81c-0.051-0.123-0.088-0.252-0.135-0.375c-0.145-0.395-0.299-0.783-0.459-1.175
			c-0.105-0.241-0.215-0.477-0.318-0.714c-0.027-0.058-0.057-0.114-0.082-0.17c-0.078-0.165-0.154-0.331-0.232-0.5
			c-0.066-0.137-0.135-0.274-0.201-0.412c-0.102-0.205-0.199-0.413-0.301-0.611c-0.039-0.072-0.076-0.141-0.111-0.209
			c-0.027-0.058-0.059-0.114-0.086-0.165c-0.043-0.084-0.084-0.169-0.123-0.238c-0.127-0.241-0.258-0.482-0.383-0.718
			c-0.037-0.067-0.082-0.136-0.123-0.216c-0.07-0.12-0.137-0.244-0.207-0.364c-0.055-0.097-0.104-0.19-0.164-0.287
			c-0.004-0.008-0.01-0.016-0.02-0.022c-0.029-0.051-0.059-0.101-0.098-0.157c-0.16-0.278-0.32-0.553-0.488-0.826
			c-0.025-0.039-0.047-0.079-0.068-0.118c-0.014-0.015-0.027-0.034-0.035-0.055c-0.072-0.108-0.15-0.22-0.223-0.328
			c-0.133-0.212-0.264-0.418-0.4-0.62c-0.064-0.1-0.125-0.202-0.199-0.307c-0.059-0.085-0.121-0.17-0.178-0.255
			c-0.025-0.04-0.049-0.071-0.072-0.111c-0.002-0.004-0.01-0.008-0.01-0.014c-0.004-0.006-0.008-0.013-0.016-0.019
			c-0.152-0.221-0.311-0.43-0.465-0.646c-0.105-0.139-0.197-0.28-0.301-0.418c-0.037-0.045-0.07-0.094-0.104-0.137
			c0-0.007-0.006-0.01-0.01-0.019c-0.014-0.016-0.021-0.033-0.035-0.05c-0.18-0.224-0.365-0.44-0.549-0.663
			c-0.393-0.479-0.805-0.954-1.221-1.423c-0.105-0.321-0.213-0.642-0.332-0.953c-0.287-0.744-0.619-1.465-1.041-2.133
			c-0.219-0.348-0.49-0.669-0.738-0.996c-0.344-0.45-0.682-0.901-1.014-1.353c-1.131-1.528-2.225-3.088-3.32-4.641
			c-1.066-1.507-2.139-3.007-3.172-4.54c-1-1.476-2.018-2.932-3.121-4.331c-0.291-0.374-0.596-0.73-0.91-1.08
			c-0.271-0.138-0.543-0.267-0.822-0.382c-0.701-0.289-1.42-0.526-2.164-0.688c-0.041-0.009-0.078-0.027-0.109-0.051
			c-0.133-0.045-0.258-0.098-0.375-0.156c-0.191-0.091-0.402-0.223-0.488-0.418c-0.039-0.086-0.078-0.172-0.102-0.258
			c-0.07-0.12-0.125-0.253-0.166-0.379c-0.096-0.264-0.16-0.527-0.215-0.797c-0.053-0.239-0.105-0.482-0.18-0.716
			c-0.066-0.214-0.154-0.419-0.244-0.625c-0.002-0.007-0.002-0.011-0.006-0.018c-0.01-0.021-0.023-0.04-0.031-0.064
			c-0.031-0.072-0.062-0.141-0.094-0.217c-0.057-0.071-0.098-0.141-0.105-0.229c-0.012-0.028-0.023-0.052-0.037-0.079
			c-1.742-1.708-3.434-3.463-4.941-5.378c-0.725-0.949-1.43-1.9-2.209-2.804c-0.82-0.95-1.701-1.847-2.596-2.723
			c-0.904-0.881-1.834-1.729-2.766-2.58c-0.9-0.823-1.795-1.664-2.717-2.468c-0.516-0.446-1.041-0.879-1.576-1.292
			c-0.301-0.113-0.576-0.271-0.842-0.441c-0.006-0.003-0.012-0.007-0.018-0.01c-0.025-0.019-0.053-0.036-0.074-0.054
			c-0.102-0.065-0.203-0.135-0.314-0.206c-0.156-0.045-0.32-0.079-0.48-0.101c-0.002,0-0.006-0.005-0.016-0.005h-0.02
			c-0.189-0.021-0.385-0.028-0.574-0.007c-0.15,0.023-0.299,0.064-0.449,0.119c-0.107,0.048-0.207,0.108-0.305,0.169
			c-0.008,0.007-0.021,0.011-0.025,0.018c-0.033,0.02-0.066,0.04-0.1,0.065c-0.094,0.076-0.184,0.158-0.27,0.243
			c-0.139,0.141-0.361,0.132-0.496,0.007c-0.031-0.004-0.068-0.015-0.098-0.026c-0.1-0.042-0.174-0.129-0.207-0.231
			c-0.105-0.337-0.23-0.666-0.355-0.993c-0.021-0.043-0.041-0.091-0.062-0.145c-0.01-0.021-0.02-0.045-0.025-0.057
			c0.002,0.007,0.006,0.014,0.012,0.027c-0.004-0.006-0.006-0.014-0.01-0.021c0.002,0.007,0.006,0.016,0.004,0.015
			c-0.047-0.121-0.096-0.238-0.154-0.352c-0.053-0.121-0.109-0.237-0.166-0.357c-0.037-0.066-0.07-0.138-0.107-0.206
			c-0.1-0.199-0.203-0.395-0.312-0.591l-0.037-0.079c-0.121-0.22-0.248-0.437-0.371-0.652c-0.41-0.268-0.828-0.516-1.232-0.779
			c-0.416-0.275-0.832-0.566-1.18-0.922c-2.373-1.283-4.576-2.872-6.836-4.35c-3.094-2.021-6.342-3.789-9.656-5.412
			c-3.361-1.649-6.805-3.129-10.287-4.488c-0.83-0.325-1.666-0.643-2.508-0.928c-0.941-0.312-1.9-0.576-2.863-0.811
			c-0.271-0.068-0.545-0.124-0.816-0.186c-0.162-0.079-0.326-0.154-0.488-0.224c-0.027,0.006-0.053,0.011-0.078,0.011
			c-0.125,0.004-0.246,0.015-0.369,0.021c-0.01,0-0.01,0-0.016,0.003c-0.01,0-0.023,0-0.039,0.004
			c-0.342,0.051-0.672,0.141-0.99,0.271c-0.148,0.065-0.291,0.141-0.43,0.223c-0.031,0.019-0.061,0.04-0.09,0.055
			c-0.082,0.053-0.168,0.102-0.24,0.159c-0.031,0.027-0.072,0.046-0.102,0.071c-0.084,0.065-0.166,0.134-0.252,0.212
			c-0.068,0.062-0.135,0.134-0.201,0.202c-0.016,0.015-0.031,0.028-0.047,0.047c-0.145,0.157-0.283,0.321-0.422,0.484
			c-0.039,0.048-0.082,0.1-0.129,0.144c-0.006,0.007-0.016,0.01-0.018,0.018c-0.02,0.019-0.041,0.039-0.061,0.055
			c-0.027,0.021-0.053,0.039-0.084,0.052c-0.064,0.027-0.141,0.065-0.215,0.065c-0.008,0-0.016,0-0.023-0.004
			c-0.078-0.01-0.168-0.016-0.236-0.067c-0.066-0.049-0.121-0.101-0.172-0.158c-0.051-0.059-0.098-0.123-0.139-0.192
			c-0.107-0.175-0.213-0.355-0.307-0.54c-0.098-0.202-0.186-0.409-0.273-0.618c-0.047-0.113-0.092-0.228-0.146-0.364
			c-0.004-0.007-0.008-0.016-0.025-0.051c-0.043-0.104-0.092-0.199-0.143-0.295c-0.006-0.012-0.01-0.021-0.016-0.028
			c-0.025-0.047-0.059-0.096-0.086-0.145c-0.037-0.059-0.07-0.116-0.111-0.171c-0.082-0.101-0.174-0.189-0.268-0.277
			c-0.012-0.01-0.025-0.025-0.041-0.039c-0.033-0.028-0.066-0.062-0.098-0.087c-0.066-0.051-0.137-0.093-0.209-0.138
			c-0.135-0.093-0.283-0.176-0.428-0.26c-0.059-0.035-0.117-0.067-0.195-0.103c-0.182-0.104-0.365-0.206-0.553-0.304
			c-0.232-0.115-0.467-0.226-0.703-0.331c-0.039-0.018-0.08-0.039-0.117-0.053c-0.121-0.056-0.24-0.109-0.359-0.157
			c-0.098-0.045-0.199-0.086-0.295-0.131c0.025,0.013,0.057,0.028,0.084,0.038c-0.154-0.068-0.312-0.13-0.467-0.194
			c-0.846-0.267-1.705-0.485-2.57-0.667c-0.684-0.147-1.373-0.263-2.066-0.349c-0.598-0.16-1.197-0.311-1.803-0.443
			c-1.221-0.271-2.449-0.458-3.688-0.604c-0.754-0.089-1.514-0.135-2.271-0.171l-3.312-3.182l-28.761,1.244l-3.757,3.216
			c-0.357-0.152-0.731-0.267-1.116-0.339c-0.993-0.188-2.017-0.259-3.005-0.068c-0.131-0.004-0.262-0.007-0.392,0
			c-1.01,0.032-2.018,0.21-2.994,0.464c-0.107,0.027-0.207,0.079-0.3,0.135c-0.449,0.067-0.899,0.146-1.345,0.237
			c-0.9,0.182-1.797,0.364-2.696,0.542c-0.968,0.192-1.928,0.416-2.862,0.721c-0.678,0.224-1.323,0.508-1.94,0.862
			c-0.009,0.013-0.022,0.027-0.033,0.04c-0.012,0.015-0.023,0.024-0.039,0.04c-0.068,0.079-0.138,0.151-0.212,0.225
			c-0.201,0.215-0.406,0.424-0.631,0.611c-0.026,0.039-0.052,0.073-0.086,0.111c-0.26,0.302-0.623,0.501-0.999,0.628
			c-0.405,0.133-0.844,0.188-1.274,0.188h-0.02c-0.257,0-0.511-0.017-0.766-0.056c-0.297,0.021-0.596,0.035-0.896,0.046
			c-0.583,0.02-1.152,0.072-1.729,0.157c-0.515,0.079-1.019,0.25-1.518,0.395c-0.488,0.142-0.977,0.296-1.463,0.457
			c-0.396,0.131-0.79,0.271-1.184,0.416c-1.107,0.216-2.198,0.519-3.257,0.925c-0.896,0.346-1.764,0.765-2.605,1.243
			c-0.827,0.473-1.621,1.03-2.317,1.69c-0.308,0.284-0.57,0.609-0.777,0.96c-0.015,0.071-0.025,0.144-0.037,0.22
			c-0.011,0.066-0.018,0.127-0.026,0.189c-0.023,0.178-0.049,0.354-0.078,0.528c-0.003,0.02-0.003,0.041-0.007,0.062
			c-0.05,0.274-0.112,0.567-0.228,0.828c0.047,0.117,0.01,0.268-0.109,0.337c-0.043,0.025-0.092,0.048-0.139,0.072
			c-0.141,0.165-0.325,0.295-0.532,0.353c-0.108,0.032-0.218,0.045-0.33,0.045c-0.142,0-0.284-0.023-0.419-0.076
			c-0.275-0.105-0.529-0.268-0.746-0.472c-0.093-0.088-0.182-0.18-0.259-0.279c-0.47-0.169-0.979-0.226-1.469-0.268
			c-0.523-0.037-1.043,0.031-1.563,0.104c-1.053,0.14-2.056,0.55-3.019,0.979c-1.038,0.462-2.019,1.053-2.968,1.68
			c-0.857,0.559-1.684,1.17-2.5,1.791c-0.272,0.207-0.54,0.413-0.806,0.619c-0.728,0.433-1.401,0.976-1.982,1.495
			c-0.35,0.318-0.684,0.652-1.002,0.998c-0.565,0.321-1.108,0.673-1.627,1.084c-0.302,0.241-0.537,0.537-0.768,0.852
			c-0.179,0.061-0.346,0.159-0.473,0.303c-0.36,0.42-0.759,0.796-1.187,1.147c-0.08,0.058-0.161,0.105-0.24,0.16
			c-0.147,0.004-0.293,0.007-0.438,0.018c-1.045,0.065-2.034,0.437-2.962,0.9c-0.816,0.408-1.557,0.984-2.231,1.59
			c-0.049,0.046-0.096,0.094-0.144,0.138c-0.433,0.173-0.863,0.349-1.293,0.536c-0.108,0.089-0.218,0.18-0.326,0.267
			c-0.361,0.331-0.736,0.637-1.136,0.907c-0.036,0.025-0.07,0.048-0.103,0.072c-0.133,0.09-0.273,0.168-0.416,0.252
			c-0.065,0.033-0.125,0.077-0.189,0.111c-0.663,0.54-1.315,1.09-1.959,1.647c-0.096,0.08-0.189,0.166-0.284,0.253
			c-0.119,0.103-0.238,0.201-0.353,0.305c-0.088,0.079-0.174,0.159-0.264,0.237c-0.005,0.005-0.012,0.011-0.018,0.011
			c-0.098,0.089-0.194,0.183-0.292,0.271c-0.066,0.06-0.139,0.116-0.196,0.178c-0.077,0.072-0.155,0.141-0.235,0.213
			c-0.109,0.1-0.222,0.204-0.332,0.306c-0.4,0.374-0.796,0.749-1.189,1.13c-0.527,0.513-1.054,1.031-1.569,1.558
			c-0.517,0.523-1.024,1.056-1.528,1.596c-0.09,0.099-0.18,0.199-0.272,0.296c-0.072,0.147-0.146,0.288-0.22,0.432
			c-0.177,0.322-0.358,0.649-0.577,0.948c-0.202,0.274-0.423,0.536-0.71,0.725c-0.065,0.042-0.134,0.079-0.209,0.111
			c-0.01,0.003-0.017,0.004-0.029,0.012c-0.064,0.025-0.128,0.049-0.196,0.065c-0.09,0.024-0.178,0.049-0.266,0.065
			c-0.16,0.027-0.32,0.056-0.479,0.072c-1.631,1.168-3.106,2.555-4.458,4.024c-1.732,1.883-3.277,3.946-4.692,6.075
			c-0.817,1.227-1.59,2.486-2.317,3.768c-0.159,1.23-0.474,2.63-1.602,3.335c-0.085,0.051-0.171,0.099-0.256,0.144
			c-0.13,0.245-0.263,0.488-0.408,0.726c-0.425,0.716-0.916,1.397-1.424,2.061c-1.178,1.507-2.449,2.94-3.526,4.519
			c-0.565,0.824-1.056,1.7-1.451,2.617c-0.392,0.916-0.72,1.864-1.098,2.791c-0.004,0.008-0.009,0.018-0.014,0.028
			c-0.002,0.011-0.005,0.018-0.014,0.027c-0.271,0.632-0.575,1.247-0.926,1.844c-0.057,0.23-0.129,0.454-0.231,0.67
			c-0.26,0.58-0.702,1.019-1.202,1.394c-0.1,0.142-0.197,0.279-0.292,0.423c-1.049,1.562-1.829,3.287-2.499,5.036
			c-0.157,0.41-0.307,0.826-0.446,1.243c-0.066,0.117-0.131,0.236-0.196,0.356c-1.215,2.287-2.307,4.646-3.199,7.077
			c-0.689,1.879-1.212,3.805-1.555,5.771c-0.031,0.031-0.061,0.071-0.098,0.097c-0.016,0.05-0.027,0.101-0.037,0.148
			c-0.131,0.525-0.236,1.055-0.33,1.588c-0.059,0.113-0.111,0.229-0.166,0.347c-0.372,0.81-0.737,1.673-0.891,2.555
			c-0.161,0.937-0.061,1.863,0.142,2.789c-0.016,0.085-0.028,0.173-0.05,0.263c0.049,0.22,0.095,0.44,0.13,0.663
			c0.065,0.364,0.116,0.731,0.145,1.099c0.021,0.332,0.028,0.663-0.011,0.99c-0.037,0.347-0.104,0.686-0.239,1.013
			c-0.058,0.138-0.119,0.274-0.188,0.405c-0.037,0.22-0.089,0.436-0.166,0.647c-0.136,0.351-0.305,0.685-0.517,0.988
			c-0.21,0.306-0.449,0.594-0.697,0.869c-0.005,0.003-0.011,0.011-0.017,0.017c-0.029,0.037-0.055,0.075-0.086,0.113
			c-0.208,0.279-0.434,0.546-0.629,0.831c-0.294,0.419-0.543,0.867-0.758,1.33c-0.069,0.256-0.137,0.508-0.202,0.764
			c-0.025,1.094-0.114,2.186-0.251,3.28c-0.083,0.661-0.175,1.32-0.278,1.979c-0.041,0.271-0.084,0.541-0.128,0.807
			c-0.026,0.356-0.043,0.71-0.062,1.063c-0.014,0.375-0.031,0.749-0.037,1.124c-0.004,0.21,0.007,0.419,0.019,0.625
			c0.022,0.457,0.059,0.918,0.052,1.372c0.019,0.159,0.037,0.324,0.053,0.486c0.041,0.085,0.078,0.179,0.119,0.262
			c0.209,0.492,0.401,0.993,0.535,1.518c0.128,0.509,0.216,1.038,0.225,1.57c0,0.059,0,0.12-0.002,0.184
			c0.225,0.954,0.459,1.916,0.515,2.897c0.013,0.164,0.016,0.328,0.013,0.487c0,0.161-0.007,0.325-0.023,0.482
			c-0.004,0.051-0.009,0.105-0.013,0.154c-0.019,0.174-0.044,0.348-0.073,0.521c-0.003,0.012-0.003,0.014-0.007,0.024
			c-0.103,0.493-0.265,0.977-0.454,1.441c-0.38,0.928-0.849,1.821-1.243,2.745c-0.031,0.071-0.059,0.142-0.087,0.213
			c0,0-0.01,0.06-0.01,0.062c0,0.007-0.001,0.015-0.001,0.021c0,0.005,0,0.011-0.003,0.019c-0.105,0.834-0.093,1.67-0.089,2.512
			c0.004,0.442-0.005,0.888-0.004,1.332c0,0.431,0.008,0.861,0.012,1.291c0.005,0.681,0.005,1.357-0.021,2.038
			c0.117,0.642,0.199,1.297,0.257,1.944c0.052,0.546,0.09,1.092,0.122,1.64c0.1,0.698,0.188,1.392,0.262,2.095
			c0.026,0.26,0.049,0.523,0.074,0.788c0.089,0.381,0.173,0.768,0.245,1.157c0.009,0.04,0.016,0.083,0.026,0.119
			c0.025,0.145,0.052,0.294,0.078,0.438c0.006,0.063,0.016,0.127,0.028,0.183c0.019,0.129,0.037,0.254,0.051,0.384
			c0.01,0.065,0.02,0.139,0.028,0.204c0.014,0.121,0.029,0.242,0.039,0.357c0.01,0.073,0.016,0.148,0.021,0.221
			c0.011,0.119,0.017,0.24,0.028,0.356c0.003,0.07,0.009,0.142,0.012,0.213c0.006,0.131,0.009,0.258,0.013,0.389
			c0,0.06,0.003,0.121,0.003,0.179c0.004,0.189,0.002,0.386-0.003,0.568c0.131,0.7,0.239,1.401,0.332,2.101
			c0.081,0.596,0.149,1.195,0.213,1.794c0.026,0.098,0.051,0.191,0.079,0.282c0.097,0.352,0.192,0.703,0.28,1.059
			c0.13,0.54,0.242,1.09,0.314,1.647c0.038,0.127,0.072,0.26,0.11,0.392c0.208,0.77,0.38,1.55,0.479,2.347
			c0.002,0.027,0.004,0.053,0.008,0.085c0.032,0.179,0.068,0.348,0.102,0.526c0.003,0.014,0.009,0.031,0.013,0.043
			c0.056,0.267,0.109,0.526,0.178,0.784c0.102,0.382,0.229,0.755,0.321,1.14c0.306,0.517,0.604,1.045,0.858,1.593
			c0.024,0.048,0.058,0.095,0.095,0.135c0.033,0.127,0.071,0.256,0.098,0.387c0.072,0.113,0.146,0.221,0.225,0.328
			c0.294,0.373,0.619,0.723,0.906,1.104c0.099,0.133,0.185,0.276,0.268,0.417c-0.05,0.018-0.093,0.04-0.142,0.058
			c0.094,0.065,0.182,0.137,0.265,0.213c0.567,0.535,1.122,1.187,1.807,1.759c1.213,1.013,2.763,1.568,3.013,3.17
			c0.128,0.82,0.026,1.354-0.213,1.823c-0.023,0.266-0.09,0.52-0.205,0.73c-0.055,0.099-0.104,0.198-0.148,0.302
			c-0.75,1.717-1.141,4.111-0.685,5.964c0.12,0.49,0.236,0.994,0.498,1.438c0.32,0.544,0.357,0.994,0.574,1.568
			c0.231,0.617,0.609,1.153,0.876,1.745c0.151,0.335,0.163,0.859,0.377,1.159c0.146,0.204,0.351,0.2,0.492,0.371
			c0.111,0.137,0.208,0.467,0.308,0.627c0.329,0.536,0.807,1.009,1.189,1.512c0.349,0.456,0.663,0.982,1.048,1.409
			c0.388,0.433,0.515,0.484,0.674,0.996c0.359,1.148,0.649,2.41,1.183,3.49c0.452,0.916,1.089,1.704,1.42,2.694
			c0.335,0.995,0.203,2.061,0.709,3.027c0.541,1.035,1.149,1.962,1.585,3.05c0.41,1.022,0.374,2.12,0.862,3.099
			c1.354,2.723,3.494,5.204,6.008,6.878c1.444,0.961,3.041,1.519,4.378,2.604c0.307,0.25,0.723,0.427,0.992,0.725
			c0.352,0.387,0.554,0.836,0.889,1.247c0.639,0.777,0.866,1.526,0.969,2.576c0.073,0.763,0.382,1.551,0.735,2.226
			c0.297,0.568,0.781,1.024,1.073,1.585c0.196,0.375,0.278,0.973,0.525,1.302c0.072,0.096,0.395,0.272,0.504,0.373
			c1.13,1.041,1.992,2.353,2.951,3.542c0.024-0.016,0.049-0.023,0.076-0.033c0.046-0.015,0.093-0.015,0.141,0
			c0.991,0.402,1.928,0.948,2.811,1.558c0.268,0.186,0.535,0.38,0.797,0.58c0.327,0.248,0.648,0.504,0.961,0.776
			c0.237,0.04,0.472,0.107,0.692,0.204c0.258,0.115,0.494,0.282,0.702,0.482c0.066,0.065,0.131,0.136,0.189,0.207
			c0.059,0.075,0.116,0.154,0.168,0.232c0.008,0.008,0.008,0.01,0.014,0.016c0.191,0.225,0.344,0.484,0.445,0.771
			c0.039,0.109,0.073,0.228,0.1,0.343c1.248,1.013,2.616,1.989,3.597,3.274c0.077-0.012,0.158,0.012,0.211,0.075
			c0.345,0.391,0.691,0.78,1.043,1.161c0.732,0.772,1.52,1.491,2.332,2.18c0.003,0.009,0.006,0.015,0.011,0.015
			c0.097,0.087,0.195,0.166,0.294,0.248c0.158,0.131,0.311,0.26,0.47,0.391c0.117,0.096,0.242,0.187,0.36,0.284
			c0.179,0.145,0.356,0.292,0.538,0.433c0.781,0.598,1.576,1.188,2.375,1.761c0.862,0.624,1.727,1.243,2.582,1.87
			c0.492,0.357,0.981,0.715,1.472,1.072c0.727,0.378,1.434,0.79,2.127,1.229c0.396,0.248,0.787,0.504,1.174,0.766
			c0.056,0.026,0.111,0.046,0.17,0.067c0.067,0.034,0.121,0.06,0.159,0.128c0.009,0.014,0.016,0.035,0.021,0.047
			c0.117,0.078,0.232,0.163,0.35,0.244c0.319,0.197,0.634,0.399,0.946,0.61c0.063,0.035,0.125,0.085,0.189,0.119
			c0.368,0.174,0.73,0.343,1.093,0.521c0.422,0.203,0.835,0.421,1.244,0.644c0.3,0.141,0.599,0.286,0.892,0.433
			c0.361,0.145,0.721,0.308,1.078,0.471c1.235,0.571,2.426,1.245,3.586,1.963c0.021,0.011,0.044,0.034,0.064,0.052
			c0.254,0.058,0.515,0.105,0.774,0.144c0.119,0.02,0.242,0.037,0.363,0.037c0.093,0,0.184,0,0.275-0.006
			c0.226-0.014,0.45-0.035,0.677-0.052c0.249-0.018,0.502-0.031,0.755-0.025c0.087,0,0.18,0,0.273,0.008
			c0.144-0.15,0.289-0.306,0.445-0.45c0.02-0.015,0.036-0.026,0.053-0.032c0.062-0.02,0.119-0.036,0.183-0.048
			c0.127-0.008,0.25-0.008,0.378,0c0.141,0.032,0.279,0.076,0.416,0.119c0.499,0.244,0.948,0.561,1.396,0.884
			c0.584,0.435,1.197,0.808,1.83,1.173c0.178,0.104,0.356,0.203,0.531,0.304c0.895,0.711,1.836,1.356,2.812,1.94
			c0.043,0.035,0.086,0.067,0.128,0.106c0.394,0.276,0.82,0.501,1.264,0.695c1.108,0.465,2.287,0.73,3.426,1.098
			c0.305,0.102,0.604,0.209,0.914,0.294c0.338,0.094,0.681,0.161,1.027,0.223c0.342,0.065,0.687,0.115,1.033,0.177
			c0.175,0.025,0.346,0.058,0.516,0.083c0.137,0.032,0.274,0.056,0.408,0.081c0.459,0.054,0.92,0.046,1.381,0.046
			c0.344-0.014,0.682-0.016,1.023,0.006c0.124-0.048,0.245-0.097,0.371-0.145c0.175-0.065,0.355-0.123,0.537-0.161
			c0.054-0.071,0.105-0.148,0.159-0.227c0.04-0.056,0.086-0.101,0.172-0.117c0.019-0.104,0.033-0.208,0.041-0.304
			c0.22,0.05,0.438,0.123,0.651,0.195c0.022,0.143,0.071,0.283,0.155,0.408c0.146,0.213,0.276,0.441,0.401,0.67
			c0.044,0.035,0.074,0.077,0.085,0.129c0.002,0.016,0.007,0.029,0.012,0.041c0.03,0.032,0.062,0.06,0.097,0.084
			c0.142,0.093,0.273,0.202,0.404,0.315c0.076,0,0.132,0.032,0.189,0.079c0.144,0.117,0.262,0.25,0.362,0.403
			c0.201,0.161,0.399,0.321,0.602,0.479c0.112,0.089,0.226,0.173,0.341,0.25c0.103,0.021,0.211,0.046,0.313,0.062
			c0.265,0.056,0.527,0.119,0.789,0.183c0.205,0.046,0.412,0.094,0.616,0.146c0.035,0.012,0.071,0.018,0.108,0.031
			c0.355,0.094,0.705,0.185,1.062,0.278c0.324,0.093,0.656,0.183,0.983,0.271c0.339,0.092,0.677,0.181,1.015,0.267
			c0.022,0,0.042,0.002,0.062,0.002c0.518,0.033,1.037,0.077,1.549,0.141c1.194,0.145,2.392,0.354,3.538,0.713
			c0.329,0.046,0.661,0.099,0.988,0.163c0.082,0.014,0.147,0.073,0.175,0.156c0.077,0.006,0.152,0.022,0.227,0.032
			c1.611-0.006,3.202,0.097,4.769,0.527c0.04,0.015,0.072,0.032,0.103,0.058c0.777,0.084,1.562,0.175,2.345,0.234
			c1.167,0.104,2.341,0.167,3.518,0.197c1.174,0.029,2.349,0.029,3.522,0.029c0.188,0,0.383,0.004,0.576,0.008
			c0.034,0,0.069,0.004,0.105,0.004c0.324-0.05,0.647-0.101,0.975-0.154c0.5-0.063,0.994-0.125,1.503-0.161
			c0.188-0.155,0.401-0.27,0.635-0.338c0.271-0.075,0.556-0.11,0.842-0.106c0.629,0.008,1.268,0.148,1.855,0.387
			c0.041,0.012,0.081,0.025,0.129,0.046c0.073,0.033,0.152,0.067,0.228,0.099c0.059,0.036,0.113,0.058,0.169,0.092
			c0.12,0.05,0.234,0.115,0.343,0.183c0.252,0.157,0.497,0.327,0.704,0.538c0.137,0.133,0.268,0.292,0.367,0.457
			c0.184,0.035,0.367,0.069,0.555,0.095c0.143,0.016,0.285,0.032,0.43,0.048c0.586-0.018,1.18-0.002,1.768,0.02
			c0.684,0.024,1.367,0.063,2.049,0.105c0.297,0.016,0.592,0.034,0.889,0.054c0.266-0.038,0.533-0.065,0.801-0.104
			c1.006-0.121,2.004-0.254,3.014-0.344c0.682-0.06,1.371-0.095,2.055-0.097c0.572-0.153,1.139-0.336,1.688-0.54
			c0.559-0.211,1.1-0.445,1.637-0.699c0.479-0.224,0.939-0.486,1.416-0.713c0.291-0.11,0.582-0.19,0.881-0.258
			c0.891-0.073,1.781,0.052,2.664,0.129c1.088,0.082,2.191-0.008,3.242-0.308c0.998-0.279,1.928-0.792,2.816-1.32
			c0.912-0.542,1.822-1.094,2.789-1.522c0.377-0.148,0.75-0.266,1.15-0.338c0.617-0.041,1.236,0.004,1.85,0.042
			c0.68,0.038,1.354,0.012,2.029-0.048c1.43-0.115,2.846-0.369,4.264-0.571c0.264-0.024,0.523-0.06,0.789-0.086
			c0.094,0.026,0.193,0.048,0.301,0.048c0.113,0,0.225-0.016,0.334-0.058c0.053-0.018,0.107-0.037,0.158-0.058
			c0.209-0.014,0.42-0.033,0.631-0.041c0.43-0.019,0.814-0.234,1.037-0.57c3.779-1.394,7.523-2.879,11.312-4.242
			c1.945-0.699,3.895-1.428,5.676-2.468c0.902-0.53,1.734-1.18,2.447-1.936c0.668-0.717,1.223-1.57,1.971-2.212
			c0.084-0.056,0.17-0.1,0.252-0.143c0.193-0.064,0.379-0.111,0.58-0.144c0.609-0.067,1.217-0.102,1.826-0.183
			c0.098-0.016,0.207-0.027,0.311-0.044c0.17-0.06,0.346-0.117,0.516-0.172c0.66-0.207,1.322-0.382,1.965-0.644
			c0.48-0.205,0.934-0.471,1.381-0.725c0.5-0.286,0.992-0.576,1.488-0.859c0.494-0.286,0.992-0.57,1.49-0.854
			c0.5-0.279,1.006-0.55,1.51-0.84c0.557-0.312,1.113-0.617,1.674-0.923c0.27-0.202,0.539-0.399,0.812-0.59
			c0.93-0.675,1.879-1.326,2.805-2.009c0.463-0.338,0.922-0.683,1.379-1.026c0.463-0.344,0.928-0.685,1.389-1.017
			c0.143-0.107,0.281-0.208,0.42-0.304c0.088-0.062,0.174-0.131,0.262-0.192c0.131,0.099,0.283,0.185,0.449,0.262
			c0.326-0.357,0.699-0.687,1.107-0.98c1.215-0.874,1.93-1.91,3.051-2.904c0.477-0.421,1.023-0.83,1.596-1.205
			c-0.281,0.183-0.305-1.392-0.264-1.523c0.182-0.581,0.51-0.954,1.105-1.046c0.592-0.089,0.891,0.069,1.316-0.477
			c0.174-0.225,0.178-0.454,0.441-0.619c0.221-0.139,0.523-0.075,0.748-0.221c0.219-0.143,0.455-0.469,0.621-0.663
			c0.695-0.823,1.203-1.713,1.896-2.555c0.42-0.509,0.725-1.112,1.232-1.541c0.531-0.448,0.746-1.056,1.107-1.659
			c0.365-0.605,0.783-1.015,1.195-1.568c0.426-0.572,0.672-1.301,0.99-1.942c0.256-0.514,0.541-1.016,0.773-1.522
			c0.146-0.313,0.195-0.771,0.373-1.102c0.631-1.172,1.555-2.131,2.244-3.242c0.797-1.29,2.104-2.255,2.814-3.6
			c0.371-0.698,0.324-0.81,1.059-1.142c1.781-0.804,3.039-2.533,4.15-4.008c0.969-1.285,1.896-2.492,2.707-3.886
			c0.555-0.95,0.422-1.999,0.822-2.983c0.262-0.638,0.758-1.047,1.178-1.568c0.484-0.604,0.879-1.276,1.379-1.874
			c0.957-1.14,2.033-2.176,2.904-3.39c0.609-0.852,1.086-1.755,1.48-2.699c0.332-0.795,0.926-1.47,1.299-2.187
			c0.389-0.744,0.389-1.396,0.453-2.191c0.113-1.403,1.443-2.43,2.062-3.623c0.006-0.014,0.01-0.024,0.014-0.036
			c0.334-0.8,0.652-1.608,0.955-2.422c0.061-0.977,0.344-1.934,0.689-2.843c0.17-0.443,0.35-0.876,0.543-1.305
			c0.27-1.193,0.562-2.374,0.852-3.558c0.057-0.317,0.139-0.631,0.238-0.941c0.258-1.046,0.51-2.092,0.82-3.126
			c0.148-0.505,0.311-1.007,0.49-1.501c0.078-0.501,0.166-1.003,0.271-1.501c0.193-0.936,0.439-1.868,0.779-2.771
			c0.01-0.183,0.02-0.365,0.025-0.55c0.023-0.473,0.023-0.943,0.01-1.42c0.068-0.403,0.158-0.794,0.281-1.191
			c0.186-0.592,0.41-1.163,0.518-1.772c0.148-0.868,0.098-1.737,0.107-2.608c-0.025-0.155-0.053-0.309-0.066-0.463
			c-0.021-0.223-0.031-0.444-0.029-0.671c0.008-0.215,0.027-0.431,0.07-0.647c0.049-0.258,0.125-0.515,0.213-0.763
			c0.121-0.331,0.26-0.663,0.416-0.977c0.156-0.315,0.334-0.623,0.543-0.909c0.09-0.113,0.18-0.227,0.279-0.333
			c0.076-0.09,0.162-0.171,0.256-0.247c0.004-0.02,0.01-0.041,0.012-0.065c0.117-0.688,0.062-1.361-0.141-2.03
			c-0.031-0.096-0.07-0.191-0.113-0.288c-0.025-0.344-0.057-0.679-0.084-1.017c-0.043-0.569-0.084-1.136-0.088-1.707
			c0.057-0.193,0.105-0.386,0.15-0.584c0.049-0.046,0.084-0.09,0.133-0.133c0.18-0.187,0.352-0.399,0.502-0.613
			c0.158-0.221,0.26-0.432,0.365-0.682C531.451,316.525,531.461,316.01,531.371,315.503z"/>
	</defs>
	<clipPath id="SVGID_2_">
		<use xlink:href="#SVGID_1_"  overflow="visible"/>
	</clipPath>
	<g id="Layer_1" clip-path="url(#SVGID_2_)">
		<g>
			
				<image overflow="visible" opacity="0.85" width="19" height="19" xlink:href="4360057234D4DF6D.png"  transform="matrix(1 0 0 1 462.5 187.5)">
			</image>
			<g>
				<polygon fill="#5F3B23" points="471.57,196.96 471.57,196.96 471.57,196.962 471.566,196.952 471.568,196.958 471.57,196.96 
					471.568,196.957 				"/>
			</g>
		</g>
		<g>
			
				<image overflow="visible" opacity="0.85" width="19" height="20" xlink:href="4360057234D4DF6F.png"  transform="matrix(1 0 0 1 250.5 296.5)">
			</image>
			<g>
				<polygon fill="#5F3B23" points="260.235,306.482 260.232,306.505 260.235,306.484 				"/>
			</g>
		</g>
		<g>
		</g>
		<g>
			
				<image overflow="visible" opacity="0.85" width="19" height="19" xlink:href="4360057234D4DF6A.png"  transform="matrix(1 0 0 1 462.5 187.5)">
			</image>
			<g>
				<polygon fill="#5F3B23" points="471.57,196.96 471.568,196.957 471.57,196.96 471.57,196.965 471.57,196.962 				"/>
			</g>
		</g>
		<g>
			
				<image overflow="visible" opacity="0.85" width="19" height="19" xlink:href="4360057234D4DF6B.png"  transform="matrix(1 0 0 1 462.5 187.5)">
			</image>
			<g>
				<polygon fill="#5F3B23" points="471.57,196.965 471.578,196.983 471.576,196.975 				"/>
			</g>
		</g>
		<g>
			<path fill="none" d="M298.84,402.228c0.048,0.05,0.093,0.093,0.142,0.141c-0.045-0.044-0.083-0.097-0.128-0.141H298.84z"/>
			<path fill="none" d="M298.982,402.368c0.129,0.131,0.246,0.274,0.374,0.409l0.027-0.02
				C299.254,402.622,299.115,402.495,298.982,402.368z"/>
			<polygon fill="none" points="342.167,201.599 342.167,201.596 342.163,201.596 			"/>
			<path fill="none" d="M511.77,325.809l-0.006,0.032v0.006C511.764,325.835,511.768,325.821,511.77,325.809z"/>
			<path fill="none" d="M473.143,348.478c-0.004-0.004,0.008-0.013,0.029-0.019C473.162,348.465,473.15,348.474,473.143,348.478z"/>
			<path fill="none" d="M521.014,360.179c0.238-0.455,0.316-0.899,0.012-1.231c-0.154,0.267-0.311,0.53-0.469,0.797
				C520.715,359.885,520.865,360.031,521.014,360.179z"/>
			<path fill="none" d="M430.369,433.996c0.016-0.008,0.025-0.008,0.035-0.016c-0.008,0-0.014,0.004-0.02,0.008
				C430.379,433.988,430.377,433.992,430.369,433.996z"/>
			<polygon fill="#5F3B23" points="429.496,176.849 429.494,176.84 429.494,176.841 			"/>
			<polygon fill="#5F3B23" points="429.467,176.772 429.469,176.779 429.471,176.783 			"/>
			<path fill="#5F3B23" d="M522.275,356.597c-0.006,0.019-0.012,0.032-0.02,0.048c-0.002,0.004-0.004,0.01-0.004,0.014
				C522.258,356.639,522.268,356.615,522.275,356.597z"/>
			<path fill="#5F3B23" d="M531.371,315.503c-0.082-0.471-0.252-0.921-0.365-1.388c0.012-0.039,0.018-0.081,0.029-0.125
				c0.094-0.521,0.146-1.05,0.123-1.584c0.105-0.636,0.195-1.272,0.186-1.922c-0.021-0.871-0.158-1.755-0.418-2.587
				c-0.264-0.846-0.688-1.634-1.248-2.323c-0.195-0.24-0.418-0.463-0.648-0.667c-0.041-0.074-0.082-0.144-0.127-0.217
				c-0.133-0.208-0.275-0.417-0.418-0.622c-0.104-0.149-0.219-0.299-0.334-0.442c0.086-0.065,0.174-0.127,0.26-0.199
				c0.311-0.255,0.582-0.538,0.83-0.847c0.357-0.537,0.693-1.088,0.947-1.679c0.17-0.404,0.291-0.82,0.375-1.247
				c0-0.02,0.004-0.037,0.004-0.059c0.029-0.604,0.084-1.21,0.145-1.811c0-0.341-0.006-0.684-0.02-1.023
				c-0.045,0.017-0.096,0.017-0.145,0.003c-0.123-0.035-0.182-0.137-0.195-0.256c-0.146-1.703-0.045-3.402,0.035-5.098
				c-0.143-0.015-0.238-0.13-0.246-0.27c-0.082-1.249-0.098-2.499-0.137-3.752c-0.02-0.572-0.043-1.145-0.072-1.718
				c-0.057-0.294-0.115-0.584-0.182-0.874c-0.037-0.147-0.08-0.292-0.121-0.437c-0.176-0.557-0.369-1.116-0.561-1.67
				c-0.201-0.569-0.393-1.145-0.547-1.728c-0.072-0.27-0.131-0.549-0.184-0.82c-0.254-0.463-0.557-0.887-0.934-1.266
				c-0.457-0.467-0.996-0.838-1.43-1.328c-0.037-0.055-0.066-0.105-0.098-0.159c0.34-0.348,0.562-0.803,0.729-1.245
				c0.209-0.543,0.305-1.112,0.369-1.683c0-0.032,0.004-0.063,0.008-0.098c0.008-0.054,0.012-0.117,0.02-0.175v-0.022
				c0.062-0.702,0-1.391-0.102-2.093c-0.053-0.415-0.16-0.834-0.328-1.223c-0.053-0.205-0.111-0.409-0.164-0.611
				c-1.4-1.621-2.441-3.509-3.281-5.48c-0.094-0.216-0.182-0.434-0.27-0.65c-0.025-0.06-0.051-0.125-0.074-0.192
				c-0.102-0.254-0.201-0.505-0.295-0.758c-0.006-0.018-0.012-0.039-0.02-0.055c-0.088-0.244-0.176-0.484-0.262-0.729
				c-0.02-0.062-0.041-0.123-0.068-0.185c-0.088-0.256-0.174-0.514-0.26-0.768c-0.182-0.539-0.35-1.082-0.518-1.622
				c-0.031-0.101-0.059-0.201-0.092-0.3c-0.059-0.205-0.123-0.414-0.191-0.623c-0.051-0.17-0.105-0.343-0.154-0.515
				c-0.137-0.45-0.271-0.897-0.41-1.348c-0.043-0.157-0.092-0.314-0.141-0.473c-0.074-0.24-0.15-0.482-0.229-0.724
				c-0.051-0.166-0.094-0.326-0.146-0.487c-0.082-0.247-0.164-0.493-0.246-0.731c-0.049-0.155-0.1-0.312-0.152-0.468
				c-0.092-0.27-0.189-0.54-0.285-0.81c-0.051-0.123-0.088-0.252-0.135-0.375c-0.145-0.395-0.299-0.783-0.459-1.175
				c-0.105-0.241-0.215-0.477-0.318-0.714c-0.027-0.058-0.057-0.114-0.082-0.17c-0.078-0.165-0.154-0.331-0.232-0.5
				c-0.066-0.137-0.135-0.274-0.201-0.412c-0.102-0.205-0.199-0.413-0.301-0.611c-0.039-0.072-0.076-0.141-0.111-0.209
				c-0.027-0.058-0.059-0.114-0.086-0.165c-0.043-0.084-0.084-0.169-0.123-0.238c-0.127-0.241-0.258-0.482-0.383-0.718
				c-0.037-0.067-0.082-0.136-0.123-0.216c-0.07-0.12-0.137-0.244-0.207-0.364c-0.055-0.097-0.104-0.19-0.164-0.287
				c-0.004-0.008-0.01-0.016-0.02-0.022c-0.029-0.051-0.059-0.101-0.098-0.157c-0.16-0.278-0.32-0.553-0.488-0.826
				c-0.025-0.039-0.047-0.079-0.068-0.118c-0.014-0.015-0.027-0.034-0.035-0.055c-0.072-0.108-0.15-0.22-0.223-0.328
				c-0.133-0.212-0.264-0.418-0.4-0.62c-0.064-0.1-0.125-0.202-0.199-0.307c-0.059-0.085-0.121-0.17-0.178-0.255
				c-0.025-0.04-0.049-0.071-0.072-0.111c-0.002-0.004-0.01-0.008-0.01-0.014c-0.004-0.006-0.008-0.013-0.016-0.019
				c-0.152-0.221-0.311-0.43-0.465-0.646c-0.105-0.139-0.197-0.28-0.301-0.418c-0.037-0.045-0.07-0.094-0.104-0.137
				c0-0.007-0.006-0.01-0.01-0.019c-0.014-0.016-0.021-0.033-0.035-0.05c-0.18-0.224-0.365-0.44-0.549-0.663
				c-0.393-0.479-0.805-0.954-1.221-1.423c-0.105-0.321-0.213-0.642-0.332-0.953c-0.287-0.744-0.619-1.465-1.041-2.133
				c-0.219-0.348-0.49-0.669-0.738-0.996c-0.344-0.45-0.682-0.901-1.014-1.353c-1.131-1.528-2.225-3.088-3.32-4.641
				c-1.066-1.507-2.139-3.007-3.172-4.54c-1-1.476-2.018-2.932-3.121-4.331c-0.291-0.374-0.596-0.73-0.91-1.08
				c-0.271-0.138-0.543-0.267-0.822-0.382c-0.701-0.289-1.42-0.526-2.164-0.688c-0.041-0.009-0.078-0.027-0.109-0.051
				c-0.133-0.045-0.258-0.098-0.375-0.156c-0.191-0.091-0.402-0.223-0.488-0.418c-0.039-0.086-0.078-0.172-0.102-0.258
				c-0.07-0.12-0.125-0.253-0.166-0.379c-0.096-0.264-0.16-0.527-0.215-0.797c-0.053-0.239-0.105-0.482-0.18-0.716
				c-0.066-0.214-0.154-0.419-0.244-0.625c-0.002-0.007-0.002-0.011-0.006-0.018c-0.01-0.021-0.023-0.04-0.031-0.064
				c-0.031-0.072-0.062-0.141-0.094-0.217c-0.057-0.071-0.098-0.141-0.105-0.229c-0.012-0.028-0.023-0.052-0.037-0.079
				c-1.742-1.708-3.434-3.463-4.941-5.378c-0.725-0.949-1.43-1.9-2.209-2.804c-0.82-0.95-1.701-1.847-2.596-2.723
				c-0.904-0.881-1.834-1.729-2.766-2.58c-0.9-0.823-1.795-1.664-2.717-2.468c-0.516-0.446-1.041-0.879-1.576-1.292
				c-0.301-0.113-0.576-0.271-0.842-0.441c-0.006-0.003-0.012-0.007-0.018-0.01c-0.025-0.019-0.053-0.036-0.074-0.054
				c-0.102-0.065-0.203-0.135-0.314-0.206c-0.156-0.045-0.32-0.079-0.48-0.101c-0.002,0-0.006-0.005-0.016-0.005h-0.02
				c-0.189-0.021-0.385-0.028-0.574-0.007c-0.15,0.023-0.299,0.064-0.449,0.119c-0.107,0.048-0.207,0.108-0.305,0.169
				c-0.008,0.007-0.021,0.011-0.025,0.018c-0.033,0.02-0.066,0.04-0.1,0.065c-0.094,0.076-0.184,0.158-0.27,0.243
				c-0.139,0.141-0.361,0.132-0.496,0.007c-0.031-0.004-0.068-0.015-0.098-0.026c-0.1-0.042-0.174-0.129-0.207-0.231
				c-0.105-0.337-0.23-0.666-0.355-0.993c-0.021-0.043-0.041-0.091-0.062-0.145c-0.01-0.021-0.02-0.045-0.025-0.057
				c0.002,0.007,0.006,0.014,0.012,0.027c-0.004-0.006-0.006-0.014-0.01-0.021c0.002,0.007,0.006,0.016,0.004,0.015
				c-0.047-0.121-0.096-0.238-0.154-0.352c-0.053-0.121-0.109-0.237-0.166-0.357c-0.037-0.066-0.07-0.138-0.107-0.206
				c-0.1-0.199-0.203-0.395-0.312-0.591l-0.037-0.079c-0.121-0.22-0.248-0.437-0.371-0.652c-0.41-0.268-0.828-0.516-1.232-0.779
				c-0.416-0.275-0.832-0.566-1.18-0.922c-2.373-1.283-4.576-2.872-6.836-4.35c-3.094-2.021-6.342-3.789-9.656-5.412
				c-3.361-1.649-6.805-3.129-10.287-4.488c-0.83-0.325-1.666-0.643-2.508-0.928c-0.941-0.312-1.9-0.576-2.863-0.811
				c-0.271-0.068-0.545-0.124-0.816-0.186c-0.162-0.079-0.326-0.154-0.488-0.224c-0.027,0.006-0.053,0.011-0.078,0.011
				c-0.125,0.004-0.246,0.015-0.369,0.021c-0.01,0-0.01,0-0.016,0.003c-0.01,0-0.023,0-0.039,0.004
				c-0.342,0.051-0.672,0.141-0.99,0.271c-0.148,0.065-0.291,0.141-0.43,0.223c-0.031,0.019-0.061,0.04-0.09,0.055
				c-0.082,0.053-0.168,0.102-0.24,0.159c-0.031,0.027-0.072,0.046-0.102,0.071c-0.084,0.065-0.166,0.134-0.252,0.212
				c-0.068,0.062-0.135,0.134-0.201,0.202c-0.016,0.015-0.031,0.028-0.047,0.047c-0.145,0.157-0.283,0.321-0.422,0.484
				c-0.039,0.048-0.082,0.1-0.129,0.144c-0.006,0.007-0.016,0.01-0.018,0.018c-0.02,0.019-0.041,0.039-0.061,0.055
				c-0.027,0.021-0.053,0.039-0.084,0.052c-0.064,0.027-0.141,0.065-0.215,0.065c-0.008,0-0.016,0-0.023-0.004
				c-0.078-0.01-0.168-0.016-0.236-0.067c-0.066-0.049-0.121-0.101-0.172-0.158c-0.051-0.059-0.098-0.123-0.139-0.192
				c-0.107-0.175-0.213-0.355-0.307-0.54c-0.098-0.202-0.186-0.409-0.273-0.618c-0.047-0.113-0.092-0.228-0.146-0.364
				c-0.004-0.007-0.008-0.016-0.025-0.051c-0.043-0.104-0.092-0.199-0.143-0.295c-0.006-0.012-0.01-0.021-0.016-0.028
				c-0.025-0.047-0.059-0.096-0.086-0.145c-0.037-0.059-0.07-0.116-0.111-0.171c-0.082-0.101-0.174-0.189-0.268-0.277
				c-0.012-0.01-0.025-0.025-0.041-0.039c-0.033-0.028-0.066-0.062-0.098-0.087c-0.066-0.051-0.137-0.093-0.209-0.138
				c-0.135-0.093-0.283-0.176-0.428-0.26c-0.059-0.035-0.117-0.067-0.195-0.103c-0.182-0.104-0.365-0.206-0.553-0.304
				c-0.232-0.115-0.467-0.226-0.703-0.331c-0.039-0.018-0.08-0.039-0.117-0.053c-0.121-0.056-0.24-0.109-0.359-0.157
				c-0.098-0.045-0.199-0.086-0.295-0.131c0.025,0.013,0.057,0.028,0.084,0.038c-0.154-0.068-0.312-0.13-0.467-0.194
				c-0.846-0.267-1.705-0.485-2.57-0.667c-0.684-0.147-1.373-0.263-2.066-0.349c-0.598-0.16-1.197-0.311-1.803-0.443
				c-1.221-0.271-2.449-0.458-3.688-0.604c-0.754-0.089-1.514-0.135-2.271-0.171l-3.312-3.182l-28.761,1.244l-3.757,3.216
				c-0.357-0.152-0.731-0.267-1.116-0.339c-0.993-0.188-2.017-0.259-3.005-0.068c-0.131-0.004-0.262-0.007-0.392,0
				c-1.01,0.032-2.018,0.21-2.994,0.464c-0.107,0.027-0.207,0.079-0.3,0.135c-0.449,0.067-0.899,0.146-1.345,0.237
				c-0.9,0.182-1.797,0.364-2.696,0.542c-0.968,0.192-1.928,0.416-2.862,0.721c-0.678,0.224-1.323,0.508-1.94,0.862
				c-0.009,0.013-0.022,0.027-0.033,0.04c-0.012,0.015-0.023,0.024-0.039,0.04c-0.068,0.079-0.138,0.151-0.212,0.225
				c-0.201,0.215-0.406,0.424-0.631,0.611c-0.026,0.039-0.052,0.073-0.086,0.111c-0.26,0.302-0.623,0.501-0.999,0.628
				c-0.405,0.133-0.844,0.188-1.274,0.188h-0.02c-0.257,0-0.511-0.017-0.766-0.056c-0.297,0.021-0.596,0.035-0.896,0.046
				c-0.583,0.02-1.152,0.072-1.729,0.157c-0.515,0.079-1.019,0.25-1.518,0.395c-0.488,0.142-0.977,0.296-1.463,0.457
				c-0.396,0.131-0.79,0.271-1.184,0.416c-1.107,0.216-2.198,0.519-3.257,0.925c-0.896,0.346-1.764,0.765-2.605,1.243
				c-0.827,0.473-1.621,1.03-2.317,1.69c-0.308,0.284-0.57,0.609-0.777,0.96c-0.015,0.071-0.025,0.144-0.037,0.22
				c-0.011,0.066-0.018,0.127-0.026,0.189c-0.023,0.178-0.049,0.354-0.078,0.528c-0.003,0.02-0.003,0.041-0.007,0.062
				c-0.05,0.274-0.112,0.567-0.228,0.828c0.047,0.117,0.01,0.268-0.109,0.337c-0.043,0.025-0.092,0.048-0.139,0.072
				c-0.141,0.165-0.325,0.295-0.532,0.353c-0.108,0.032-0.218,0.045-0.33,0.045c-0.142,0-0.284-0.023-0.419-0.076
				c-0.275-0.105-0.529-0.268-0.746-0.472c-0.093-0.088-0.182-0.18-0.259-0.279c-0.47-0.169-0.979-0.226-1.469-0.268
				c-0.523-0.037-1.043,0.031-1.563,0.104c-1.053,0.14-2.056,0.55-3.019,0.979c-1.038,0.462-2.019,1.053-2.968,1.68
				c-0.857,0.559-1.684,1.17-2.5,1.791c-0.272,0.207-0.54,0.413-0.806,0.619c-0.728,0.433-1.401,0.976-1.982,1.495
				c-0.35,0.318-0.684,0.652-1.002,0.998c-0.565,0.321-1.108,0.673-1.627,1.084c-0.302,0.241-0.537,0.537-0.768,0.852
				c-0.179,0.061-0.346,0.159-0.473,0.303c-0.36,0.42-0.759,0.796-1.187,1.147c-0.08,0.058-0.161,0.105-0.24,0.16
				c-0.147,0.004-0.293,0.007-0.438,0.018c-1.045,0.065-2.034,0.437-2.962,0.9c-0.816,0.408-1.557,0.984-2.231,1.59
				c-0.049,0.046-0.096,0.094-0.144,0.138c-0.433,0.173-0.863,0.349-1.293,0.536c-0.108,0.089-0.218,0.18-0.326,0.267
				c-0.361,0.331-0.736,0.637-1.136,0.907c-0.036,0.025-0.07,0.048-0.103,0.072c-0.133,0.09-0.273,0.168-0.416,0.252
				c-0.065,0.033-0.125,0.077-0.189,0.111c-0.663,0.54-1.315,1.09-1.959,1.647c-0.096,0.08-0.189,0.166-0.284,0.253
				c-0.119,0.103-0.238,0.201-0.353,0.305c-0.088,0.079-0.174,0.159-0.264,0.237c-0.005,0.005-0.012,0.011-0.018,0.011
				c-0.098,0.089-0.194,0.183-0.292,0.271c-0.066,0.06-0.139,0.116-0.196,0.178c-0.077,0.072-0.155,0.141-0.235,0.213
				c-0.109,0.1-0.222,0.204-0.332,0.306c-0.4,0.374-0.796,0.749-1.189,1.13c-0.527,0.513-1.054,1.031-1.569,1.558
				c-0.517,0.523-1.024,1.056-1.528,1.596c-0.09,0.099-0.18,0.199-0.272,0.296c-0.072,0.147-0.146,0.288-0.22,0.432
				c-0.177,0.322-0.358,0.649-0.577,0.948c-0.202,0.274-0.423,0.536-0.71,0.725c-0.065,0.042-0.134,0.079-0.209,0.111
				c-0.01,0.003-0.017,0.004-0.029,0.012c-0.064,0.025-0.128,0.049-0.196,0.065c-0.09,0.024-0.178,0.049-0.266,0.065
				c-0.16,0.027-0.32,0.056-0.479,0.072c-1.631,1.168-3.106,2.555-4.458,4.024c-1.732,1.883-3.277,3.946-4.692,6.075
				c-0.817,1.227-1.59,2.486-2.317,3.768c-0.159,1.23-0.474,2.63-1.602,3.335c-0.085,0.051-0.171,0.099-0.256,0.144
				c-0.13,0.245-0.263,0.488-0.408,0.726c-0.425,0.716-0.916,1.397-1.424,2.061c-1.178,1.507-2.449,2.94-3.526,4.519
				c-0.565,0.824-1.056,1.7-1.451,2.617c-0.392,0.916-0.72,1.864-1.098,2.791c-0.004,0.008-0.009,0.018-0.014,0.028
				c-0.002,0.011-0.005,0.018-0.014,0.027c-0.271,0.632-0.575,1.247-0.926,1.844c-0.057,0.23-0.129,0.454-0.231,0.67
				c-0.26,0.58-0.702,1.019-1.202,1.394c-0.1,0.142-0.197,0.279-0.292,0.423c-1.049,1.562-1.829,3.287-2.499,5.036
				c-0.157,0.41-0.307,0.826-0.446,1.243c-0.066,0.117-0.131,0.236-0.196,0.356c-1.215,2.287-2.307,4.646-3.199,7.077
				c-0.689,1.879-1.212,3.805-1.555,5.771c-0.031,0.031-0.061,0.071-0.098,0.097c-0.016,0.05-0.027,0.101-0.037,0.148
				c-0.131,0.525-0.236,1.055-0.33,1.588c-0.059,0.113-0.111,0.229-0.166,0.347c-0.372,0.81-0.737,1.673-0.891,2.555
				c-0.161,0.937-0.061,1.863,0.142,2.789c-0.016,0.085-0.028,0.173-0.05,0.263c0.049,0.22,0.095,0.44,0.13,0.663
				c0.065,0.364,0.116,0.731,0.145,1.099c0.021,0.332,0.028,0.663-0.011,0.99c-0.037,0.347-0.104,0.686-0.239,1.013
				c-0.058,0.138-0.119,0.274-0.188,0.405c-0.037,0.22-0.089,0.436-0.166,0.647c-0.136,0.351-0.305,0.685-0.517,0.988
				c-0.21,0.306-0.449,0.594-0.697,0.869c-0.005,0.003-0.011,0.011-0.017,0.017c-0.029,0.037-0.055,0.075-0.086,0.113
				c-0.208,0.279-0.434,0.546-0.629,0.831c-0.294,0.419-0.543,0.867-0.758,1.33c-0.069,0.256-0.137,0.508-0.202,0.764
				c-0.025,1.094-0.114,2.186-0.251,3.28c-0.083,0.661-0.175,1.32-0.278,1.979c-0.041,0.271-0.084,0.541-0.128,0.807
				c-0.026,0.356-0.043,0.71-0.062,1.063c-0.014,0.375-0.031,0.749-0.037,1.124c-0.004,0.21,0.007,0.419,0.019,0.625
				c0.022,0.457,0.059,0.918,0.052,1.372c0.019,0.159,0.037,0.324,0.053,0.486c0.041,0.085,0.078,0.179,0.119,0.262
				c0.209,0.492,0.401,0.993,0.535,1.518c0.128,0.509,0.216,1.038,0.225,1.57c0,0.059,0,0.12-0.002,0.184
				c0.225,0.954,0.459,1.916,0.515,2.897c0.013,0.164,0.016,0.328,0.013,0.487c0,0.161-0.007,0.325-0.023,0.482
				c-0.004,0.051-0.009,0.105-0.013,0.154c-0.019,0.174-0.044,0.348-0.073,0.521c-0.003,0.012-0.003,0.014-0.007,0.024
				c-0.103,0.493-0.265,0.977-0.454,1.441c-0.38,0.928-0.849,1.821-1.243,2.745c-0.031,0.071-0.059,0.142-0.087,0.213
				c0,0-0.01,0.06-0.01,0.062c0,0.007-0.001,0.015-0.001,0.021c0,0.005,0,0.011-0.003,0.019c-0.105,0.834-0.093,1.67-0.089,2.512
				c0.004,0.442-0.005,0.888-0.004,1.332c0,0.431,0.008,0.861,0.012,1.291c0.005,0.681,0.005,1.357-0.021,2.038
				c0.117,0.642,0.199,1.297,0.257,1.944c0.052,0.546,0.09,1.092,0.122,1.64c0.1,0.698,0.188,1.392,0.262,2.095
				c0.026,0.26,0.049,0.523,0.074,0.788c0.089,0.381,0.173,0.768,0.245,1.157c0.009,0.04,0.016,0.083,0.026,0.119
				c0.025,0.145,0.052,0.294,0.078,0.438c0.006,0.063,0.016,0.127,0.028,0.183c0.019,0.129,0.037,0.254,0.051,0.384
				c0.01,0.065,0.02,0.139,0.028,0.204c0.014,0.121,0.029,0.242,0.039,0.357c0.01,0.073,0.016,0.148,0.021,0.221
				c0.011,0.119,0.017,0.24,0.028,0.356c0.003,0.07,0.009,0.142,0.012,0.213c0.006,0.131,0.009,0.258,0.013,0.389
				c0,0.06,0.003,0.121,0.003,0.179c0.004,0.189,0.002,0.386-0.003,0.568c0.131,0.7,0.239,1.401,0.332,2.101
				c0.081,0.596,0.149,1.195,0.213,1.794c0.026,0.098,0.051,0.191,0.079,0.282c0.097,0.352,0.192,0.703,0.28,1.059
				c0.13,0.54,0.242,1.09,0.314,1.647c0.038,0.127,0.072,0.26,0.11,0.392c0.208,0.77,0.38,1.55,0.479,2.347
				c0.002,0.027,0.004,0.053,0.008,0.085c0.032,0.179,0.068,0.348,0.102,0.526c0.003,0.014,0.009,0.031,0.013,0.043
				c0.056,0.267,0.109,0.526,0.178,0.784c0.102,0.382,0.229,0.755,0.321,1.14c0.306,0.517,0.604,1.045,0.858,1.593
				c0.024,0.048,0.058,0.095,0.095,0.135c0.033,0.127,0.071,0.256,0.098,0.387c0.072,0.113,0.146,0.221,0.225,0.328
				c0.294,0.373,0.619,0.723,0.906,1.104c0.099,0.133,0.185,0.276,0.268,0.417c-0.05,0.018-0.093,0.04-0.142,0.058
				c0.094,0.065,0.182,0.137,0.265,0.213c0.567,0.535,1.122,1.187,1.807,1.759c1.213,1.013,2.763,1.568,3.013,3.17
				c0.128,0.82,0.026,1.354-0.213,1.823c-0.023,0.266-0.09,0.52-0.205,0.73c-0.055,0.099-0.104,0.198-0.148,0.302
				c-0.75,1.717-1.141,4.111-0.685,5.964c0.12,0.49,0.236,0.994,0.498,1.438c0.32,0.544,0.357,0.994,0.574,1.568
				c0.231,0.617,0.609,1.153,0.876,1.745c0.151,0.335,0.163,0.859,0.377,1.159c0.146,0.204,0.351,0.2,0.492,0.371
				c0.111,0.137,0.208,0.467,0.308,0.627c0.329,0.536,0.807,1.009,1.189,1.512c0.349,0.456,0.663,0.982,1.048,1.409
				c0.388,0.433,0.515,0.484,0.674,0.996c0.359,1.148,0.649,2.41,1.183,3.49c0.452,0.916,1.089,1.704,1.42,2.694
				c0.335,0.995,0.203,2.061,0.709,3.027c0.541,1.035,1.149,1.962,1.585,3.05c0.41,1.022,0.374,2.12,0.862,3.099
				c1.354,2.723,3.494,5.204,6.008,6.878c1.444,0.961,3.041,1.519,4.378,2.604c0.307,0.25,0.723,0.427,0.992,0.725
				c0.352,0.387,0.554,0.836,0.889,1.247c0.639,0.777,0.866,1.526,0.969,2.576c0.073,0.763,0.382,1.551,0.735,2.226
				c0.297,0.568,0.781,1.024,1.073,1.585c0.196,0.375,0.278,0.973,0.525,1.302c0.072,0.096,0.395,0.272,0.504,0.373
				c1.13,1.041,1.992,2.353,2.951,3.542c0.024-0.016,0.049-0.023,0.076-0.033c0.046-0.015,0.093-0.015,0.141,0
				c0.991,0.402,1.928,0.948,2.811,1.558c0.268,0.186,0.535,0.38,0.797,0.58c0.327,0.248,0.648,0.504,0.961,0.776
				c0.237,0.04,0.472,0.107,0.692,0.204c0.258,0.115,0.494,0.282,0.702,0.482c0.066,0.065,0.131,0.136,0.189,0.207
				c0.059,0.075,0.116,0.154,0.168,0.232c0.008,0.008,0.008,0.01,0.014,0.016c0.191,0.225,0.344,0.484,0.445,0.771
				c0.039,0.109,0.073,0.228,0.1,0.343c1.248,1.013,2.616,1.989,3.597,3.274c0.077-0.012,0.158,0.012,0.211,0.075
				c0.345,0.391,0.691,0.78,1.043,1.161c0.732,0.772,1.52,1.491,2.332,2.18c0.003,0.009,0.006,0.015,0.011,0.015
				c0.097,0.087,0.195,0.166,0.294,0.248c0.158,0.131,0.311,0.26,0.47,0.391c0.117,0.096,0.242,0.187,0.36,0.284
				c0.179,0.145,0.356,0.292,0.538,0.433c0.781,0.598,1.576,1.188,2.375,1.761c0.862,0.624,1.727,1.243,2.582,1.87
				c0.492,0.357,0.981,0.715,1.472,1.072c0.727,0.378,1.434,0.79,2.127,1.229c0.396,0.248,0.787,0.504,1.174,0.766
				c0.056,0.026,0.111,0.046,0.17,0.067c0.067,0.034,0.121,0.06,0.159,0.128c0.009,0.014,0.016,0.035,0.021,0.047
				c0.117,0.078,0.232,0.163,0.35,0.244c0.319,0.197,0.634,0.399,0.946,0.61c0.063,0.035,0.125,0.085,0.189,0.119
				c0.368,0.174,0.73,0.343,1.093,0.521c0.422,0.203,0.835,0.421,1.244,0.644c0.3,0.141,0.599,0.286,0.892,0.433
				c0.361,0.145,0.721,0.308,1.078,0.471c1.235,0.571,2.426,1.245,3.586,1.963c0.021,0.011,0.044,0.034,0.064,0.052
				c0.254,0.058,0.515,0.105,0.774,0.144c0.119,0.02,0.242,0.037,0.363,0.037c0.093,0,0.184,0,0.275-0.006
				c0.226-0.014,0.45-0.035,0.677-0.052c0.249-0.018,0.502-0.031,0.755-0.025c0.087,0,0.18,0,0.273,0.008
				c0.144-0.15,0.289-0.306,0.445-0.45c0.02-0.015,0.036-0.026,0.053-0.032c0.062-0.02,0.119-0.036,0.183-0.048
				c0.127-0.008,0.25-0.008,0.378,0c0.141,0.032,0.279,0.076,0.416,0.119c0.499,0.244,0.948,0.561,1.396,0.884
				c0.584,0.435,1.197,0.808,1.83,1.173c0.178,0.104,0.356,0.203,0.531,0.304c0.895,0.711,1.836,1.356,2.812,1.94
				c0.043,0.035,0.086,0.067,0.128,0.106c0.394,0.276,0.82,0.501,1.264,0.695c1.108,0.465,2.287,0.73,3.426,1.098
				c0.305,0.102,0.604,0.209,0.914,0.294c0.338,0.094,0.681,0.161,1.027,0.223c0.342,0.065,0.687,0.115,1.033,0.177
				c0.175,0.025,0.346,0.058,0.516,0.083c0.137,0.032,0.274,0.056,0.408,0.081c0.459,0.054,0.92,0.046,1.381,0.046
				c0.344-0.014,0.682-0.016,1.023,0.006c0.124-0.048,0.245-0.097,0.371-0.145c0.175-0.065,0.355-0.123,0.537-0.161
				c0.054-0.071,0.105-0.148,0.159-0.227c0.04-0.056,0.086-0.101,0.172-0.117c0.019-0.104,0.033-0.208,0.041-0.304
				c0.22,0.05,0.438,0.123,0.651,0.195c0.022,0.143,0.071,0.283,0.155,0.408c0.146,0.213,0.276,0.441,0.401,0.67
				c0.044,0.035,0.074,0.077,0.085,0.129c0.002,0.016,0.007,0.029,0.012,0.041c0.03,0.032,0.062,0.06,0.097,0.084
				c0.142,0.093,0.273,0.202,0.404,0.315c0.076,0,0.132,0.032,0.189,0.079c0.144,0.117,0.262,0.25,0.362,0.403
				c0.201,0.161,0.399,0.321,0.602,0.479c0.112,0.089,0.226,0.173,0.341,0.25c0.103,0.021,0.211,0.046,0.313,0.062
				c0.265,0.056,0.527,0.119,0.789,0.183c0.205,0.046,0.412,0.094,0.616,0.146c0.035,0.012,0.071,0.018,0.108,0.031
				c0.355,0.094,0.705,0.185,1.062,0.278c0.324,0.093,0.656,0.183,0.983,0.271c0.339,0.092,0.677,0.181,1.015,0.267
				c0.022,0,0.042,0.002,0.062,0.002c0.518,0.033,1.037,0.077,1.549,0.141c1.194,0.145,2.392,0.354,3.538,0.713
				c0.329,0.046,0.661,0.099,0.988,0.163c0.082,0.014,0.147,0.073,0.175,0.156c0.077,0.006,0.152,0.022,0.227,0.032
				c1.611-0.006,3.202,0.097,4.769,0.527c0.04,0.015,0.072,0.032,0.103,0.058c0.777,0.084,1.562,0.175,2.345,0.234
				c1.167,0.104,2.341,0.167,3.518,0.197c1.174,0.029,2.349,0.029,3.522,0.029c0.188,0,0.383,0.004,0.576,0.008
				c0.034,0,0.069,0.004,0.105,0.004c0.324-0.05,0.647-0.101,0.975-0.154c0.5-0.063,0.994-0.125,1.503-0.161
				c0.188-0.155,0.401-0.27,0.635-0.338c0.271-0.075,0.556-0.11,0.842-0.106c0.629,0.008,1.268,0.148,1.855,0.387
				c0.041,0.012,0.081,0.025,0.129,0.046c0.073,0.033,0.152,0.067,0.228,0.099c0.059,0.036,0.113,0.058,0.169,0.092
				c0.12,0.05,0.234,0.115,0.343,0.183c0.252,0.157,0.497,0.327,0.704,0.538c0.137,0.133,0.268,0.292,0.367,0.457
				c0.184,0.035,0.367,0.069,0.555,0.095c0.143,0.016,0.285,0.032,0.43,0.048c0.586-0.018,1.18-0.002,1.768,0.02
				c0.684,0.024,1.367,0.063,2.049,0.105c0.297,0.016,0.592,0.034,0.889,0.054c0.266-0.038,0.533-0.065,0.801-0.104
				c1.006-0.121,2.004-0.254,3.014-0.344c0.682-0.06,1.371-0.095,2.055-0.097c0.572-0.153,1.139-0.336,1.688-0.54
				c0.559-0.211,1.1-0.445,1.637-0.699c0.479-0.224,0.939-0.486,1.416-0.713c0.291-0.11,0.582-0.19,0.881-0.258
				c0.891-0.073,1.781,0.052,2.664,0.129c1.088,0.082,2.191-0.008,3.242-0.308c0.998-0.279,1.928-0.792,2.816-1.32
				c0.912-0.542,1.822-1.094,2.789-1.522c0.377-0.148,0.75-0.266,1.15-0.338c0.617-0.041,1.236,0.004,1.85,0.042
				c0.68,0.038,1.354,0.012,2.029-0.048c1.43-0.115,2.846-0.369,4.264-0.571c0.264-0.024,0.523-0.06,0.789-0.086
				c0.094,0.026,0.193,0.048,0.301,0.048c0.113,0,0.225-0.016,0.334-0.058c0.053-0.018,0.107-0.037,0.158-0.058
				c0.209-0.014,0.42-0.033,0.631-0.041c0.43-0.019,0.814-0.234,1.037-0.57c3.779-1.394,7.523-2.879,11.312-4.242
				c1.945-0.699,3.895-1.428,5.676-2.468c0.902-0.53,1.734-1.18,2.447-1.936c0.668-0.717,1.223-1.57,1.971-2.212
				c0.084-0.056,0.17-0.1,0.252-0.143c0.193-0.064,0.379-0.111,0.58-0.144c0.609-0.067,1.217-0.102,1.826-0.183
				c0.098-0.016,0.207-0.027,0.311-0.044c0.17-0.06,0.346-0.117,0.516-0.172c0.66-0.207,1.322-0.382,1.965-0.644
				c0.48-0.205,0.934-0.471,1.381-0.725c0.5-0.286,0.992-0.576,1.488-0.859c0.494-0.286,0.992-0.57,1.49-0.854
				c0.5-0.279,1.006-0.55,1.51-0.84c0.557-0.312,1.113-0.617,1.674-0.923c0.27-0.202,0.539-0.399,0.812-0.59
				c0.93-0.675,1.879-1.326,2.805-2.009c0.463-0.338,0.922-0.683,1.379-1.026c0.463-0.344,0.928-0.685,1.389-1.017
				c0.143-0.107,0.281-0.208,0.42-0.304c0.088-0.062,0.174-0.131,0.262-0.192c0.131,0.099,0.283,0.185,0.449,0.262
				c0.326-0.357,0.699-0.687,1.107-0.98c1.215-0.874,1.93-1.91,3.051-2.904c0.477-0.421,1.023-0.83,1.596-1.205
				c-0.281,0.183-0.305-1.392-0.264-1.523c0.182-0.581,0.51-0.954,1.105-1.046c0.592-0.089,0.891,0.069,1.316-0.477
				c0.174-0.225,0.178-0.454,0.441-0.619c0.221-0.139,0.523-0.075,0.748-0.221c0.219-0.143,0.455-0.469,0.621-0.663
				c0.695-0.823,1.203-1.713,1.896-2.555c0.42-0.509,0.725-1.112,1.232-1.541c0.531-0.448,0.746-1.056,1.107-1.659
				c0.365-0.605,0.783-1.015,1.195-1.568c0.426-0.572,0.672-1.301,0.99-1.942c0.256-0.514,0.541-1.016,0.773-1.522
				c0.146-0.313,0.195-0.771,0.373-1.102c0.631-1.172,1.555-2.131,2.244-3.242c0.797-1.29,2.104-2.255,2.814-3.6
				c0.371-0.698,0.324-0.81,1.059-1.142c1.781-0.804,3.039-2.533,4.15-4.008c0.969-1.285,1.896-2.492,2.707-3.886
				c0.555-0.95,0.422-1.999,0.822-2.983c0.262-0.638,0.758-1.047,1.178-1.568c0.484-0.604,0.879-1.276,1.379-1.874
				c0.957-1.14,2.033-2.176,2.904-3.39c0.609-0.852,1.086-1.755,1.48-2.699c0.332-0.795,0.926-1.47,1.299-2.187
				c0.389-0.744,0.389-1.396,0.453-2.191c0.113-1.403,1.443-2.43,2.062-3.623c0.006-0.014,0.01-0.024,0.014-0.036
				c0.334-0.8,0.652-1.608,0.955-2.422c0.061-0.977,0.344-1.934,0.689-2.843c0.17-0.443,0.35-0.876,0.543-1.305
				c0.27-1.193,0.562-2.374,0.852-3.558c0.057-0.317,0.139-0.631,0.238-0.941c0.258-1.046,0.51-2.092,0.82-3.126
				c0.148-0.505,0.311-1.007,0.49-1.501c0.078-0.501,0.166-1.003,0.271-1.501c0.193-0.936,0.439-1.868,0.779-2.771
				c0.01-0.183,0.02-0.365,0.025-0.55c0.023-0.473,0.023-0.943,0.01-1.42c0.068-0.403,0.158-0.794,0.281-1.191
				c0.186-0.592,0.41-1.163,0.518-1.772c0.148-0.868,0.098-1.737,0.107-2.608c-0.025-0.155-0.053-0.309-0.066-0.463
				c-0.021-0.223-0.031-0.444-0.029-0.671c0.008-0.215,0.027-0.431,0.07-0.647c0.049-0.258,0.125-0.515,0.213-0.763
				c0.121-0.331,0.26-0.663,0.416-0.977c0.156-0.315,0.334-0.623,0.543-0.909c0.09-0.113,0.18-0.227,0.279-0.333
				c0.076-0.09,0.162-0.171,0.256-0.247c0.004-0.02,0.01-0.041,0.012-0.065c0.117-0.688,0.062-1.361-0.141-2.03
				c-0.031-0.096-0.07-0.191-0.113-0.288c-0.025-0.344-0.057-0.679-0.084-1.017c-0.043-0.569-0.084-1.136-0.088-1.707
				c0.057-0.193,0.105-0.386,0.15-0.584c0.049-0.046,0.084-0.09,0.133-0.133c0.18-0.187,0.352-0.399,0.502-0.613
				c0.158-0.221,0.26-0.432,0.365-0.682C531.451,316.525,531.461,316.01,531.371,315.503z M342.167,201.596v0.003
				c-0.004-0.003-0.006-0.003-0.004-0.003H342.167z M430.369,433.996c0.008-0.004,0.01-0.008,0.016-0.008
				c0.006-0.004,0.012-0.008,0.02-0.008C430.395,433.988,430.385,433.988,430.369,433.996z M502.432,252.754
				c0.727,1.798,1.178,3.69,1.67,5.563c0.236,0.904,0.494,1.809,0.818,2.685c0.477,1.264,1.082,2.472,1.617,3.71
				c0.055,0.132,0.094,0.267,0.148,0.399c0.291,0.738,0.551,1.488,0.691,2.271c0.012,0.17,0.016,0.331,0.01,0.502
				c-0.027,0.124-0.061,0.24-0.1,0.355c-0.289,0.566-0.697,1.063-1.039,1.593c-0.285,0.439-0.221,1.16,0.193,1.503
				c0.207,0.177,0.414,0.341,0.654,0.476c0.078,0.041,0.164,0.063,0.248,0.098c0.164,0.069,0.332,0.145,0.498,0.196
				c0.125,0.038,0.25,0.07,0.375,0.1c0.238,0.056,0.479,0.109,0.715,0.186c0.045,0.027,0.09,0.052,0.156,0.094
				c0.037,0.06,0.068,0.117,0.098,0.176c0.131,0.378,0.207,0.77,0.27,1.164c0.057,0.458,0.094,0.919,0.137,1.38
				c0.051,0.518,0.102,1.034,0.188,1.551c0.045,0.231,0.105,0.467,0.162,0.696c0.09,0.391,0.178,0.777,0.27,1.171
				c0.176,0.781,0.344,1.565,0.508,2.348c0.604,2.922,1.094,5.872,1.502,8.827c0.436,1.228,0.688,2.521,0.795,3.826
				c0.016,0.229,0.031,0.463,0.041,0.698c0.086,0.419,0.146,0.843,0.195,1.275c0.023,0.29,0.047,0.579,0.051,0.864
				c0.008,0.243,0.01,0.485-0.014,0.728c-0.02,0.219-0.047,0.446-0.104,0.662c-0.053,0.185-0.111,0.364-0.189,0.54
				c-0.141,0.329-0.336,0.63-0.578,0.899c-0.117,0.13-0.24,0.253-0.373,0.366c-0.17,0.265-0.363,0.512-0.596,0.731
				c-0.252,0.239-0.535,0.446-0.854,0.593c-0.172,0.081-0.352,0.153-0.539,0.201c-0.109,0.028-0.219,0.052-0.324,0.069
				c-0.057,0.023-0.111,0.045-0.16,0.065c-0.492,0.203-0.99,0.384-1.484,0.567c-1.047,0.387-2.107,0.751-3.184,1.072
				c-1.18,0.353-2.385,0.658-3.605,0.874c-0.184,0.074-0.334,0.198-0.463,0.346c-0.193,0.219-0.32,0.502-0.32,0.808
				c0,0.094,0.012,0.186,0.031,0.276c0.137,0.067,0.279,0.133,0.422,0.194c0.627,0.251,1.27,0.414,1.936,0.509
				c0.59,0.075,1.186,0.106,1.779,0.123c0.006,0,0.01,0,0.018,0c0.668,0.014,1.334,0.014,2.006,0.014c0.582,0,1.16,0.006,1.74,0.03
				c0.314,0.008,0.631,0.029,0.943,0.041c0.637,0.035,1.268,0.087,1.9,0.183c0.645,0.105,1.305,0.247,1.891,0.542
				c0.111,0.056,0.219,0.115,0.322,0.188c0.033,0.01,0.07,0.023,0.105,0.035h0.057c0.135,0.073,0.27,0.151,0.395,0.234
				c0.061,0.054,0.113,0.109,0.168,0.161c0.016,0.031,0.035,0.063,0.051,0.089c0.01,0.034,0.016,0.063,0.025,0.09
				c0,0.037,0,0.081-0.002,0.117c-0.004,0.014-0.006,0.025-0.008,0.035c0,0.004-0.004,0.01-0.004,0.016
				c0.064,0.161,0.111,0.328,0.121,0.501c0.004,0.069-0.014,0.139-0.025,0.21c-0.021,0.159-0.07,0.315-0.168,0.441
				c-0.074,0.097-0.148,0.185-0.246,0.26c-0.025,0.016-0.049,0.029-0.074,0.048c-0.072,0.054-0.146,0.104-0.23,0.148
				c-0.369,0.181-0.771,0.28-1.18,0.346c-0.127,0.031-0.256,0.054-0.391,0.067c-0.24,0.027-0.484,0.036-0.727,0.036
				c-0.037,0.002-0.072,0.002-0.104,0.002c-0.082,0.077-0.152,0.17-0.219,0.273c-0.23,0.392-0.215,0.857,0,1.253
				c0.074,0.131,0.164,0.25,0.244,0.373c0.07,0.107,0.135,0.221,0.213,0.319c0.098,0.038,0.189,0.092,0.281,0.14
				c0.043,0.023,0.096,0.039,0.141,0.069c0.232,0.146,0.426,0.329,0.596,0.544c0.322,0.419,0.504,0.941,0.605,1.459
				c0.107,0.558,0.139,1.13,0.15,1.695c0.006,0.318,0.01,0.634-0.004,0.949c-0.018,0.423-0.057,0.846-0.111,1.267
				c-0.066,0.519-0.186,1.03-0.293,1.543c-0.215,1.006-0.463,2.003-0.736,2.997c-0.098,0.908-0.207,1.809-0.326,2.714
				c-0.004,0.009-0.004,0.017-0.004,0.026c-0.002,0.021-0.008,0.046-0.01,0.065c0,0.014-0.002,0.02-0.006,0.034
				c-0.002,0.016-0.002,0.033-0.004,0.051c-0.002,0.013-0.006,0.034-0.008,0.052c-0.004,0.034-0.008,0.065-0.014,0.098l0.006-0.032
				c-0.002,0.013-0.006,0.026-0.006,0.03c-0.137,0.973-0.283,1.945-0.43,2.918c-0.096,0.584-0.162,1.176-0.297,1.747
				c0.018,0.213,0.018,0.417,0,0.624c0.02,0.137,0.025,0.277,0.02,0.415c-0.008,0.108-0.037,0.21-0.059,0.315
				c-0.012,0.052-0.01,0.111-0.027,0.158c-0.084,0.223-0.211,0.43-0.385,0.594c-0.039,0.073-0.082,0.138-0.127,0.203
				c-0.252,0.355-0.557,0.657-0.924,0.885c-0.299,0.187-0.619,0.32-0.959,0.403c-0.375,0.096-0.756,0.151-1.143,0.183
				c-0.408,0.036-0.818,0.042-1.23,0.025c-0.4-0.016-0.799-0.047-1.197-0.112c-0.115-0.021-0.234-0.036-0.348-0.062
				c-0.191,0.06-0.385,0.112-0.572,0.166c-0.441,0.117-0.891,0.221-1.346,0.271c-0.301,0.031-0.6,0.037-0.898,0.004
				c-0.164,0.023-0.338,0.044-0.504,0.06c-0.037,0.073-0.074,0.15-0.105,0.225c-0.029,0.062-0.053,0.127-0.078,0.192
				c0.074,0.488,0.432,0.852,0.9,1.017c0.912,0.315,1.83,0.613,2.729,0.979c0.621,0.271,1.225,0.58,1.777,0.975
				c0.227,0.187,0.432,0.39,0.621,0.609c0.109,0.163,0.209,0.328,0.295,0.503c0.012,0.031,0.02,0.06,0.031,0.099
				c0.084,0.067,0.158,0.142,0.227,0.219c0.057,0.073,0.117,0.148,0.174,0.227c0.041,0.025,0.064,0.067,0.088,0.108
				c0.012,0.022,0.037,0.034,0.047,0.058c0.01,0.046,0.021,0.094,0.041,0.138c0.01,0.035,0.027,0.06,0.041,0.091
				c0.035,0.094,0.066,0.185,0.088,0.286c0.029,0.085,0.057,0.179,0.07,0.27c0.039,0.199,0.059,0.405,0.045,0.612
				c-0.016,0.204-0.041,0.412-0.092,0.609c-0.029,0.106-0.061,0.218-0.096,0.329c-0.006,0.381-0.023,0.757-0.07,1.132
				c-0.031,0.246-0.08,0.494-0.123,0.742c-0.047,0.25-0.113,0.484-0.184,0.729c-0.072,0.24-0.133,0.484-0.238,0.711
				c-0.031,0.06-0.072,0.123-0.105,0.183c-0.039,0.069-0.074,0.143-0.119,0.209c-0.104,0.137-0.229,0.256-0.371,0.345
				c-0.287,0.183-0.613,0.265-0.943,0.308c-0.188,0.022-0.373,0.021-0.564,0.022c-0.092,0-0.188,0.014-0.283,0.01
				c-0.09-0.004-0.184-0.014-0.279-0.02c-0.186-0.015-0.375-0.024-0.557-0.042c-0.135,0.107-0.264,0.225-0.373,0.359
				c0.045,0.232,0.16,0.444,0.33,0.613c0.188,0.179,0.361,0.369,0.523,0.565c0.186,0.257,0.344,0.524,0.48,0.809
				c0.107,0.302,0.189,0.609,0.246,0.919c0.041,0.429,0.033,0.85-0.016,1.274c-0.137,0.809-0.379,1.583-0.688,2.343
				c-0.094,0.205-0.188,0.409-0.283,0.617c-0.061,0.159-0.146,0.302-0.213,0.459c-0.199-0.006-0.396-0.008-0.598-0.014
				c-0.066,0.702-0.232,1.363-0.535,1.886c-0.527,0.907-1.811,1.334-2.906,1.559c-0.271,0.056-0.533,0.102-0.77,0.135
				c-0.469,0.073-1.029-0.002-1.508-0.006c-1.004-0.004-2.01,0.19-2.965,0.457c-0.174,0.479,0.375,0.653,0.703,0.834
				c0.361,0.2,0.721,0.738,1.127,0.782c0.014,0.004,0.682,1.921,0.736,2.105c0.238,0.816,0.391,1.823,0.277,2.671
				c-0.162,1.181-1.102,1.602-1.816,2.406c-0.322,0.357-0.773,0.756-1.012,1.165c-0.316,0.54-0.227,1.191-0.316,1.787
				c-0.074,0.496-0.322,0.78-0.406,1.284c-0.078,0.465-0.031,0.955-0.035,1.43c0,0.921-0.047,1.721-0.389,2.593
				c-0.389,1.002-0.943,1.59-1.588,2.382c-0.568,0.697-1.129,1.332-1.838,1.9c-0.537,0.431-1.168,0.806-1.756,1.221
				c-1.258,0.89-2.467,1.688-4.074,1.904c-1.822,0.248-3.398,1.271-3.445,3.277c-0.016,0.546-0.066,1.138-0.113,1.612
				c-0.045,0.45,0.033,0.6-0.273,0.873c-0.398,0.363-1.24,0.361-1.742,0.425c-1.203,0.149-2.441,0.111-3.672,0.111
				c-0.615,0-2.479-0.315-2.947,0.048c-0.191,0.147-0.238,0.907-0.15,1.14c0.197,0.534,0.871,0.632,1.254,0.967
				c0.713,0.63,0.83,1.397,0.914,2.307c0.195,2.164,0.443,4.157-1.576,5.529c-0.805,0.544-1.406,1.044-2.021,1.814
				c-0.758,0.945-1.744,1.622-2.596,2.472c-0.543,0.544-1.209,1.545-1.875,1.902c-0.777,0.421-2.039,0.522-3.012,0.637
				c-0.146,0.019-0.289,0.046-0.436,0.066c-0.229,0.235-0.455,0.47-0.693,0.69c-0.742,0.695-1.537,1.342-2.383,1.904
				c-0.6,0.391-1.205,0.77-1.822,1.135c-0.424,0.255-0.857,0.501-1.291,0.749c-0.104,0.056-0.205,0.113-0.305,0.169
				c-0.438,0.244-0.881,0.482-1.33,0.71c-1.078,0.551-2.184,1.066-3.328,1.454c-0.496,0.164-1.004,0.313-1.521,0.404
				c-0.316,0.058-0.641,0.1-0.969,0.1c-0.115,0-0.234-0.006-0.354-0.016c-0.367-0.046-0.746-0.14-1.041-0.371
				c-0.115-0.086-0.215-0.188-0.309-0.294c-0.059-0.04-0.109-0.078-0.168-0.119c-0.764-0.513-1.609-1.015-2.553-1.03
				c-0.199-0.002-0.406,0.037-0.602,0.091c-0.006,0-0.016,0.004-0.027,0.008c-0.016,0.052-0.035,0.109-0.053,0.161
				c-0.072,0.357-0.139,0.719-0.217,1.074c-0.02,0.335-0.045,0.665-0.102,0.996c-0.02,0.142-0.053,0.292-0.082,0.435
				c-0.033,0.119-0.062,0.236-0.094,0.354c-0.018,0.048-0.027,0.09-0.043,0.138c-0.043,0.133-0.094,0.262-0.145,0.395
				c-0.008,0.006-0.01,0.016-0.014,0.024c-0.002,0.01-0.006,0.018-0.008,0.027c-0.053,0.105-0.102,0.209-0.158,0.31
				c-0.018,0.032-0.033,0.062-0.051,0.09c-0.062,0.103-0.131,0.204-0.207,0.298c-0.043,0.06-0.09,0.119-0.141,0.168
				c-0.223,0.234-0.477,0.439-0.746,0.614c-0.299,0.202-0.613,0.383-0.945,0.544c-0.682,0.329-1.408,0.591-2.158,0.714
				c-0.268,0.038-0.539,0.072-0.811,0.072h-0.076c-0.057-0.004-0.113-0.004-0.172-0.008c-0.051-0.007-0.105-0.011-0.158-0.024
				c-0.025-0.058-0.064-0.115-0.104-0.169c-0.064,0.013-0.135,0.021-0.205,0.021c-0.033,0-0.064,0-0.1-0.008
				c-0.166-0.013-0.32-0.048-0.471-0.113c-0.027,0.002-0.059,0-0.084-0.006c-0.043-0.013-0.084-0.036-0.117-0.072
				c-0.041-0.033-0.086-0.067-0.125-0.106c-0.156-0.113-0.299-0.261-0.422-0.417c-0.047-0.046-0.084-0.102-0.123-0.155
				c-0.016-0.021-0.025-0.038-0.039-0.058c-0.051-0.067-0.1-0.145-0.139-0.214c-0.006-0.007-0.006-0.007-0.01-0.015
				c-0.225-0.194-0.518-0.308-0.816-0.308c-0.018,0-0.043,0.002-0.062,0.002c-0.029,0.117-0.064,0.23-0.107,0.344
				c-0.039,0.111-0.088,0.238-0.143,0.352c0.018,0.107,0.021,0.21,0.02,0.313v0.042c-0.006,0.099-0.02,0.204-0.041,0.3
				c-0.008,0.031-0.016,0.056-0.027,0.081c-0.012,0.042-0.027,0.09-0.045,0.129c-0.014,0.038-0.029,0.071-0.045,0.104
				c-0.018,0.031-0.029,0.067-0.049,0.1c-0.057,0.104-0.129,0.21-0.199,0.302c-0.182,0.229-0.393,0.412-0.623,0.573
				c-0.023,0.018-0.047,0.036-0.068,0.05c-0.227,0.154-0.469,0.304-0.711,0.425c-0.279,0.143-0.566,0.268-0.859,0.377
				c-0.285,0.155-0.59,0.276-0.9,0.352c-0.045,0.004-0.082,0.016-0.123,0.025c-0.336,0.199-0.699,0.35-1.088,0.392
				c-0.234,0.102-0.473,0.196-0.711,0.3c-0.508,0.208-1.021,0.417-1.543,0.619c-2.006,0.788-4.049,1.478-6.146,1.978
				c-0.15,0.058-0.311,0.113-0.463,0.171c-0.17-0.038-0.34-0.067-0.52-0.098c-0.49,0.129-1,0.221-1.502,0.263
				c-0.27,0.025-0.533,0.041-0.805,0.041c-0.35,0-0.707-0.027-1.055-0.075c-0.066-0.018-0.131-0.027-0.193-0.04
				c-0.082,0.019-0.158,0.04-0.236,0.054c-0.797,0.181-1.574,0.447-2.338,0.745c-0.586-0.59-1.193-1.162-1.803-1.735
				c-0.357-0.515-0.686-1.057-1.016-1.586c-0.492-0.82-1.031-1.601-1.656-2.321c-0.162-0.187-0.42-0.284-0.67-0.325
				c-0.059-0.009-0.115-0.034-0.172-0.038c-0.016,0.042-0.037,0.091-0.062,0.135c-0.164,0.359-0.383,0.693-0.609,1.015
				c-0.07,0.102-0.139,0.202-0.217,0.3c-0.088,0.113-0.174,0.23-0.26,0.34c-0.145,0.429-0.314,0.844-0.49,1.254
				c-0.123,0.274-0.246,0.542-0.377,0.811c0.021,0.407-0.031,0.812-0.158,1.197c-0.004,0.02-0.008,0.033-0.012,0.046
				c-0.209,0.597-0.574,1.142-1.074,1.534c-0.131,0.104-0.26,0.202-0.404,0.278c-0.143,0.081-0.293,0.154-0.441,0.216
				c-0.041,0.014-0.086,0.028-0.129,0.044c-0.045,0.014-0.088,0.031-0.133,0.04c-0.07,0.027-0.141,0.043-0.221,0.058
				c-0.137,0.037-0.277,0.053-0.422,0.069c-0.084,0.008-0.172,0.008-0.262,0.008c-0.146,0-0.295-0.008-0.438-0.03
				c-0.428,0.034-0.854,0.022-1.287-0.02c-0.957-0.155-1.885-0.429-2.816-0.703c-0.115-0.198-0.223-0.41-0.324-0.629
				c-0.084-0.219-0.164-0.438-0.238-0.669c-0.082-0.238-0.221-0.445-0.4-0.607c-0.201,0.27-0.396,0.544-0.602,0.802
				c-0.219,0.278-0.457,0.548-0.738,0.771c-0.076,0.065-0.152,0.123-0.23,0.179c-0.051,0.033-0.102,0.075-0.158,0.101
				c-0.072,0.04-0.15,0.072-0.228,0.1c-0.17,0.062-0.338,0.119-0.517,0.161c-0.035,0.054-0.067,0.111-0.106,0.162
				c-0.038,0.046-0.079,0.084-0.121,0.119c-1.839-0.494-3.672-1.021-5.546-1.357c-0.209,0.058-0.425,0.111-0.636,0.163
				c-0.289,0.065-0.576,0.113-0.866,0.15c-0.195-0.111-0.407-0.163-0.653-0.183c-0.541-0.054-1.079-0.102-1.618-0.143h-0.052
				c-0.272,0-0.55-0.006-0.815-0.04c-0.051,0-0.102,0-0.147-0.004c-0.162-0.014-0.325-0.038-0.484-0.071
				c-1.029-0.084-2.06-0.169-3.087-0.302c-1.435-0.203-2.881-0.475-4.234-1.003c-0.377-0.169-0.744-0.357-1.111-0.54
				c-0.059-0.089-0.117-0.169-0.174-0.254c-0.509-0.151-1.021-0.405-1.377-0.812c-0.185-0.213-0.329-0.453-0.426-0.715
				c-0.106-0.288-0.155-0.594-0.163-0.899c-0.007-0.403,0.026-0.809,0.078-1.209c0.04-0.324,0.092-0.646,0.157-0.963
				c-0.213-0.701-0.426-1.402-0.689-2.083c-0.06-0.21-0.165-0.395-0.32-0.546c-0.15-0.152-0.335-0.26-0.547-0.319
				c-0.061-0.022-0.119-0.026-0.181-0.036c-0.144,0.328-0.312,0.651-0.499,0.959c-0.238,0.39-0.499,0.763-0.77,1.134
				c-0.06,0.081-0.125,0.165-0.187,0.248c-0.115,0.213-0.237,0.423-0.364,0.631c-0.304,0.48-0.639,0.947-1.024,1.372
				c-0.227,0.365-0.464,0.721-0.725,1.066c-0.217,0.284-0.447,0.552-0.714,0.79c-0.037,0.071-0.103,0.129-0.179,0.151
				c-0.155,0.127-0.319,0.25-0.492,0.343c-0.182,0.109-0.365,0.192-0.558,0.269c-0.323,0.129-0.661,0.222-1.006,0.281
				c-0.432,0.078-0.865,0.115-1.301,0.115c-0.382,0-0.765-0.029-1.144-0.081c-0.864-0.115-1.716-0.319-2.538-0.617
				c-0.106-0.036-0.214-0.084-0.318-0.117c-0.107-0.048-0.214-0.082-0.32-0.125c-0.079-0.028-0.157-0.067-0.238-0.102
				c-0.114-0.048-0.229-0.102-0.344-0.148c-0.081-0.036-0.165-0.08-0.247-0.115c-0.109-0.056-0.22-0.109-0.326-0.159
				c-0.042-0.025-0.087-0.048-0.128-0.075c-0.144-0.071-0.285-0.147-0.422-0.229c-0.667-0.387-1.305-0.82-1.879-1.332
				c-0.038-0.036-0.06-0.077-0.071-0.117c-0.332-0.187-0.665-0.371-0.998-0.554c-0.568-0.306-1.146-0.602-1.743-0.868
				c0.005-0.027,0.009-0.052,0.013-0.083c0.058-0.342,0.058-0.644-0.124-0.955c-0.04-0.069-0.088-0.131-0.139-0.19
				c-0.382,0.29-0.775,0.562-1.199,0.78c-0.153,0.079-0.308,0.146-0.462,0.21c-0.055,0.03-0.106,0.042-0.159,0.065
				c-0.107,0.038-0.216,0.076-0.326,0.109c-0.107,0.03-0.217,0.058-0.328,0.084c-0.157,0.027-0.319,0.054-0.481,0.06
				c-0.072,0.012-0.146,0.012-0.22,0.012c-0.121,0-0.242-0.012-0.361-0.022c-0.098-0.014-0.199-0.025-0.294-0.041
				c-0.162-0.008-0.328-0.028-0.49-0.042c-1.211-0.19-2.382-0.556-3.516-1.019c-3.163-1.37-6.025-3.375-8.75-5.468
				c-1.211-0.929-2.414-1.844-3.645-2.743c-0.741-0.54-1.261-0.989-1.599-1.854c-0.292-0.748-0.456-1.551-0.97-2.193
				c-0.671-0.836-1.554-1.386-2.586-1.858c-0.398-0.183-0.585-0.326-0.995-0.409c-1.281-0.246-2.625,0.167-3.909-0.123
				c-1.806-0.405-2.075-2.436-2.687-3.865c-0.464-1.078-0.315-2.271-0.323-3.496c-0.008-1.297,0.738-2.133,1.334-3.192
				c0.243-0.435,0.339-0.866,0.252-1.399c-0.115-0.713-0.258-0.528-0.867-0.434c-0.888,0.142-1.702,0.445-2.554,0.753
				c-0.505,0.183-0.896,0.631-1.359,0.798c-0.484,0.175-1.199,0.03-1.723,0.03c-1.629,0-4.105,0.26-5.123-1.287
				c-1.125-1.707-2.392-3.308-3.443-5.076c-0.563-0.951-1.275-1.699-1.931-2.571c-0.664-0.881-0.812-1.922-0.837-3.006
				c-0.026-1.146,0.863-2.229,0.572-3.351c-0.346-1.328-1.81-1.67-3.062-1.936c-0.76-0.161-1.425-0.248-2.046-0.686
				c-0.607-0.425-1.169-0.844-1.622-1.441c-0.342-0.448-0.655-0.937-0.969-1.392c-0.445-0.645-0.463-1.119-0.615-1.842
				c-0.116-0.55-0.358-1.103-0.436-1.624c-0.034-0.236,0.04-0.574-0.025-0.796c-0.079-0.274-0.18-0.312-0.334-0.562
				c-0.649-1.048-1.372-1.799-2.35-2.678c-0.599-0.54-1.067-1.228-1.638-1.801c-0.399-0.403-0.753-0.749-0.803-1.336
				c-0.111-1.318,0.54-2.724,0.232-4.03c-0.136-0.568-0.466-0.373-0.986-0.605c-0.34-0.155-0.632-0.403-0.923-0.632
				c-0.606-0.475-1.285-0.262-1.895-0.598c-0.573-0.313-1.049-1.171-1.333-1.73c-0.01-0.021-0.021-0.042-0.032-0.065
				c-0.006-0.017-0.011-0.024-0.016-0.036c-0.017-0.021-0.031-0.046-0.045-0.073c-0.016-0.024-0.032-0.046-0.046-0.071
				c-0.056-0.06-0.1-0.126-0.147-0.191c-0.031-0.041-0.067-0.079-0.097-0.121c-0.05-0.081-0.086-0.168-0.129-0.252
				c-0.185-0.023-0.378-0.041-0.597-0.048c-0.118-0.345-0.074-0.754,0.069-1.188c-0.007-0.021-0.016-0.04-0.022-0.06
				c-0.116-0.32-0.214-0.636-0.298-0.963c-0.104-0.411-0.181-0.828-0.249-1.249c-0.014-0.048-0.022-0.094-0.035-0.141
				c-0.049-0.107-0.099-0.213-0.146-0.318c-0.08-0.177-0.158-0.355-0.232-0.534c-0.134-0.308-0.309-0.599-0.455-0.9
				c-0.024-0.056-0.04-0.113-0.065-0.173c-0.048-0.109-0.101-0.221-0.134-0.336c-0.03-0.109-0.043-0.23-0.061-0.344
				c-0.009-0.06-0.026-0.112-0.03-0.172c-0.019-0.189-0.021-0.384-0.021-0.576c0-0.141-0.006-0.278,0.014-0.413
				c0.028-0.24,0.079-0.486,0.115-0.734c0.006-0.04,0-0.088,0.004-0.129c0.007-0.088,0.016-0.173,0.009-0.261
				c-0.011-0.047-0.022-0.106-0.039-0.156c-0.019-0.036-0.039-0.067-0.059-0.102c-0.029-0.031-0.053-0.058-0.082-0.081
				c-0.089-0.062-0.182-0.111-0.278-0.165c-0.009,0.004-0.019,0.004-0.029,0.004c-0.096,0-0.186-0.029-0.272-0.065
				c-0.175-0.085-0.309-0.25-0.403-0.417c-0.007-0.008-0.012-0.023-0.018-0.029c-0.016-0.03-0.028-0.058-0.044-0.09
				c-0.03-0.058-0.062-0.117-0.086-0.179c-0.013-0.041-0.03-0.079-0.044-0.123c-0.03-0.075-0.058-0.15-0.083-0.23
				c-0.074-0.24-0.131-0.484-0.186-0.73c0-0.016-0.004-0.023-0.008-0.037c-0.002-0.007-0.004-0.013-0.007-0.017
				c-0.004-0.01-0.009-0.021-0.012-0.029c-0.056-0.133-0.104-0.272-0.153-0.409c-0.024-0.069-0.053-0.137-0.076-0.204
				c-0.119-0.342-0.218-0.688-0.312-1.035c-0.058-0.212-0.109-0.425-0.154-0.639c-0.074-0.33-0.147-0.663-0.198-0.997
				c-0.004-0.025-0.007-0.049-0.007-0.071c-0.026-0.073-0.055-0.139-0.084-0.21c-0.001-0.006-0.001-0.011-0.001-0.017
				c-0.006-0.01-0.011-0.021-0.017-0.031c-0.213-0.505-0.415-1.019-0.56-1.549c-0.097-0.367-0.171-0.734-0.211-1.107
				c-0.069-0.192-0.144-0.382-0.218-0.568c-0.043-0.11-0.089-0.202-0.136-0.291c-0.029-0.132-0.052-0.257-0.08-0.386
				c-0.068-0.321-0.145-0.644-0.218-0.965c-0.03-0.1-0.058-0.202-0.079-0.304c-0.035-0.175-0.062-0.346-0.085-0.517
				c-0.016-0.093-0.027-0.19-0.038-0.281c-0.096-0.384-0.199-0.769-0.293-1.151c-0.101-0.384-0.192-0.765-0.271-1.153
				c-0.083-0.392-0.151-0.787-0.202-1.186c-0.046-0.354-0.065-0.717,0.01-1.066c0.075-0.329,0.247-0.621,0.431-0.903
				c0.165-0.246,0.342-0.49,0.546-0.707c0.069-0.123,0.134-0.244,0.195-0.371c0.04-0.097,0.069-0.188,0.094-0.294
				c-0.013-0.053-0.028-0.11-0.05-0.168c-0.031-0.065-0.064-0.123-0.108-0.181c-0.062-0.072-0.131-0.142-0.207-0.205
				c-0.004-0.002-0.012-0.006-0.018-0.012c-0.085-0.062-0.169-0.109-0.253-0.169c-0.043-0.021-0.078-0.054-0.121-0.079
				c-0.087-0.05-0.179-0.098-0.257-0.165c-0.054-0.048-0.097-0.113-0.146-0.171c-0.072-0.081-0.148-0.154-0.207-0.248
				c-0.202-0.312-0.34-0.665-0.456-1.021c-0.058-0.179-0.112-0.359-0.167-0.54c-0.071-0.232-0.149-0.468-0.215-0.706
				c-0.144-0.534-0.266-1.076-0.37-1.624c-0.057-0.288-0.106-0.57-0.158-0.858c-0.046-0.266-0.099-0.536-0.14-0.802
				c-0.084-0.548-0.138-1.092-0.175-1.646c-0.093-0.602-0.167-1.211-0.224-1.816c-0.013-0.132-0.03-0.261-0.047-0.394
				c-0.033-0.264-0.069-0.522-0.091-0.79c-0.016-0.2,0.001-0.407,0.014-0.615c0.006-0.105-0.01-0.207,0.008-0.308
				c-0.002-0.063-0.004-0.125-0.006-0.191c-0.003-0.16,0-0.323,0.007-0.488c-0.04-0.085-0.062-0.181-0.091-0.271
				c-0.064-0.202-0.103-0.417-0.076-0.636c0.02-0.115,0.037-0.238,0.07-0.349c0.032-0.107,0.074-0.217,0.118-0.32
				c0.008-0.018,0.012-0.035,0.022-0.046c0.001-0.043,0.004-0.095,0.008-0.139c0.033-0.175,0.075-0.342,0.131-0.508
				c0.021-0.04,0.048-0.08,0.069-0.117c0.045-0.08,0.088-0.159,0.139-0.234c0.021-0.046,0.041-0.088,0.062-0.131
				c0.011-0.021,0.021-0.044,0.031-0.065c0.091-0.167,0.198-0.322,0.316-0.471c0.075-0.1,0.157-0.194,0.241-0.288
				c0.205-0.258,0.419-0.504,0.644-0.746c0.275-0.299,0.555-0.589,0.827-0.887c0.219-0.238,0.425-0.48,0.629-0.725
				c0.202-0.24,0.41-0.477,0.652-0.674c0.11-0.092,0.227-0.173,0.352-0.246c0-0.019-0.002-0.04-0.003-0.056
				c-0.013-0.05-0.025-0.094-0.037-0.141c-0.008-0.026-0.013-0.049-0.021-0.073c-0.021-0.048-0.053-0.094-0.081-0.14
				c-0.023-0.039-0.042-0.083-0.068-0.118c-0.076-0.095-0.164-0.181-0.255-0.259c-0.134-0.09-0.27-0.171-0.418-0.234
				c-0.484-0.188-1.015-0.271-1.472-0.522c-0.137-0.077-0.269-0.166-0.385-0.266c-0.021-0.008-0.034-0.012-0.066-0.016
				c-0.053,0-0.101-0.018-0.142-0.043c-0.012,0-0.024-0.003-0.038-0.006c-0.005,0-0.012,0-0.017-0.001
				c-0.007-0.005-0.013-0.006-0.021-0.009c-0.012-0.006-0.023-0.012-0.038-0.016c-0.042-0.026-0.085-0.059-0.103-0.102
				c-0.014-0.037-0.033-0.075-0.047-0.108c-0.175-0.256-0.337-0.512-0.489-0.774c-0.006-0.204-0.009-0.404-0.009-0.612
				c0.036-0.085,0.066-0.176,0.102-0.261c0.043-0.112,0.091-0.228,0.131-0.341c-0.016-0.179-0.03-0.36-0.04-0.535
				c-0.017-0.292-0.011-0.583-0.011-0.875s0.009-0.58,0.025-0.872c0.016-0.292,0.027-0.584,0.06-0.872
				c0.033-0.295,0.069-0.592,0.121-0.884c0.063-0.082,0.118-0.166,0.157-0.256c0.011-0.154,0.027-0.31,0.048-0.461
				c0.015-0.093,0.032-0.183,0.053-0.273c0.02-0.097,0.048-0.19,0.076-0.285c0.012-0.054,0.028-0.104,0.049-0.155
				c0.034-0.104,0.076-0.204,0.125-0.304c0.042-0.083,0.08-0.167,0.132-0.246c0.058-0.093,0.124-0.183,0.192-0.265
				c0.13-0.244,0.289-0.46,0.472-0.654c0.011-0.022,0.021-0.043,0.034-0.068c0-0.007,0.001-0.007,0.001-0.014
				c0.011-0.03,0.015-0.055,0.026-0.088c0.018-0.075,0.033-0.154,0.048-0.23c-0.103-0.269-0.212-0.539-0.307-0.81
				c-0.02-0.014-0.039-0.028-0.054-0.043c-0.046-0.039-0.084-0.115-0.077-0.186c0.005-0.048,0.009-0.098,0.014-0.147
				c-0.019-0.076-0.039-0.152-0.054-0.229c-0.01-0.046-0.021-0.1-0.03-0.151c-0.016-0.089-0.03-0.184-0.037-0.276
				c0-0.015-0.003-0.032-0.005-0.047c-0.016-0.269,0.009-0.54,0.073-0.8c0.01-0.038,0.021-0.072,0.034-0.11
				c0.018-0.058,0.033-0.12,0.055-0.181c0.008-0.033,0.019-0.062,0.03-0.091c0.026-0.072,0.053-0.145,0.084-0.213
				c0.019-0.114,0.041-0.23,0.066-0.342c0.029-0.205,0.075-0.403,0.146-0.601c0.082-0.232,0.188-0.458,0.329-0.659
				c0.135-0.192,0.283-0.379,0.45-0.544c0.314-0.31,0.675-0.557,1.054-0.771c0.463-0.264,0.958-0.476,1.456-0.659
				c0.987-0.357,2.006-0.62,3.039-0.787c0.095-0.014,0.191-0.032,0.284-0.039c0.014-0.003,0.021-0.007,0.032-0.011
				c0.152-0.039,0.304-0.079,0.456-0.116c0.234-0.059,0.467-0.117,0.701-0.168c0.032-0.01,0.066-0.023,0.097-0.03
				c0.307-0.072,0.61-0.144,0.918-0.203c0.33-0.062,0.66-0.117,0.992-0.145c0.027-0.045,0.058-0.095,0.079-0.142
				c-0.229-0.264-0.482-0.504-0.76-0.725c-0.403-0.312-0.847-0.562-1.317-0.766c-0.215-0.094-0.437-0.171-0.658-0.241
				c-0.007-0.002-0.016-0.007-0.024-0.012c-0.088,0-0.18,0-0.269-0.005c-0.18,0.008-0.354,0.02-0.531,0.038
				c-0.021,0.001-0.037,0.012-0.058,0.015c-0.171,0.017-0.33,0.05-0.479,0.113c-0.54-0.093-1.085-0.182-1.609-0.335
				c-0.356-0.08-0.689-0.226-1-0.411c-0.139-0.083-0.285-0.154-0.402-0.262c-0.232-0.213-0.414-0.471-0.522-0.765
				c-0.136-0.357-0.186-0.752-0.172-1.135c0.003-0.097,0.022-0.188,0.029-0.284c0.016-0.191,0.029-0.384,0.062-0.568
				c-0.013-0.23-0.013-0.457-0.004-0.683c0.007-0.195,0.03-0.395,0.056-0.592c0.228-0.646,0.398-1.31,0.624-1.959
				c0.121-0.349,0.25-0.691,0.361-1.037c0.121-0.361,0.204-0.729,0.282-1.095c0.146-0.689,0.24-1.385,0.336-2.08
				c0.162-1.19,0.376-2.361,0.812-3.484c0.101-0.216,0.201-0.429,0.299-0.648c0.037-0.089,0.07-0.177,0.106-0.263
				c0.071-0.177,0.142-0.351,0.209-0.524c0.089-0.186,0.184-0.36,0.297-0.531c0.054-0.07,0.102-0.143,0.146-0.214h0.042
				c0.018-0.049,0.038-0.099,0.056-0.147c0.06-0.161,0.121-0.324,0.185-0.484c0.015-0.032,0.026-0.068,0.04-0.101
				c0.092-0.225,0.185-0.444,0.284-0.664c0.039-0.083,0.078-0.169,0.117-0.251c0.269-0.477,0.479-0.988,0.697-1.492
				c0.288-0.658,0.564-1.315,0.843-1.975c0.258-0.611,0.524-1.22,0.779-1.828c0.092-0.054,0.185-0.098,0.276-0.146
				c0.044-0.007,0.091-0.021,0.135-0.041c0.237-0.098,0.481-0.173,0.73-0.23c0.181-0.004,0.363,0.014,0.547,0.03
				c0.277,0.027,0.555,0.056,0.837,0.073c0.316,0.021,0.638,0.029,0.958,0.05c0.088,0.025,0.168,0.049,0.259,0.077
				c0.025,0.009,0.052,0.015,0.079,0.023c0.052,0.017,0.104,0.034,0.157,0.048c0.054,0.014,0.105,0.014,0.155,0.011
				c0.023,0.003,0.046,0.01,0.066,0.01c0.029,0.003,0.057,0.003,0.085,0.006c0.069,0.007,0.139,0.017,0.207,0.017
				c0.138,0,0.272-0.016,0.41-0.047c0.098-0.022,0.178-0.081,0.236-0.159c0.058-0.078,0.092-0.175,0.092-0.269
				c0-0.185-0.135-0.387-0.328-0.427c-0.031-0.008-0.067-0.011-0.1-0.018c-0.062-0.013-0.124-0.024-0.186-0.033
				c-0.02-0.047-0.049-0.084-0.08-0.122c-0.683-0.851-1.532-1.555-2.211-2.413c-0.174-0.234-0.325-0.477-0.49-0.715
				c0.091-0.213,0.184-0.425,0.275-0.636c0.041-0.093,0.079-0.185,0.119-0.277c1.294-2.912,2.678-5.784,4.277-8.537
				c1.583-2.73,3.382-5.344,5.302-7.85c0.584-0.751,1.181-1.482,1.791-2.207c0.112-0.023,0.227-0.047,0.338-0.063
				c0.328-0.036,0.654-0.036,0.981,0c0.056,0.008,0.107,0.035,0.16,0.045c0.346,0.067,0.686,0.151,1.01,0.281
				c0.298,0.132,0.577,0.294,0.851,0.466c0.12,0.073,0.235,0.154,0.353,0.232c0.219,0.148,0.436,0.298,0.644,0.459
				c0.5,0.385,0.983,0.779,1.498,1.144c0.509,0.36,1.055,0.663,1.643,0.882c0.038,0.014,0.073,0.021,0.114,0.021
				c0.078,0,0.155-0.025,0.225-0.066c0.066-0.038,0.125-0.094,0.161-0.157c0.06-0.104,0.075-0.227,0.047-0.343
				c-0.035-0.12-0.11-0.191-0.206-0.264c-0.012-0.007-0.021-0.019-0.025-0.016c-0.019-0.016-0.039-0.031-0.06-0.047
				c-0.008-0.006-0.016-0.013-0.016-0.011c0.006,0.003,0.011,0.007,0.016,0.011c0.017,0.014,0.035,0.026,0.053,0.04
				c-1.044-0.81-2.074-1.672-2.895-2.719c-0.337-0.443-0.63-0.921-0.855-1.434c-0.156-0.385-0.272-0.786-0.348-1.195
				c0.004-0.188,0.007-0.38,0.002-0.57c-0.006-0.245-0.017-0.493-0.024-0.741c1.627-1.737,3.232-3.495,4.658-5.409
				c0.069-0.092,0.11-0.211,0.127-0.332c0.025-0.031,0.047-0.058,0.069-0.088c0.008-0.007,0.014-0.016,0.021-0.023
				c0.183-0.22,0.366-0.44,0.554-0.647c0.033-0.034,0.062-0.069,0.094-0.102c0.139-0.148,0.275-0.297,0.421-0.444
				c0.132-0.135,0.266-0.27,0.403-0.398c0.037-0.035,0.072-0.069,0.109-0.104c0.115-0.106,0.235-0.217,0.361-0.324
				c0.046-0.04,0.095-0.082,0.143-0.121c0.157-0.135,0.324-0.252,0.485-0.375c0.148-0.113,0.292-0.237,0.445-0.346
				c0.092-0.061,0.181-0.119,0.272-0.176c0.45-0.529,1.016-0.966,1.539-1.432c0-0.007,0.005-0.014,0.007-0.021
				c0.007,0,0.017,0,0.029-0.003c0.174,0,0.347,0.013,0.52,0.031c0.494,0.076,0.977,0.219,1.443,0.405
				c0.507,0.221,0.988,0.491,1.437,0.822c0.047,0.054,0.092,0.104,0.14,0.155c0.006,0.008,0.011,0.011,0.015,0.021
				c0.014,0.021,0.037,0.033,0.052,0.053c0.034,0.037,0.065,0.079,0.107,0.105c0.052,0.051,0.106,0.102,0.157,0.152
				c0.025,0.026,0.052,0.051,0.079,0.077c0.029,0.028,0.07,0.023,0.104,0.041c0.068,0.037,0.136,0.08,0.208,0.08
				c0.137,0,0.253-0.08,0.339-0.192c0.031-0.041,0.073-0.072,0.09-0.127c0.12-0.38,0.07-0.785-0.057-1.152
				c-0.088-0.264-0.216-0.512-0.354-0.753c-0.021-0.053-0.045-0.104-0.068-0.157c-0.045-0.105-0.088-0.209-0.137-0.313
				c-0.228-0.484-0.499-0.947-0.715-1.44c-0.107-0.274-0.192-0.551-0.239-0.843c-0.003-0.044-0.007-0.091-0.011-0.138
				c0.025-0.151,0.055-0.306,0.084-0.46c0.182-0.181,0.362-0.363,0.551-0.537c0.073-0.067,0.146-0.133,0.218-0.201
				c0.33-0.3,0.662-0.592,1.001-0.873c0.01-0.009,0.02-0.018,0.029-0.026c0.004-0.003,0.009-0.008,0.015-0.014
				c0.092-0.186,0.213-0.352,0.325-0.524c0.07-0.107,0.125-0.222,0.202-0.327c0.219-0.268,0.47-0.503,0.709-0.75
				c0.468-0.48,0.962-0.935,1.484-1.355c0.108-0.089,0.212-0.185,0.323-0.273c1.008-0.77,2.062-1.48,3.071-2.25
				c0.201-0.135,0.403-0.264,0.604-0.394c1.062-0.706,2.114-1.423,3.139-2.177c1.041-0.768,2.028-1.606,3.042-2.402
				c0.854-0.65,1.723-1.273,2.599-1.884c0.115-0.08,0.23-0.163,0.343-0.242c0.246-0.067,0.491-0.122,0.742-0.166
				c0.214-0.021,0.429-0.033,0.643-0.035c0.144-0.094,0.299-0.162,0.464-0.206c0.261-0.075,0.53-0.111,0.797-0.12
				c0.458-0.024,0.912,0.009,1.364,0.06c0.02,0.003,0.038,0.005,0.055,0.006c0.037,0.004,0.074,0.007,0.109,0.012
				c0.305,0.034,0.608,0.085,0.901,0.182c0.287,0.093,0.568,0.213,0.828,0.367c0.038,0.021,0.073,0.044,0.109,0.068
				c0.096,0.058,0.188,0.116,0.28,0.188c0.064,0.043,0.126,0.087,0.191,0.141c0.07,0.05,0.137,0.104,0.202,0.163
				c0.148,0.125,0.288,0.251,0.426,0.389c0.033,0.016,0.065,0.038,0.095,0.057c0.088,0.039,0.178,0.065,0.272,0.082
				c0.03,0.004,0.06,0.004,0.088,0.004c0.031,0,0.062,0,0.092-0.004c0.069-0.013,0.138-0.03,0.2-0.054
				c0.047-0.021,0.088-0.045,0.127-0.075c0.005-0.004,0.009-0.004,0.014-0.01c0.018-0.032,0.03-0.065,0.044-0.098
				c0.012-0.206-0.007-0.407-0.005-0.614c-0.201-0.471-0.315-0.985-0.306-1.502c0.003-0.305,0.042-0.616,0.13-0.911
				c0.032-0.111,0.075-0.218,0.12-0.324c0.015-0.038,0.025-0.082,0.044-0.118c0.003-0.011,0.006-0.018,0.008-0.029
				c0.043-0.133,0.09-0.263,0.15-0.388c0.005-0.012,0.015-0.027,0.024-0.041c0.034-0.068,0.071-0.133,0.11-0.197
				c0.011-0.014,0.017-0.03,0.026-0.044c0.005-0.009,0.014-0.018,0.019-0.028c0.021-0.026,0.037-0.053,0.059-0.078
				c0.053-0.075,0.107-0.146,0.168-0.215c0.098-0.104,0.195-0.2,0.304-0.288c0.01-0.061,0.035-0.111,0.075-0.155
				c0.178-0.168,0.362-0.327,0.554-0.481c0.063-0.051,0.137-0.098,0.2-0.148c0.131-0.094,0.26-0.19,0.394-0.282
				c0.082-0.053,0.166-0.1,0.245-0.157c0.127-0.079,0.257-0.158,0.388-0.229c0.087-0.052,0.172-0.096,0.261-0.141
				c0.174-0.097,0.349-0.188,0.526-0.275c0.26-0.125,0.529-0.23,0.796-0.343c0.6-0.252,1.208-0.485,1.821-0.69
				c0.426-0.145,0.854-0.277,1.282-0.408c0.394-0.122,0.796-0.219,1.197-0.311c0.106-0.022,0.206-0.061,0.312-0.081
				c0.233-0.119,0.469-0.241,0.708-0.347c0.356-0.161,0.726-0.309,1.101-0.433c0.137-0.043,0.272-0.088,0.41-0.133
				c0.044-0.018,0.09-0.031,0.14-0.045c0.175-0.058,0.348-0.116,0.521-0.174c0.729-0.24,1.469-0.464,2.232-0.561
				c0.487-0.064,0.997-0.087,1.478,0.011c0.405,0.079,0.781,0.251,1.104,0.497c0.116,0.086,0.225,0.183,0.326,0.285
				c0.013,0.01,0.024,0.02,0.036,0.034c0.102,0.104,0.195,0.211,0.287,0.321c0.317,0.394,0.569,0.845,0.794,1.297
				c0.168,0.343,0.334,0.69,0.488,1.041c0.069,0.098,0.139,0.195,0.205,0.298c0.321,0.327,0.625,0.667,0.916,1.027
				c0.044,0.058,0.087,0.119,0.132,0.178c0.011,0.073,0.02,0.148,0.03,0.221c0.013,0.085,0.025,0.168,0.038,0.247
				c0.1,0.148,0.208,0.288,0.312,0.433c0.17,0.227,0.335,0.455,0.498,0.688c0.033,0.049,0.066,0.102,0.102,0.152
				c0.105,0.151,0.212,0.304,0.309,0.461c0.06,0.097,0.109,0.198,0.164,0.297c0.063,0.109,0.137,0.219,0.186,0.332
				c0.065,0.142,0.125,0.285,0.177,0.434c0.013,0.029,0.024,0.061,0.036,0.09c0.023,0.021,0.05,0.04,0.074,0.057
				c0.1,0.066,0.192,0.134,0.288,0.199c0.111,0.041,0.229,0.076,0.347,0.097c0.044,0.004,0.086,0.004,0.128,0.004
				c0.036,0,0.071,0,0.109-0.004c0.054-0.006,0.106-0.021,0.155-0.038c0.011-0.015,0.021-0.03,0.03-0.043
				c-0.156-1.362-0.292-2.733-0.248-4.101c0.013-0.321,0.03-0.638,0.062-0.952c-0.073-0.75-0.102-1.497-0.269-2.229
				c0-0.009-0.003-0.012-0.006-0.021c-0.005-0.012-0.011-0.025-0.014-0.038c0.044-0.22,0.095-0.432,0.151-0.648
				c0-0.017,0.004-0.033,0.004-0.05c0-0.227,0.013-0.458,0.05-0.681c0.007-0.044,0.014-0.088,0.024-0.125
				c0.039-0.364,0.124-0.718,0.261-1.051c0.119-0.284,0.26-0.555,0.444-0.796c0.193-0.255,0.407-0.489,0.65-0.69
				c0.136-0.113,0.282-0.217,0.426-0.318c0.052-0.036,0.105-0.071,0.16-0.104c0.138-0.09,0.283-0.173,0.427-0.252
				c0.013-0.008,0.024-0.015,0.037-0.02c0.005-0.004,0.012-0.007,0.019-0.011c0.442-0.23,0.906-0.432,1.391-0.571
				c0.068-0.021,0.144-0.031,0.212-0.049c0.145-0.035,0.285-0.069,0.431-0.099c0.02-0.003,0.04-0.007,0.061-0.01
				c0.011-0.002,0.021-0.004,0.032-0.006c0.223-0.043,0.443-0.068,0.668-0.087c0.129-0.007,0.264-0.01,0.39-0.014
				c0.142-0.003,0.279-0.003,0.418,0c0.075,0.004,0.153,0,0.23,0.004c0.083-0.018,0.172-0.028,0.255-0.041
				c0.05-0.007,0.101-0.017,0.154-0.024c0.133-0.017,0.265-0.027,0.402-0.039c0.181-0.007,0.361,0.008,0.541,0.017
				c0.093,0.006,0.185-0.001,0.275,0.009c0.061,0.003,0.124,0.01,0.186,0.021c0.123,0.003,0.242,0.013,0.36,0.029
				c0.037,0.004,0.074,0.011,0.109,0.019c0.375,0.061,0.735,0.183,1.061,0.387c0.279,0.178,0.531,0.394,0.762,0.628
				c0.23,0.174,0.466,0.347,0.732,0.466c0.059,0.024,0.118,0.039,0.18,0.058c0.112,0.011,0.224,0.015,0.338,0.011
				c0.069-0.116,0.142-0.23,0.215-0.336c0.031-0.32,0.134-0.623,0.291-0.9c0.031-0.059,0.051-0.122,0.09-0.177
				c0.19-0.264,0.419-0.483,0.692-0.662c0.269-0.181,0.567-0.321,0.876-0.429c0.621-0.216,1.28-0.322,1.935-0.364
				c0.646-0.036,1.299-0.015,1.94,0.045c0.147-0.013,0.299-0.027,0.449-0.037c0.074-0.005,0.15-0.012,0.226-0.02
				c0.093-0.019,0.184-0.04,0.275-0.061c0.264-0.059,0.527-0.12,0.792-0.178c0.498-0.107,0.994-0.207,1.498-0.265
				c0.013-0.002,0.026-0.002,0.04-0.003c0.14-0.018,0.276-0.029,0.417-0.041c0.028-0.068,0.095-0.127,0.174-0.148
				c0.587-0.154,1.188-0.269,1.794-0.33c0.266-0.03,0.537-0.051,0.811-0.064c0.456-0.094,0.915-0.182,1.379-0.254
				c0.052-0.008,0.104-0.008,0.155-0.017c0.457-0.068,0.919-0.129,1.386-0.14c0.528-0.011,1.064,0.025,1.589,0.133
				c0.366,0.072,0.73,0.169,1.084,0.282c0.381,0.05,0.755,0.117,1.133,0.19c0.721-0.055,1.445-0.047,2.166,0.004
				c1.014,0.071,2.018,0.22,3.002,0.462c0.092,0.021,0.188,0.05,0.285,0.075c0.189,0.049,0.381,0.096,0.572,0.151
				c0.01,0,0.025,0,0.035,0c0.6-0.027,1.203-0.033,1.799,0.017c0.775,0.064,1.547,0.201,2.258,0.515
				c0.213,0.096,0.412,0.207,0.609,0.337c0.057-0.011,0.113,0,0.166,0.03c0.266,0.146,0.547,0.258,0.787,0.445
				c0.139,0.097,0.262,0.214,0.354,0.359c0.084,0.134,0.148,0.28,0.189,0.436c0.096,0.351,0.109,0.712,0.102,1.071
				c0.086,0.392,0.135,0.792,0.143,1.192c0.004,0.157,0,0.316-0.004,0.472c0.029,0.152,0.047,0.305,0.057,0.458
				c0.025,0.399-0.006,0.796-0.037,1.192c0.025,0.328-0.002,0.659-0.018,0.988c-0.002,0.107,0.008,0.213,0.002,0.32
				c-0.004,0.213-0.018,0.427,0.006,0.638c0.004,0.037,0.01,0.073,0.018,0.11c0.002,0.019,0.002,0.037,0.006,0.056
				c0.008,0.003,0.012,0.008,0.018,0.013c0.014,0.009,0.023,0.02,0.035,0.029c0.072,0.053,0.152,0.092,0.232,0.136
				c0.041,0.02,0.076,0.049,0.119,0.065c0.137,0.053,0.277,0.09,0.418,0.117c0.137-0.037,0.277-0.083,0.412-0.134
				c0.191-0.158,0.373-0.321,0.555-0.483c0.107-0.103,0.215-0.203,0.322-0.305c0.117-0.109,0.234-0.217,0.35-0.328
				c0.262-0.377,0.537-0.75,0.803-1.13c0.373-0.535,0.74-1.075,1.133-1.596c0.52-0.649,1.076-1.263,1.717-1.793
				c0.127-0.092,0.271-0.157,0.406-0.242c0.221-0.14,0.441-0.291,0.684-0.407c0.297-0.108,0.602-0.177,0.908-0.24
				c0.082-0.018,0.16-0.05,0.242-0.064c0.061-0.008,0.113-0.008,0.174-0.011c0.025,0.011,0.049,0.021,0.076,0.032
				c0.225-0.029,0.447-0.019,0.672,0.019c0.273,0.05,0.533,0.132,0.793,0.229c0.234,0.094,0.461,0.202,0.693,0.311
				c0.107,0.032,0.209,0.065,0.318,0.099c0.326,0.111,0.65,0.232,0.973,0.348c0.152,0.056,0.301,0.107,0.447,0.155
				c0.098,0.011,0.197,0.024,0.297,0.037c0.389,0.06,0.771,0.141,1.158,0.236c0.375,0.094,0.75,0.193,1.129,0.289
				c0.008,0.003,0.014,0.007,0.02,0.007c0.086-0.055,0.199-0.068,0.285-0.01c0.084,0.054,0.162,0.107,0.25,0.158
				c0.232,0.068,0.465,0.134,0.697,0.201c0.307,0.084,0.615,0.18,0.924,0.228c0.08,0.013,0.162,0.031,0.248,0.044
				c0.164,0.023,0.334,0.043,0.496,0.087c0.104,0.025,0.211,0.057,0.309,0.101c0.113,0.05,0.217,0.114,0.287,0.215
				c0.023,0.036,0.045,0.073,0.061,0.111c0.035,0.116,0.043,0.25,0.029,0.367c-0.023,0.163-0.068,0.315-0.131,0.47
				c-0.02,0.058-0.045,0.107-0.088,0.137c-0.014,0.05-0.023,0.094-0.031,0.138c-0.002,0.014-0.008,0.028-0.012,0.041
				c-0.109,0.479-0.211,0.963-0.32,1.441c-0.027,0.107-0.047,0.214-0.074,0.321c-0.027,0.148-0.051,0.295-0.07,0.443
				c-0.021,0.109-0.029,0.216-0.037,0.332c0,0.006-0.002,0.009-0.002,0.014c0,0.019,0,0.035-0.004,0.06
				c-0.006,0.139-0.006,0.283,0,0.421c0,0.075,0,0.146-0.006,0.223c-0.002,0.067-0.008,0.131-0.018,0.191
				c-0.02,0.137-0.062,0.256-0.123,0.381c-0.004,0.009-0.012,0.02-0.02,0.029v0.04c0.09,0.092,0.186,0.178,0.279,0.266
				c0.088,0.008,0.176,0.012,0.264,0.012c0.055-0.02,0.107-0.038,0.162-0.055c0.029-0.008,0.055-0.019,0.084-0.028
				c0.299-0.131,0.58-0.304,0.848-0.487c0.195-0.133,0.389-0.271,0.576-0.413c0.326-0.246,0.648-0.505,0.98-0.743
				c0.045-0.024,0.08-0.053,0.119-0.082c0.232-0.218,0.473-0.421,0.734-0.605c0.055-0.043,0.109-0.08,0.172-0.122
				c0.096-0.102,0.197-0.201,0.309-0.291c0.297-0.242,0.627-0.45,1.002-0.557c0.117-0.033,0.238-0.04,0.361-0.057
				c0.283-0.04,0.568-0.051,0.854-0.013c0.119,0.019,0.234,0.041,0.35,0.069c0.145,0.307,0.371,0.566,0.684,0.725
				c1.52,0.771,3.068,1.482,4.621,2.183c3.773,1.696,7.6,3.284,11.262,5.218c0.031,0.4,0.039,0.792,0.049,1.195
				c0.006,0.568,0.047,1.133,0.143,1.701c0.043,0.264,0.307,0.486,0.557,0.552c0.068,0.021,0.139,0.031,0.211,0.031
				c0.273,0,0.535-0.149,0.688-0.395c0.072-0.118,0.15-0.23,0.23-0.343c0.039-0.058,0.074-0.117,0.113-0.173
				c0.168-0.206,0.354-0.397,0.557-0.57c0.053-0.036,0.111-0.062,0.164-0.092c0.104-0.065,0.207-0.132,0.32-0.187
				c0.053-0.021,0.1-0.035,0.148-0.054c0.955,0.494,1.918,0.989,2.875,1.486c0.479,0.248,0.957,0.492,1.436,0.743
				c0.996,0.525,1.98,1.078,2.945,1.654c1.213,0.722,2.393,1.482,3.52,2.334c1.658,1.322,3.125,2.855,4.652,4.32
				c1.238,1.194,2.48,2.39,3.719,3.589c0.053,0.188,0.096,0.374,0.129,0.565c0.037,0.351,0.033,0.692,0,1.044
				c-0.082,0.503-0.229,0.986-0.418,1.464c-0.244,0.541-0.531,1.063-0.844,1.569c-0.367,0.336-0.697,0.724-0.92,1.156
				c-0.133,0.258-0.152,0.55,0,0.807c0.023,0.041,0.064,0.062,0.096,0.098c0.055,0.07,0.109,0.145,0.188,0.189
				c0.131,0.075,0.254,0.103,0.381,0.103c0.08,0,0.154-0.011,0.234-0.022c1.301-0.202,2.514-0.733,3.75-1.154
				c0.586-0.199,1.176-0.38,1.791-0.479c0.275-0.028,0.547-0.031,0.826-0.031c0.27,0.295,0.535,0.587,0.801,0.881
				c1.549,1.737,2.967,3.59,4.416,5.414c1.385,1.743,2.801,3.462,4.346,5.064c1.365,1.413,2.869,2.677,4.4,3.895
				c0.666,0.537,1.344,1.061,2.012,1.59c0.209,0.315,0.414,0.64,0.621,0.952c0.248,0.312,0.496,0.622,0.74,0.931
				c0.326,0.43,0.646,0.862,0.953,1.31c0.029,0.339,0.029,0.674,0,1.016c-0.082,0.359-0.18,0.717-0.266,1.074
				c-0.025,0.061-0.043,0.123-0.07,0.184c-0.189,0.421-0.422,0.813-0.701,1.183c-0.25,0.295-0.512,0.575-0.797,0.834
				c-0.064,0.061-0.09,0.146-0.127,0.224c-0.084,0.176-0.127,0.368-0.078,0.551c0.043,0.138,0.107,0.253,0.207,0.354
				c0.158,0.161,0.35,0.216,0.566,0.232c0.93,0.072,1.859-0.017,2.789-0.107c0.006,0,0.01,0,0.016-0.001
				c0.074-0.005,0.145-0.012,0.217-0.019c0.158,0.027,0.314,0.067,0.471,0.102c0.564,0.116,1.117,0.255,1.658,0.457
				c0.312,0.273,0.607,0.569,0.869,0.895"/>
			<polygon fill="#5F3B23" points="429.494,176.841 429.494,176.84 429.492,176.831 			"/>
			<path fill="#5F3B23" d="M473.143,348.478c0.008-0.004,0.02-0.013,0.029-0.019C473.15,348.465,473.139,348.474,473.143,348.478z"
				/>
			<path fill="#5F3B23" d="M308.719,237.038c0.009,0.007,0.017,0.014,0.024,0.02c-0.005-0.004-0.01-0.008-0.016-0.011
				C308.724,237.045,308.722,237.041,308.719,237.038z"/>
			<path fill="#5F3B23" d="M285.604,350.705c-0.017-0.052-0.037-0.098-0.058-0.142c-0.055-0.137-0.105-0.266-0.154-0.402
				c-0.051-0.121-0.099-0.236-0.143-0.355c-0.144,0.435-0.188,0.844-0.069,1.188c0.219,0.007,0.412,0.024,0.597,0.048
				c-0.047-0.089-0.1-0.177-0.139-0.271C285.622,350.748,285.613,350.729,285.604,350.705z"/>
		</g>
	</g>
</g>
</svg>
