<?xml version="1.0" encoding="utf-8"?>
<!-- Generator: Adobe Illustrator 16.0.0, SVG Export Plug-In . SVG Version: 6.00 Build 0)  -->
<!DOCTYPE svg PUBLIC "-//W3C//DTD SVG 1.1//EN" "http://www.w3.org/Graphics/SVG/1.1/DTD/svg11.dtd">
<svg version="1.1" id="Layer_1" xmlns="http://www.w3.org/2000/svg" xmlns:xlink="http://www.w3.org/1999/xlink" x="0px" y="0px"
	 width="31.822px" height="31.822px" viewBox="0 0 31.822 31.822" enable-background="new 0 0 31.822 31.822" xml:space="preserve">
<rect fill="#CC3732" width="31.822" height="31.822"/>
<path fill="#FFFFFF" d="M-2.858,9.332c-0.781,0.346-1.621,0.58-2.501,0.685c0.9-0.538,1.59-1.392,1.914-2.407
	c-0.84,0.498-1.771,0.861-2.763,1.057C-7,7.819-8.133,7.291-9.384,7.291c-2.405,0-4.354,1.949-4.354,4.353
	c0,0.342,0.039,0.673,0.113,0.991c-3.618-0.181-6.824-1.914-8.972-4.548c-0.374,0.645-0.588,1.392-0.588,2.189
	c0,1.509,0.768,2.843,1.935,3.622c-0.713-0.022-1.384-0.219-1.971-0.545v0.055c0,2.109,1.501,3.867,3.49,4.268
	c-0.364,0.101-0.749,0.153-1.146,0.153c-0.279,0-0.554-0.027-0.818-0.077c0.554,1.729,2.161,2.985,4.065,3.022
	c-1.488,1.167-3.365,1.863-5.406,1.863c-0.351,0-0.696-0.022-1.037-0.062c1.926,1.234,4.214,1.954,6.673,1.954
	c8.006,0,12.383-6.63,12.383-12.383c0-0.188-0.005-0.375-0.013-0.563C-4.179,10.971-3.444,10.204-2.858,9.332z"/>
<rect x="37.353" y="3.526" fill="#CC3732" width="31.145" height="31.145"/>
<path fill="#FFFFFF" d="M15.66,5.628c0.195,0.121,0.413,0.297,0.656,0.53c0.234,0.242,0.463,0.541,0.687,0.893
	c0.215,0.333,0.404,0.726,0.57,1.181c0.137,0.453,0.205,0.983,0.205,1.589c-0.018,1.109-0.264,1.997-0.736,2.664
	c-0.23,0.323-0.475,0.62-0.734,0.893c-0.287,0.271-0.592,0.55-0.914,0.832c-0.186,0.191-0.355,0.408-0.513,0.651
	c-0.185,0.252-0.277,0.544-0.277,0.877c0,0.324,0.095,0.591,0.284,0.803c0.161,0.201,0.317,0.379,0.47,0.53l1.053,0.861
	c0.653,0.537,1.227,1.125,1.719,1.771c0.465,0.656,0.707,1.513,0.727,2.571c0,1.504-0.664,2.835-1.992,3.996
	c-1.375,1.201-3.362,1.82-5.958,1.861c-2.173-0.02-3.795-0.483-4.867-1.389c-1.08-0.846-1.622-1.859-1.622-3.035
	c0-0.574,0.176-1.215,0.529-1.92c0.34-0.704,0.959-1.323,1.854-1.857c1.004-0.572,2.06-0.957,3.166-1.146
	c1.096-0.161,2.004-0.253,2.728-0.273c-0.224-0.294-0.423-0.607-0.598-0.943c-0.204-0.324-0.306-0.715-0.306-1.17
	c0-0.274,0.038-0.503,0.115-0.686c0.068-0.193,0.133-0.369,0.19-0.532c-0.353,0.04-0.686,0.061-0.997,0.061
	c-1.651-0.021-2.91-0.54-3.775-1.559c-0.908-0.949-1.361-2.053-1.361-3.313c0-1.524,0.642-2.905,1.927-4.146
	c0.882-0.726,1.798-1.199,2.749-1.422C11.58,4.605,12.46,4.51,13.284,4.51h6.204l-1.916,1.118H15.66z M16.857,23.485
	c0-0.787-0.257-1.473-0.77-2.058c-0.544-0.555-1.393-1.236-2.549-2.044c-0.199-0.021-0.43-0.029-0.697-0.029
	c-0.157-0.02-0.562,0-1.215,0.06c-0.641,0.091-1.299,0.237-1.971,0.438c-0.158,0.061-0.379,0.152-0.666,0.273
	c-0.287,0.131-0.578,0.318-0.875,0.561c-0.286,0.252-0.528,0.564-0.725,0.938c-0.229,0.395-0.341,0.869-0.341,1.424
	c0,1.089,0.492,1.988,1.48,2.693c0.938,0.706,2.222,1.068,3.853,1.09c1.462-0.021,2.578-0.344,3.348-0.969
	C16.482,25.246,16.857,24.454,16.857,23.485z M12.532,14.392c0.817-0.029,1.497-0.324,2.042-0.88
	c0.263-0.394,0.432-0.798,0.506-1.212c0.045-0.416,0.068-0.763,0.068-1.047c0-1.222-0.312-2.456-0.938-3.699
	c-0.294-0.595-0.681-1.082-1.159-1.455C12.561,5.745,12,5.557,11.364,5.537c-0.841,0.02-1.54,0.359-2.097,1.016
	C8.796,7.24,8.572,8.009,8.593,8.858c0,1.122,0.327,2.288,0.984,3.502c0.318,0.565,0.727,1.045,1.23,1.439
	C11.311,14.195,11.885,14.392,12.532,14.392z"/>
<polygon fill="#FFFFFF" points="27.892,7.898 24.638,7.898 24.638,4.642 23.06,4.642 23.06,7.898 19.806,7.898 19.806,9.475 
	23.06,9.475 23.06,12.729 24.638,12.729 24.638,9.475 27.892,9.475 "/>
</svg>
