<?xml version="1.0" encoding="utf-8"?>
<!-- Generator: Adobe Illustrator 16.0.0, SVG Export Plug-In . SVG Version: 6.00 Build 0)  -->
<!DOCTYPE svg PUBLIC "-//W3C//DTD SVG 1.1//EN" "http://www.w3.org/Graphics/SVG/1.1/DTD/svg11.dtd">
<svg version="1.1" id="Layer_1" xmlns="http://www.w3.org/2000/svg" xmlns:xlink="http://www.w3.org/1999/xlink" x="0px" y="0px"
	 width="31.822px" height="31.822px" viewBox="0 0 31.822 31.822" enable-background="new 0 0 31.822 31.822" xml:space="preserve">
<rect fill="#181617" width="31.822" height="31.822"/>
<path fill="#FFFFFF" d="M-12.606,31.707c-0.781,0.346-1.621,0.58-2.5,0.685c0.9-0.538,1.59-1.392,1.914-2.407
	c-0.84,0.498-1.771,0.861-2.764,1.057c-0.793-0.847-1.926-1.375-3.176-1.375c-2.406,0-4.354,1.949-4.354,4.353
	c0,0.342,0.039,0.673,0.113,0.991c-3.618-0.181-6.824-1.914-8.972-4.548c-0.374,0.645-0.588,1.392-0.588,2.189
	c0,1.509,0.768,2.843,1.935,3.622c-0.713-0.022-1.384-0.219-1.971-0.545v0.055c0,2.109,1.501,3.867,3.49,4.268
	c-0.364,0.101-0.749,0.153-1.146,0.153c-0.279,0-0.554-0.027-0.818-0.077c0.554,1.729,2.161,2.985,4.065,3.022
	c-1.488,1.167-3.365,1.863-5.406,1.863c-0.351,0-0.696-0.022-1.037-0.062c1.926,1.234,4.214,1.954,6.673,1.954
	c8.006,0,12.383-6.63,12.383-12.383c0-0.188-0.006-0.375-0.014-0.563C-13.927,33.346-13.192,32.579-12.606,31.707z"/>
<rect x="37.353" y="3.526" fill="#CC3732" width="31.145" height="31.145"/>
<path fill="#FFFFFF" d="M59.034-29.872c0.195,0.121,0.414,0.297,0.656,0.53c0.234,0.242,0.463,0.541,0.688,0.893
	c0.215,0.333,0.404,0.726,0.57,1.181c0.137,0.453,0.205,0.983,0.205,1.589c-0.018,1.109-0.264,1.997-0.736,2.664
	c-0.23,0.323-0.475,0.62-0.734,0.893c-0.287,0.271-0.592,0.55-0.914,0.832c-0.186,0.191-0.355,0.408-0.512,0.651
	c-0.186,0.252-0.277,0.544-0.277,0.877c0,0.324,0.094,0.591,0.283,0.803c0.162,0.201,0.318,0.379,0.471,0.53l1.053,0.861
	c0.652,0.537,1.227,1.125,1.719,1.771c0.465,0.656,0.707,1.513,0.727,2.571c0,1.504-0.664,2.835-1.992,3.996
	c-1.375,1.201-3.361,1.82-5.957,1.861c-2.174-0.02-3.795-0.483-4.867-1.389c-1.08-0.846-1.623-1.859-1.623-3.035
	c0-0.574,0.176-1.215,0.529-1.92c0.34-0.704,0.959-1.323,1.854-1.857c1.004-0.572,2.061-0.957,3.166-1.146
	c1.096-0.161,2.004-0.253,2.729-0.273c-0.225-0.294-0.424-0.607-0.598-0.943c-0.205-0.324-0.307-0.715-0.307-1.17
	c0-0.274,0.039-0.503,0.115-0.686c0.068-0.193,0.133-0.369,0.191-0.532c-0.354,0.04-0.686,0.061-0.998,0.061
	c-1.65-0.021-2.91-0.54-3.775-1.559c-0.908-0.949-1.361-2.053-1.361-3.313c0-1.524,0.643-2.905,1.928-4.146
	c0.881-0.726,1.797-1.199,2.748-1.422c0.941-0.192,1.822-0.287,2.646-0.287h6.203l-1.916,1.118H59.034z M60.231-12.015
	c0-0.787-0.256-1.473-0.77-2.058c-0.543-0.555-1.393-1.236-2.549-2.044c-0.199-0.021-0.43-0.029-0.697-0.029
	c-0.156-0.02-0.562,0-1.215,0.06c-0.641,0.091-1.299,0.237-1.971,0.438c-0.158,0.061-0.379,0.152-0.666,0.273
	c-0.287,0.131-0.578,0.318-0.875,0.561c-0.285,0.252-0.527,0.564-0.725,0.938c-0.229,0.395-0.34,0.869-0.34,1.424
	c0,1.089,0.492,1.988,1.48,2.693c0.938,0.706,2.221,1.068,3.852,1.09c1.463-0.021,2.578-0.344,3.348-0.969
	C59.856-10.254,60.231-11.046,60.231-12.015z M55.907-21.108c0.816-0.029,1.496-0.324,2.041-0.88
	c0.264-0.394,0.432-0.798,0.506-1.212c0.045-0.416,0.068-0.763,0.068-1.047c0-1.222-0.312-2.456-0.938-3.699
	c-0.295-0.595-0.682-1.082-1.16-1.455c-0.488-0.353-1.051-0.541-1.686-0.561c-0.842,0.02-1.541,0.359-2.098,1.016
	c-0.471,0.687-0.695,1.456-0.674,2.305c0,1.122,0.328,2.288,0.984,3.502c0.318,0.565,0.727,1.045,1.23,1.439
	C54.687-21.305,55.261-21.108,55.907-21.108z"/>
<polygon fill="#FFFFFF" points="71.267,-27.602 68.013,-27.602 68.013,-30.858 66.435,-30.858 66.435,-27.602 63.181,-27.602 
	63.181,-26.025 66.435,-26.025 66.435,-22.771 68.013,-22.771 68.013,-26.025 71.267,-26.025 "/>
<rect x="-51.405" y="-7.37" fill="#181617" width="31.384" height="31.383"/>
<path fill="#FFFFFF" d="M15.911,5.279c-6.021,0-10.901,4.88-10.901,10.903c0,4.815,3.122,8.9,7.455,10.343
	c0.546,0.1,0.744-0.238,0.744-0.527c0-0.258-0.008-0.943-0.016-1.853c-3.031,0.657-3.67-1.461-3.67-1.461
	c-0.496-1.26-1.211-1.594-1.211-1.594c-0.99-0.678,0.076-0.664,0.076-0.664c1.094,0.078,1.67,1.123,1.67,1.123
	c0.972,1.668,2.552,1.184,3.173,0.906c0.098-0.705,0.379-1.184,0.69-1.457c-2.42-0.273-4.965-1.213-4.965-5.389
	c0-1.188,0.425-2.163,1.121-2.924C9.966,12.41,9.592,11.301,10.185,9.8c0,0,0.915-0.293,2.998,1.118
	c0.87-0.242,1.803-0.364,2.729-0.368c0.926,0.004,1.859,0.125,2.729,0.368C20.724,9.507,21.637,9.8,21.637,9.8
	c0.595,1.501,0.221,2.609,0.107,2.886c0.698,0.761,1.121,1.736,1.121,2.924c0,4.19-2.55,5.112-4.979,5.381
	c0.391,0.336,0.741,1,0.741,2.018c0,1.457-0.014,2.632-0.014,2.989c0,0.291,0.197,0.631,0.749,0.523
	c4.328-1.443,7.449-5.526,7.449-10.339C26.812,10.16,21.934,5.279,15.911,5.279"/>
</svg>
