<?php ?>
<svg version="1.1" id="Layer_1" xmlns="http://www.w3.org/2000/svg" xmlns:xlink="http://www.w3.org/1999/xlink" x="0px" y="0px"
	 width="826.127px" height="553.384px" viewBox="0 0 826.127 553.384" enable-background="new 0 0 826.127 553.384"
	 xml:space="preserve">
<path class="contour" stroke-miterlimit="10" d="M210.352,564.545
	c-2.926-6.377-5.586-12.859-8.223-19.26c-8.305-20.169-16.889-41.043-32.779-57.38c-4.926-5.048-9.861-8.761-14.654-12.341
	c-9.913-7.44-19.283-14.468-23.94-31.336c-2.115-7.674-2.091-16.589-2.063-26.052c0.014-10.294,0.04-20.949-2.875-30.051
	c-15.278-47.645-16.661-76.738,16.797-113.203c6.666-7.267,14.772-12.005,22.625-16.583c7.783-4.537,15.145-8.822,20.428-15.199
	c1.863-2.255,6.533-10.727,9.93-16.916c2.088-3.818,3.75-6.812,4.432-7.797c1.25-1.85,3.979-3.692,7.16-5.828
	c8.25-5.539,14.307-10.277,11.336-16.426c-3.887-8.062-3.604-16.793,0.801-25.956c11.258-23.252,47.297-44.064,68.191-48.755
	c2.77-0.62,5.604-0.94,8.425-0.94c31.154,0,58.879,36.591,79.133,63.317l0.439,0.582c3.928,5.178,6.377,6.285,7.998,7.004
	c3.781,1.696,4.074,2.848,4.326,17.658c0.119,6.81-2.98,13.217-5.975,19.393c-2.184,4.477-4.234,8.717-4.807,12.654
	c-2.156,14.72-0.902,24.343,3.928,30.29c5.92,7.307,17.475,9.463,33.031,10.447c1.785,0.115,3.58,0.167,5.338,0.167
	c34.986,0,65.423-22.618,83.47-62.064c5.324-11.605,7.201-26.045,9.237-41.322c3.687-28.021,7.505-57.002,32.634-73.989
	c6.254-4.238,9.688-6.448,13.428-6.448c3.58,0,7.041,2.07,12.311,5.478c10.273,6.632,8.438,12.61,6.945,17.406
	c-0.732,2.374-1.369,4.438-0.398,6.254c1.758,3.369,8.383,14.089,12.988,17.042c3.1,1.996,6.217,2.93,9.77,2.93
	c2.715,0,5.375-0.545,7.93-1.094c4.486-0.916,8.904-1.529,12.553-0.153c43.146,16.272,55.629,59.557,65.664,94.339
	c2.235,7.76,5.324,15.585,8.318,23.15c3.884,9.854,7.917,20.063,10.032,30.133c0.865,4.05,0.865,6.993,0.865,9.841
	c0.014,3.393,0.014,6.901,1.424,12.695c1.066,4.299,3.117,9.497,5.141,14.508c2.156,5.402,4.377,10.972,5.375,15.543
	c4.656,21.641,3.951,22.625-4.885,34.748c-2.197,3.021-4.949,6.775-8.236,11.793c-3.941,5.947-8.799,12.212-13.496,18.258
	c-6.629,8.52-13.469,17.315-17.435,24.982c-3.753,7.253-3.859,11.558-3.965,16.116c-0.095,3.434-0.188,6.979-1.771,11.778
	c-2.436,7.484-4.618,11.497-7.119,16.157c-1.332,2.486-2.848,5.283-4.592,8.969c-0.905,1.925-3.528,2.19-5.937,2.19
	c-0.944,0-1.983-0.048-2.994-0.103c-0.944-0.023-1.901-0.078-2.78-0.078c-2.289,0-2.77,0.32-2.834,0.385
	c-2.064,4.354,0.504,7.263,2.994,10.09c1.648,1.863,3.192,3.631,2.688,5.668c-1.093,4.5-0.613,8.751-0.081,13.244
	c0.548,4.684,1.12,9.527-0.185,14.783c-0.813,3.236-5.365,7.242-10.795,11.779c-1.478,1.223-3.301,2.77-3.607,3.209
	c-0.559,1.982-0.889,4.725-1.25,7.609c-0.371,2.902-0.772,6.091-1.543,9.289"/>
<path class="contour" stroke-miterlimit="10" d="M674.145,567.526
	c4.337-6.881,4.193-14.341,3.859-24.182c-0.067-2.316-0.146-4.69-0.173-7.188c-1.744-5.842-3.713-18.983-3.7-19.096
	c0.665-4.34,4.299-8.52,7.839-12.566c1.291-1.488,3.235-3.699,3.686-4.602c0.838-5.253,1.131-10.829,1.386-16.225
	c0.61-11.704,1.224-23.811,7.491-34.063c3.58-5.85,9.422-8.823,14.6-11.459c3.859-1.977,7.521-3.84,8.121-6.063
	c0.49-1.874-0.709-5.175-3.396-9.289l-4.496-6.892l8.209-0.075c8.305-0.071,33.498-18.104,37.316-28.242
	c4.848-12.835,2.143-19.409-2.752-31.335c-1.438-3.464-3.049-7.398-4.619-11.908c-4.432-12.736-3.049-23.937-1.836-33.805
	c0.879-7.225,1.662-13.448,0.092-19.086c-2.633-9.395-7.879-13.64-13.959-18.564c-5.484-4.459-11.725-9.501-15.973-18.766
	c-7.105-15.465-4.803-32.899-2.582-49.774c2.971-22.438,5.75-43.652-12.934-59.195c-6.803-5.645-15.718-7.641-25.167-9.742
	c-8.253-1.85-16.783-3.768-24.008-8.339c-5.286-3.358-8.999-8.642-12.26-13.315c-3.167-4.537-6.148-8.815-8.941-8.815
	c-1.24,0-3.992,0.786-8.932,5.954l-2.875,3.028l-3.232-2.64c-5.416-4.426-9.902-10.056-14.242-15.492
	c-9.17-11.5-17.832-22.366-34.734-22.366c-3.232,0-6.707,0.395-10.352,1.165c-19.365,4.073-47.966,33.065-56.403,49.821
	c-1.982,3.931-2.834,10.134-3.647,16.122c-1.677,12.052-3.727,27.036-17.461,28.562c-9.968,1.117-17.448-7.746-23.903-15.479
	c-3.1-3.686-6.295-7.508-8.9-9.017c-9.783-5.682-19.846-6.142-31.049-6.142h-5.273c-13.588,0-26.773-0.814-38.928-10.621
	c-14.279-11.514-22.183-25.061-28.531-35.947C333.1,77.531,328.229,70.05,317.315,70.05c-6.826,0-15.812,2.94-27.482,9.023
	c-4.432,2.31-7.586,3.161-10.368,3.911c-3.86,1.053-6.653,1.792-12.403,6.803c-4.139,3.58-5.787,7.364-7.691,11.765
	c-1.799,4.112-3.832,8.775-8.186,12.955c-7.412,7.096-18.02,13.288-28.293,19.27c-7.641,4.452-14.852,8.659-19.924,12.791
	c-2.688,2.19-5.641,4.054-8.492,5.862c-5.6,3.56-10.896,6.922-12.801,11.807c-1.305,3.311,1.982,10.631,3.951,15.005
	c2.17,4.851,3.621,8.042,2.623,10.958c-2.555,7.398-8.836,11.02-13.881,13.908c-3.328,1.904-6.482,3.713-7.893,6.121
	c-2.939,5.031-3.127,8.244-3.301,11.367c-0.357,6.492-1.396,11.271-12.202,18.193c-4.766,3.046-10.968,3.291-17.423,3.291
	l-5.018-0.011c-11.698,0-21.771,0.957-26.724,12.743c-2.143,5.109-0.572,10.42,0.947,15.557c1.621,5.443,3.287,11.071-0.041,16.024
	c-2.517,3.74-7.293,6.022-15.24,7.225c-0.316,5.695-1.131,12.624-2.047,20.418c-3.035,25.936-7.188,61.443,5.59,72.357l5.613,4.796
	l-6.84,2.797c-1.744,0.712-2.756,3.205-3.287,5.178c-5.059,18.585,8.53,68.253,20.775,84.277c4.95,6.499,12.815,9.619,20.415,12.654
	c7.467,2.974,15.186,6.043,19.791,12.389c5.229,7.215,5.456,18.36,5.668,29.148c0.307,15.897,1.372,22.536,7.108,22.536
	c1.265,0,2.753-0.245,4.445-0.726l6.148-1.754l-0.374,5.78"/>
<path class="contour" stroke-miterlimit="10" d="M774.343,568.428
	c3.117-9.436,4.486-15.74,4.527-15.969c0.613-3.938,4.752-8.655,8.369-12.835c2.344-2.674,4.98-5.702,5.219-7.062
	c1.062-6.482,1.41-13.281,1.73-19.842c0.678-13.377,1.383-27.189,8.291-38.475c5.082-8.318,3.072-21.934,1.117-35.096
	c-1.557-10.54-3.021-20.517-0.572-27.03c9.037-23.943,15.291-59.635,7.732-81.408c-4.949-14.215-3.368-26.975-1.996-38.236
	c1.053-8.57,2.062-16.661-0.014-24.056c-3.434-12.263-10.393-17.911-17.754-23.882c-6.469-5.257-13.176-10.687-17.818-20.813
	c-7.787-16.964-6.377-35.3-5.004-53.037c1.969-25.615,3.832-49.811-20.203-69.81c-9.596-7.978-20.35-12.9-30.742-17.666
	c-7.307-3.348-14.866-6.812-21.961-11.299c-5.604-3.553-9.756-9.477-13.388-14.705c-4.54-6.476-8.451-12.059-13.734-12.059
	c-3.699,0-8.039,2.694-13.295,8.224l-0.974,1.012l-1.077-0.879c-6.08-4.964-11.271-11.456-16.262-17.74
	c-10.928-13.708-22.227-27.868-44.051-27.868c-4.061,0-8.438,0.48-13.029,1.451c-2.811,0.586-5.951,0.879-9.582,0.879
	c-8.227,0-17.676-1.516-26.805-2.98c-8.799-1.41-17.887-2.861-25.459-2.861c-10.195,0-16.252,2.616-19.072,8.216
	c-0.879,1.771-2.528,2.671-4.871,2.671c-4.18,0-10.819-2.916-20.029-6.942c-19.948-8.758-53.382-23.374-97.433-23.374
	c-36.53,0-74.143,10.106-111.845,30.051c-4.912,2.592-8.451,3.539-11.578,4.384c-4.66,1.257-8.676,2.337-16.092,8.771
	c-5.535,4.81-7.852,10.134-10.1,15.271c-2.064,4.752-4.221,9.675-8.809,14.086c-8.428,8.072-20.775,15.28-32.715,22.233
	c-9.156,5.364-17.818,10.399-24.049,15.458c-3.008,2.442-6.4,4.605-9.674,6.673c-7.16,4.554-13.936,8.853-16.664,15.792
	c-2.115,5.416,1.863,14.252,4.766,20.7c2.395,5.345,3.634,8.227,2.967,10.141c-2.541,7.423-8.717,10.948-14.692,14.389
	c-4.391,2.507-8.529,4.885-10.713,8.611c-3.951,6.748-4.206,11.203-4.418,15.151c-0.334,6.016-0.613,10.761-12.685,18.503
	c-4.763,3.035-11.47,3.294-18.524,3.294l-5.938-0.03c-14.65,0-28.371,1.342-35.105,17.427c-3.369,8.019-7.041,10.853-9.994,13.142
	c-4.578,3.54-7.906,6.095-7.082,29.411c1.383,38.822-2.395,73.373-6.043,106.769c-6.441,59.05-12.018,110.057,16.119,158.484
	c4.404,7.579,13.441,15.247,22.158,22.652c3.42,2.896,6.748,5.743,9.82,8.57"/>
<path class="contour large-step" stroke-miterlimit="10" d="M117.778,564.518
	c-1.543-7.174-2.368-14.613-2.194-22.353c0.16-7.937-10.58-17.056-20.986-25.871c-8.254-7.007-16.783-14.235-21.082-21.668
	c-34.322-59.069-27.258-151.709-23.848-196.24c0.637-8.332,1.145-14.906,1.182-19.045l0.014-1.356l1.346-0.122
	c8.955-0.883,14.266-2.715,16.221-5.614c1.945-2.889,0.682-7.146-0.797-12.085c-1.785-6.057-4.02-13.582-0.797-21.28
	c6.904-16.47,21.119-17.846,35.079-17.846l5.483,0.018c5.829,0,11.817-0.191,15.544-2.582c9.916-6.34,10.103-9.702,10.382-14.805
	c0.212-3.781,0.478-8.472,4.473-15.291c2.408-4.102,6.745-6.595,10.952-9.01c5.058-2.902,10.287-5.91,12.27-11.718
	c0.228-0.872-1.438-4.558-2.646-7.235c-3.035-6.785-6.841-15.223-4.433-21.348c2.849-7.293,9.808-11.704,16.515-15.962
	c2.971-1.87,6.016-3.818,8.666-5.968c5.906-4.813,14-9.531,22.557-14.515c10.887-6.354,22.131-12.917,29.666-20.129
	c3.818-3.665,5.604-7.752,7.49-12.085c2.211-5.028,4.486-10.247,10.09-15.104c7.398-6.414,11.404-7.514,16.064-8.771
	c2.848-0.77,5.787-1.563,10.021-3.757c12.814-6.677,22.131-12.12,28.931-16.085c10.423-6.084,15.652-9.129,20.403-9.129
	c5.138,0,8.97,3.512,16.634,10.484c4.432,4.033,9.957,9.078,17.795,15.387c11.66,9.422,24.314,10.182,38.461,10.182l5.75-0.014
	c12.682,0,25.074,0.6,37.105,7.586c3.818,2.215,7.504,6.602,11.404,11.259c6.374,7.6,12.855,15.451,20.496,14.64
	c9.994-1.104,11.644-13.043,13.374-25.666c0.984-7.048,1.972-14.341,4.646-19.611c3.141-6.268,9.542-9.184,20.177-9.184
	c7.211,0,15.73,1.373,23.939,2.691c8.332,1.328,16.943,2.715,24.318,2.715c3.15,0,5.842-0.242,8.236-0.753
	c4.432-0.939,8.676-1.403,12.631-1.403c21.531,0,32.404,13.633,42.92,26.829c4.418,5.531,8.608,10.794,13.533,15.039
	c5.018-5.031,9.409-7.467,13.401-7.467c6.39,0,10.58,5.995,15.025,12.352c3.368,4.83,6.854,9.813,11.554,12.79
	c6.946,4.398,15.318,6.269,24.182,8.251c10.604,2.36,21.546,4.816,30.144,11.963c23.129,19.232,19.709,45.229,16.395,70.375
	c-2.303,17.516-4.67,35.621,2.289,50.813c4.006,8.744,9.93,13.522,15.652,18.166c6.84,5.562,13.936,11.312,17.355,23.531
	c2.088,7.385,1.104,15.131,0.092,23.337c-1.277,10.58-2.646,21.524,1.703,34.009c1.662,4.752,3.393,8.955,4.926,12.668
	c5.361,13.077,9.248,22.52,3.059,38.904c-3.713,9.868-24.553,63.201-33.764,78.247c-5.988,9.787-6.588,21.624-7.225,34.149
	c-0.32,6.142-0.641,12.505-1.639,18.653c-0.32,1.969-2.289,4.302-5.48,7.95c-2.93,3.386-6.602,7.593-7.041,10.44
	c-0.188,1.117-8.41,9.177-12.018,11.5c0.037,2.436,0.119,4.803,0.184,7.092c0.146,4.404,0.256,8.536,0.027,12.519"/>
<path class="contour" stroke-miterlimit="10" d="M283.245,564.784
	c-3.713-1.809-6.854-3.706-8.836-5.723c-16.463-16.848-27.432-43.281-32.514-57.52c-2.01-5.661-2.422-9.909-2.77-13.656
	c-0.463-4.857-0.852-9.047-4.656-15.158c-2.742-4.391-6.881-5.835-11.258-7.371c-4.82-1.677-10.277-3.601-14.174-9.715
	c-6.455-10.209-9.422-34.03-11.207-48.272c-0.348-2.667-0.627-4.963-0.879-6.7c-7.188-49.116,12.59-84.702,35.508-125.919
	l1.209-2.17c3.09-5.556,8.812-11.684,14.869-18.166c8.795-9.409,18.762-20.063,21.572-30.338c1.863-6.86-1.41-14.858-4.592-22.563
	c-3.236-7.906-6.309-15.383-3.035-20.789c2.275-3.727,7.307-5.893,15.411-6.602c15.413-1.328,33.232,16.449,45.144,29.734
	c18.886,21.052,18.486,31.028,17.435,57.684l-0.226,5.811c-0.599,16.43-4.299,30.784-7.893,44.665
	c-6.734,26.137-12.576,48.7,5.563,75.604c19.443,28.855,64.387,54.614,98.109,56.277c58.638,2.793,74.902-66.326,75.314-102.569
	c0.093-6.394-1.825-10.236-3.675-13.956c-2.582-5.188-5.028-10.093-1.302-20.101c0.198-0.545,0.358-0.726,5.11-4.946
	c6.441-5.709,18.418-16.334,21.412-21.364l0.811-1.353c11.633-19.424,26.127-43.619,26.352-70.216l0.055-4.517l2.729,3.583
	c5.709,7.453,11.459,10.928,18.111,10.928c4.578,0,9.037-1.55,13.775-3.195c4.738-1.621,9.66-3.324,14.705-3.324
	c5.219,0,9.875,1.809,14.279,5.528c8.146,6.874,12.658,37.378,16.637,64.315c1.799,12.083,3.342,22.517,4.871,27.905
	c9.423,33.052,13.309,50.254-0.892,79.682c-3.247,6.693-9.354,14.014-15.81,21.764c-12.246,14.688-24.887,29.873-19.777,42.389
	l1.158,2.827l-2.98-0.732c-12.072-2.994-19.818-2.354-23.545,1.972c-4.643,5.417-2.953,16.542-1.328,27.31
	c1.223,7.978,2.473,16.234,1.291,22.744c-1.277,6.986-5.869,13.359-10.291,19.535c-3.434,4.779-6.666,9.275-8.424,13.949
	c-1.236,3.273-0.398,7.712,0.412,11.997c0.842,4.411,1.666,8.925,0.375,12.535"/>
<path class="contour large-step" stroke-miterlimit="10" d="M584.872,566.746
	c0.426-2.03,0.879-4.125,1.318-6.213c2.66-12.75,7.811-23.392,12.814-33.686c4.166-8.618,8.104-16.77,10.127-25.326
	c0.229-1.005-0.16-1.781-2.34-4.578c-2.582-3.314-6.922-8.87-4.166-16.854c3.406-9.943,10.406-11.898,15.049-13.169
	c3.57-0.991,5.324-1.577,6.908-4.061c2.568-4.037,2.609-7.886,2.688-12.788c0.096-5.504,0.188-11.718,4.074-18.479
	c2.623-4.513,7.226-7.678,11.697-10.727c3.979-2.729,8.066-5.535,9.849-8.744c2.755-5.004,2.796-10.907,2.81-17.154
	c0.052-6.128,0.079-12.457,2.767-18.347c1.972-4.312,6.55-6.233,11.38-8.25c3.659-1.526,8.649-3.614,9.103-5.951
	c1.598-8.39-3.233-19.688-7.931-30.616c-3.127-7.266-6.349-14.783-7.786-21.783c-4.364-21.168-9.463-43.189-16.995-60.923
	c-1.611-3.744-3.195-8.284-4.857-13.081c-4.871-14.021-10.955-31.468-20.309-37.433c-4.047-2.585-8.346-3.729-13.936-3.729
	c-2.82,0-5.736,0.279-8.57,0.565c-2.902,0.286-5.896,0.572-8.85,0.572c-6.854,0-16.824-1.438-24.406-13.901
	c-4.408-7.222-9.293-11.374-13.418-11.374c-4.775,0-9.5,6.002-11.725,14.947c-2.756,11.098-1.465,18.684-0.211,26.031
	c1.836,10.74,3.727,21.832-7.215,39.579c-4.473,7.248-10.621,14.122-16.555,20.775c-7.654,8.598-15.585,17.488-19.124,26.437
	c-4.993,12.61-2.582,19.931,0.426,29.199c2.62,7.991,5.587,17.042,4.204,30.177c-4.685,44.705-29.118,71.401-65.358,71.401
	c-23.943,0-49.229-12.131-67.66-32.433c-19.416-21.389-28.586-48.762-25.834-77.052c0.654-6.646,2.184-12.46,3.648-18.091
	c1.529-5.815,2.98-11.312,3.498-17.689c0.348-4.35-0.412-9.527-1.223-15.012c-0.865-5.894-1.771-11.99-1.305-17.673
	c0.8-9.449,2.408-16.19,3.713-21.6c2.848-11.752,3.699-15.305-9.395-30.524c-15.891-18.466-42.321-38.335-62.804-38.335
	c-9.518,0-17.09,4.166-23.143,12.736c-6.803,9.644-6.084,17.866-5.273,27.391c0.719,8.25,1.533,17.594-3.273,27.588
	c-3.1,6.521-8.836,11.405-13.867,15.697c-3.393,2.901-6.602,5.637-8.305,8.246c-2.5,3.805-3.846,7.736-5.256,11.916
	c-1.795,5.317-3.672,10.828-7.934,16.477c-8.516,11.299-28.984,35.075-38.232,43.938c-6.029,5.771-12.736,8.744-18.129,11.132
	c-3.992,1.758-7.743,3.427-8.369,5.116c-0.267,0.682-0.572,2.831,1.996,8.346c1.703,3.648,5.483,6.476,9.477,9.449
	c4.217,3.141,8.57,6.38,11.18,11.139c3.379,6.121,3.75,10.914,4.125,15.547c0.211,2.848,0.439,5.78,1.396,9.507
	c0.893,3.509,1.73,7.055,2.568,10.642c3.369,14.398,6.854,29.265,15.186,44.164c5.229,9.363,12.668,15.918,19.855,22.246
	c6.189,5.443,12.617,11.085,17.475,18.419c8.359,12.59,8.012,25.653,7.705,37.17c-0.279,10.26-0.504,19.137,4.551,27.309
	c2.051,3.301,4.578,6.482,7.307,9.609"/>
<path class="contour" stroke-miterlimit="10" d="M421.212,359.27c3.25,0,6.626-1.295,9.804-3.74
	c4.257-6.409,3.25-13.626,0.81-18.294c-2.307-4.454-5.988-7.103-9.841-7.103c-3.115,0-6.372,1.749-9.41,5.075
	c-4.319,4.729-5.498,10.733-3.167,16.046C411.556,356.117,416.192,359.27,421.212,359.27z"/>
<path class="contour" stroke-miterlimit="10" d="M445.568,565.741
	c0.215-0.146,0.402-0.293,0.6-0.439c7.027-5.27,14.307-10.72,22.281-14.545c8.223-3.965,19.842-4.766,31.06-5.528
	c10.569-0.726,21.48-1.465,27.83-4.834c22.264-11.844,25.139-44.095,25.34-57.41c0.092-5.399,0.078-9.763,0.051-13.35
	c-0.078-17.454,0.27-19.304,12.512-27.555c3.314-2.237,7.879-5.297,13.789-9.857c4.496-3.451,17.154-17.465,20.043-21.846
	c1.809-2.741,5.109-3.379,8.012-3.917c1.104-0.222,3.1-0.593,3.777-0.994c0.494-1.288-0.453-4.425-1.145-6.738
	c-1.291-4.269-2.742-9.099-0.586-13.588c12.549-26.001,11.752-29.073,4.074-58.511l-1.158-4.432
	c-3.021-11.479-7.16-27.203-8.025-38.598c-0.32-4.033,0.627-8.516,1.625-13.261c1.355-6.455,2.885-13.769,0.105-17.176
	c-4.102-5.018-7.998-7.572-11.605-7.572c-9.211,0-18.102,16.085-23.408,25.691c-0.668,1.232-1.332,2.415-1.932,3.481
	c-2.463,4.353-5.096,8.669-7.641,12.855c-2.34,3.859-4.748,7.865-7.064,11.885c0.211,0.6,0.6,1.451,0.838,2.092
	c1.611,3.736,4.271,10.001,0.398,15.264c-1.877,2.555-5.828,4.152-11.592,6.288c-0.984,0.364-2.248,0.831-3.021,1.165
	c-2.156,3.127-5.934,4.057-8.795,4.752c-1.424,0.364-3.795,0.937-4.139,1.543c-0.439,0.763-0.6,1.056,1.502,3.985
	c1.666,2.316,3.941,5.478,3.021,9.596c-0.957,4.132-0.531,9.786-0.105,15.778c0.531,6.973,1.117,14.879-0.412,22.131
	c-4.66,21.998-15.278,43.492-29.932,60.541c-16.89,19.655-36.04,29.213-58.546,29.213c-17.246,0-36.52-5.671-60.66-17.849
	c-26.512-13.374-72.651-41.649-83.79-80.585c-4.02-14.064-2.262-39.643,5.655-62.029c11.394-32.074,23.143-65.226,2.81-78.003
	c-0.96-0.599-1.958-0.902-3.021-0.902c-12.883,0-36.959,37.542-59.904,93.399c-11.189,27.281-4.789,42.824-1.076,73.85
	c2.156,18.006,6.547,29.703,11.646,43.244c2.326,6.217,4.734,12.61,7.092,20.077c2.637,8.353,3.938,14.998,5.082,20.86
	c2.664,13.561,3.996,20.37,18.555,31.223c7.345,5.471,16.875,10.239,26.097,14.845c9.037,4.527,18.381,9.197,26.14,14.726
	l4.245,3.021c8.012,5.743,16.834,12.045,26.109,17.522"/>
<path class="contour large-step" stroke-miterlimit="10" d="M395.662,555.02
	c-42.838-10.14-91.766-52.279-108.934-76.511c-20.626-29.138-33.202-98.173-22.627-145.837
	c4.676-21.104,15.041-48.993,37.828-62.009l4.586-2.604l-2.452,4.67c-5.447,10.408-9.543,27.743-12.855,41.649
	c-0.884,3.809-1.721,7.319-2.479,10.307c-8.307,32.13-1.401,67.072,11.275,86.311c5.274,8.021,14.416,15.195,24.067,22.779
	c5.07,4.003,10.306,8.104,15.423,12.672c12.544,11.136,34.858,24.335,53.077,31.394c17.952,6.955,35.203,10.479,51.224,10.479
	c27.265,0,50-10.174,67.582-30.22c6.895-7.862,12.365-19.12,17.691-29.998c4.649-9.52,9.447-19.36,15.264-27.132
	c10.784-14.417,7.435-26.576,4.185-38.339c-2.306-8.344-4.688-16.994-1.536-25.862c2.122-5.866,6.971-8.595,12.123-11.484
	c7.83-4.396,15.927-8.945,16.933-25.347l0.063-1.046l0.995-0.32c3.947-1.286,7.619,0.104,10.51,3.977
	c10.785,14.365,10.703,60.874,6.077,76.744c-2.859,9.898-12.135,32.175-19.633,39.527c-5.179,5.089-11.898,8.262-18.379,11.352
	c-6.726,3.19-13.091,6.218-17.887,11.154c-8.396,8.701-6.358,19.881-4.187,31.725c2.689,14.62,5.728,31.208-11.352,45.082
	c-8.746,7.142-27.813,11.301-46.216,15.32c-11.779,2.58-22.908,5.021-31.151,8.104c-4.382,2.926-10.869,8.012-17.733,11.602"/>
<path class="contour" stroke-miterlimit="10" d="M299.011,444.81l-4.052-4.842l-1.337,6.167
	c-1.987,9.25,1.113,19.409,9.236,30.22c17.57,23.386,54.23,43.153,74.461,44.853c12.003,4.978,24.54,7.608,36.319,7.608
	c11.326,0,21.9-2.358,31.449-7.002l8.511-4.126l-9.302-1.69C397.273,507.468,338.257,491.69,299.011,444.81z"/>
<path class="contour" stroke-miterlimit="10" d="M370.603,507.353l0.707,4.498
	c-2.208,3.295-30.842-7.491-50.155-25.541c-4.095-3.843-4.463-3.989-6.476-10.165c32.302,12.803,43.24,16.027,48.167,22.394
	C368.779,502.194,370.603,507.353,370.603,507.353z"/>
<path class="contour" stroke-miterlimit="10" d="M521.488,480.56
	c-0.942-0.7-2.122-1.056-3.485-1.056c-6.293,0-18.365,7.834-34.698,18.899c-6.014,4.09-11.701,7.938-14.109,9.039l-14.218,1.957
	l11.631,4.267c1.408,0.502,3.09,0.758,5.153,0.758c14.588,0,48.784-14.009,52.574-25.486
	C525.388,485.746,524.361,482.682,521.488,480.56z"/>
<path class="contour" stroke-miterlimit="10" d="M515.329,488.21
	c-1.985,5.995-2.491,10.492-17.449,14.3c-2.99,0.897-7.184-2.164-5.657-3.551c7.453-6.771,17.476-11.909,22.657-12.054
	C515.566,487.473,515.452,487.792,515.329,488.21z"/>
<path class="contour" stroke-miterlimit="10" d="M421.272,374.085
	c6.788,0,13.629-2.637,19.884-7.6l0.817-0.893c7.252-10.379,8.053-23.991,2.076-35.504c-4.809-9.25-12.919-14.772-21.656-14.772
	c-4.848,0-12.18,1.75-19.762,10.051c-8.563,9.332-10.822,21.346-6.067,32.134C401.022,367.586,410.705,374.085,421.272,374.085z"/>
<path class="contour" stroke-miterlimit="10" d="M413.939,305.008
	c-9.649,1.953-18.616,7.671-26.081,16.527l-0.904,1.506c-7.322,16.844-4.539,36.428,7.274,51.074
	c9.496,11.766,22.616,17.284,35.039,14.767c6.893-1.396,16.812-5.995,25.202-19.981c9.49-15.73,9.239-33.461-0.627-47.43
	C444.603,308.417,428.962,301.964,413.939,305.008z"/>
<path class="contour large-step" stroke-miterlimit="10" d="M408.917,331.126
	c4.347-4.757,9.003-7.259,13.459-7.259c5.51,0,10.775,3.787,14.075,10.157c3.489,6.677,4.931,16.998-1.157,26.164
	c-4.546,3.497-9.374,5.349-14.022,5.349c-7.18,0-13.811-4.509-16.882-11.463C401.056,346.477,402.74,337.888,408.917,331.126z"/>
</svg>
